<mxfile host="65bd71144e" modified="2021-03-08T09:20:35.531Z" agent="5.0 (Windows NT 10.0; Win64; x64) AppleWebKit/537.36 (KHTML, like Gecko) Code/1.54.1 Chrome/87.0.4280.141 Electron/11.3.0 Safari/537.36" etag="yTVGUVLurTcsB6-Rh9q4" version="14.2.4" type="embed" pages="3">
    <diagram name="Overall Architecture" id="rTF15OQrp3nUV-BkolvA">
        <mxGraphModel grid="1" gridSize="10" guides="1" tooltips="1" connect="1" arrows="1" page="1" fold="1" pageScale="1" pageWidth="850" pageHeight="1100" math="0" shadow="0">
            <root>
                <mxCell id="KINrCgI-4FL6j2Hm-c1F-0"/>
                <mxCell id="KINrCgI-4FL6j2Hm-c1F-1" parent="KINrCgI-4FL6j2Hm-c1F-0"/>
                <mxCell id="KINrCgI-4FL6j2Hm-c1F-2" style="vsdxID=259;fillColor=#ffffff;gradientColor=none;shape=stencil(nZBLDoAgDERP0z3SIyjew0SURgSD+Lu9kMZoXLhwN9O+tukAlrNpJg1SzDH4QW/URgNYgZTkjA4UkwJUgGXng+6DX1zLfmoymdXo17xh5zmRJ6Q42BWCfc2oJfdAr+Yv+AP9Cb7OJ3H/2JG1HNGz/84klThPVCc=);strokeColor=none;labelBackgroundColor=none;rounded=0;html=1;whiteSpace=wrap;" parent="KINrCgI-4FL6j2Hm-c1F-1" vertex="1">
                    <mxGeometry x="20" y="42" width="1060" height="848" as="geometry"/>
                </mxCell>
                <mxCell id="KINrCgI-4FL6j2Hm-c1F-3" style="vsdxID=1663;fillColor=#ebebeb;gradientColor=none;shape=stencil(nZBLDoAgDERP0z3SIyjew0SURgSD+Lu9kMZoXLhwN9O+tukAlrNpJg1SzDH4QW/URgNYgZTkjA4UkwJUgGXng+6DX1zLfmoymdXo17xh5zmRJ6Q42BWCfc2oJfdAr+Yv+AP9Cb7OJ3H/2JG1HNGz/84klThPVCc=);dashed=1;dashPattern=1.00 2.00;strokeColor=#0078d4;strokeWidth=2;labelBackgroundColor=none;rounded=0;html=1;whiteSpace=wrap;" parent="KINrCgI-4FL6j2Hm-c1F-1" vertex="1">
                    <mxGeometry x="479" y="179" width="546" height="441" as="geometry"/>
                </mxCell>
                <mxCell id="KINrCgI-4FL6j2Hm-c1F-4" value="&lt;font style=&quot;font-size:19px;font-family:Segoe UI Semibold;color:#000000;direction:ltr;letter-spacing:0px;line-height:120%;opacity:1&quot;&gt;Azure&lt;br/&gt;&lt;/font&gt;" style="text;vsdxID=1663;fillColor=none;gradientColor=none;dashed=1;dashPattern=1.00 2.00;strokeColor=none;strokeWidth=2;labelBackgroundColor=none;rounded=0;html=1;whiteSpace=wrap;verticalAlign=middle;align=center;;html=1;" parent="KINrCgI-4FL6j2Hm-c1F-3" vertex="1">
                    <mxGeometry y="-59.54565217391304" width="544.28" height="55.71086956521739" as="geometry"/>
                </mxCell>
                <mxCell id="KINrCgI-4FL6j2Hm-c1F-5" style="vsdxID=1894;fillColor=none;gradientColor=none;strokeColor=none;spacingTop=-3;spacingBottom=-3;spacingLeft=-3;spacingRight=-3;labelBackgroundColor=none;rounded=0;html=1;whiteSpace=wrap;" parent="KINrCgI-4FL6j2Hm-c1F-3" vertex="1">
                    <mxGeometry x="420.99999999999994" y="76.91" width="63.18" height="49" as="geometry"/>
                </mxCell>
                <mxCell id="KINrCgI-4FL6j2Hm-c1F-6" style="vsdxID=1895;fillColor=#0078d4;gradientColor=none;shape=stencil(vVNLDsIgED0NSwxCrOm61nsQS1siQjOgrbeXCtH+4sIm3c3Me8P8eIhltuaNQJRYB+YqWlm4GrETolTqWoB03kIsRywrDYgKzF0XwW94z+ytm3n0L3Qhj/QZlDyDlx7e7jkwOVw8BJHJdowFMkR2IJMZHuE9iY93mHfSYjCOO2n0qLDiUAnsK+FS8WoE2VaIZhaOvSmpB1OkyS45Lhb/a5RP5+O1bDDItPKKe8x3stk5Zl9hxS2W9rHBCL904Y2vnEqpVFDjEJ/Kz4eCdFn+Ag==);strokeColor=none;spacingTop=-3;spacingBottom=-3;spacingLeft=-3;spacingRight=-3;labelBackgroundColor=none;rounded=0;html=1;whiteSpace=wrap;" parent="KINrCgI-4FL6j2Hm-c1F-5" vertex="1">
                    <mxGeometry width="49" height="32" as="geometry"/>
                </mxCell>
                <mxCell id="KINrCgI-4FL6j2Hm-c1F-7" style="vsdxID=1896;fillColor=#50e6ff;gradientColor=none;shape=stencil(lZHBCsIwEES/Zq8lZqR4r/U/Ck3NYkxKGq3+vQmLaAWl3mY2b5ZlQmgm242GtJpSDCczc58sYU9as7cmcsqK0BKaIURzjOHie/FjV8iizuFaNtwkt1GqZLS6ixd3ENSx/4HWdbXdfceX8DO8AgUqYP0Zf1y8QLN4lTKwc9Lp+/tniXkkH4D2AQ==);strokeColor=none;spacingTop=-3;spacingBottom=-3;spacingLeft=-3;spacingRight=-3;labelBackgroundColor=none;rounded=0;html=1;whiteSpace=wrap;" parent="KINrCgI-4FL6j2Hm-c1F-5" vertex="1">
                    <mxGeometry x="24" y="11" width="8" height="14" as="geometry"/>
                </mxCell>
                <mxCell id="KINrCgI-4FL6j2Hm-c1F-8" style="vsdxID=1897;fillColor=#c3f1ff;gradientColor=none;shape=stencil(UzV2Ls5ILEhVNTIoLinKz04tz0wpyVA1dlE1MsrMy0gtyiwBslSNXVWNndPyi1LTi/JL81Ig/IJEkEoQKze/DGRCBUSfoYEBSI+RQSWEb2KpZ2EGFnGDKM/JzENSboqqGqYbq1pKDMZjLIkuJqgcyEAETlpmTg4kbJHl0QMTKASJCGNXAA==);strokeColor=none;spacingTop=-3;spacingBottom=-3;spacingLeft=-3;spacingRight=-3;labelBackgroundColor=none;rounded=0;html=1;whiteSpace=wrap;" parent="KINrCgI-4FL6j2Hm-c1F-5" vertex="1">
                    <mxGeometry x="16" y="6" width="16" height="9" as="geometry"/>
                </mxCell>
                <mxCell id="KINrCgI-4FL6j2Hm-c1F-9" style="vsdxID=1898;fillColor=#9cebff;gradientColor=none;shape=stencil(UzV2Ls5ILEhVNTIoLinKz04tz0wpyVA1dlE1MsrMy0gtyiwBslSNXVWNndPyi1LTi/JL81Ig/IJEkEoQKze/DGRCBUSfoYEBSI+RQSWEb2ysZ2oEFnGDKM/JzMOjHMbHqhhVqZmZnokFsYrxmEqhizGUAxmIwEnLzMmBhC2yPHpgAoUgEWHsCgA=);strokeColor=none;spacingTop=-3;spacingBottom=-3;spacingLeft=-3;spacingRight=-3;labelBackgroundColor=none;rounded=0;html=1;whiteSpace=wrap;" parent="KINrCgI-4FL6j2Hm-c1F-5" vertex="1">
                    <mxGeometry x="16" y="11" width="8" height="14" as="geometry"/>
                </mxCell>
                <mxCell id="KINrCgI-4FL6j2Hm-c1F-10" style="vsdxID=1899;fillColor=#c3f1ff;gradientColor=none;shape=stencil(UzV2Ls5ILEhVNTIoLinKz04tz0wpyVA1dlE1MsrMy0gtyiwBslSNXVWNndPyi1LTi/JL81Ig/IJEkEoQKze/DGRCBUSfAUiHkUElhGdiqWduCBZxgyjOycxDUmxogKrcgHilMD5WxSQ5goBiIAPh17TMnBxIUCHLo4cNUAgSrsauAA==);strokeColor=none;spacingTop=-3;spacingBottom=-3;spacingLeft=-3;spacingRight=-3;labelBackgroundColor=none;rounded=0;html=1;whiteSpace=wrap;" parent="KINrCgI-4FL6j2Hm-c1F-5" vertex="1">
                    <mxGeometry x="16" y="16" width="8" height="9" as="geometry"/>
                </mxCell>
                <mxCell id="KINrCgI-4FL6j2Hm-c1F-11" style="vsdxID=1900;fillColor=#9cebff;gradientColor=none;shape=stencil(UzV2Ls5ILEhVNTIoLinKz04tz0wpyVA1dlE1MsrMy0gtyiwBslSNXVWNndPyi1LTi/JL81Ig/IJEkEoQKze/DGRCBUSfoYEBSI+RQSWEb2KpZ24IFnGDKM/JzENSjqrYgFiFMFuwKiXRCQSVAxkI36Zl5uRAAgtZHj10gEKQkDV2BQA=);strokeColor=none;spacingTop=-3;spacingBottom=-3;spacingLeft=-3;spacingRight=-3;labelBackgroundColor=none;rounded=0;html=1;whiteSpace=wrap;" parent="KINrCgI-4FL6j2Hm-c1F-5" vertex="1">
                    <mxGeometry x="24" y="16" width="8" height="9" as="geometry"/>
                </mxCell>
                <mxCell id="KINrCgI-4FL6j2Hm-c1F-12" style="vsdxID=1901;fillColor=#0078d4;gradientColor=none;shape=stencil(vVPBbsMgDP0ajkGA06Q5d+1/oJYkaCxEhK7s70eG25Gk2qQddjPPz7xnyyZwmHo5KiLY5J19VTd98T2BFyKEHnrltI8RgSOBQ2ud6py9Dpf0HuXMnKM3+z7/EFJdwyjnc5VgHwmp97T8Ak6Jf766VMAxzygAVtwhQWGXoCASVDV0VyELobKkNUoF2LIQYrm20UPmFTLlJ+S1UdgazS2gK9HQql4azdtBVw3dN0uf6zFJd45Zh1Y5f4zVoVfBKbYacvP3VjjDdyhk0FPhrJde22HBNdJ1qohSRWtkt0hNN6XGDfx0jg+plfSfO/lhif6hnd9XOAbf+99qY9L55Pn1vUQo3RocPwE=);strokeColor=none;spacingTop=-3;spacingBottom=-3;spacingLeft=-3;spacingRight=-3;labelBackgroundColor=none;rounded=0;html=1;whiteSpace=wrap;" parent="KINrCgI-4FL6j2Hm-c1F-5" vertex="1">
                    <mxGeometry x="12" y="32" width="24" height="12" as="geometry"/>
                </mxCell>
                <mxCell id="KINrCgI-4FL6j2Hm-c1F-13" value="" style="aspect=fixed;html=1;points=[];align=center;image;fontSize=12;image=img/lib/azure2/security/Security_Center.svg;rounded=0;sketch=0;strokeColor=#457B9D;fillColor=#A8DADC;" parent="KINrCgI-4FL6j2Hm-c1F-5" vertex="1">
                    <mxGeometry x="36" y="16" width="27.18" height="33" as="geometry"/>
                </mxCell>
                <mxCell id="KINrCgI-4FL6j2Hm-c1F-14" style="vsdxID=1894;fillColor=none;gradientColor=none;strokeColor=none;spacingTop=-3;spacingBottom=-3;spacingLeft=-3;spacingRight=-3;labelBackgroundColor=none;rounded=0;html=1;whiteSpace=wrap;" parent="KINrCgI-4FL6j2Hm-c1F-3" vertex="1">
                    <mxGeometry x="420.99999999999994" y="161" width="63.18" height="49" as="geometry"/>
                </mxCell>
                <mxCell id="KINrCgI-4FL6j2Hm-c1F-15" style="vsdxID=1895;fillColor=#0078d4;gradientColor=none;shape=stencil(vVNLDsIgED0NSwxCrOm61nsQS1siQjOgrbeXCtH+4sIm3c3Me8P8eIhltuaNQJRYB+YqWlm4GrETolTqWoB03kIsRywrDYgKzF0XwW94z+ytm3n0L3Qhj/QZlDyDlx7e7jkwOVw8BJHJdowFMkR2IJMZHuE9iY93mHfSYjCOO2n0qLDiUAnsK+FS8WoE2VaIZhaOvSmpB1OkyS45Lhb/a5RP5+O1bDDItPKKe8x3stk5Zl9hxS2W9rHBCL904Y2vnEqpVFDjEJ/Kz4eCdFn+Ag==);strokeColor=none;spacingTop=-3;spacingBottom=-3;spacingLeft=-3;spacingRight=-3;labelBackgroundColor=none;rounded=0;html=1;whiteSpace=wrap;" parent="KINrCgI-4FL6j2Hm-c1F-14" vertex="1">
                    <mxGeometry width="49" height="32" as="geometry"/>
                </mxCell>
                <mxCell id="KINrCgI-4FL6j2Hm-c1F-16" style="vsdxID=1896;fillColor=#50e6ff;gradientColor=none;shape=stencil(lZHBCsIwEES/Zq8lZqR4r/U/Ck3NYkxKGq3+vQmLaAWl3mY2b5ZlQmgm242GtJpSDCczc58sYU9as7cmcsqK0BKaIURzjOHie/FjV8iizuFaNtwkt1GqZLS6ixd3ENSx/4HWdbXdfceX8DO8AgUqYP0Zf1y8QLN4lTKwc9Lp+/tniXkkH4D2AQ==);strokeColor=none;spacingTop=-3;spacingBottom=-3;spacingLeft=-3;spacingRight=-3;labelBackgroundColor=none;rounded=0;html=1;whiteSpace=wrap;" parent="KINrCgI-4FL6j2Hm-c1F-14" vertex="1">
                    <mxGeometry x="24" y="11" width="8" height="14" as="geometry"/>
                </mxCell>
                <mxCell id="KINrCgI-4FL6j2Hm-c1F-17" style="vsdxID=1897;fillColor=#c3f1ff;gradientColor=none;shape=stencil(UzV2Ls5ILEhVNTIoLinKz04tz0wpyVA1dlE1MsrMy0gtyiwBslSNXVWNndPyi1LTi/JL81Ig/IJEkEoQKze/DGRCBUSfoYEBSI+RQSWEb2KpZ2EGFnGDKM/JzENSboqqGqYbq1pKDMZjLIkuJqgcyEAETlpmTg4kbJHl0QMTKASJCGNXAA==);strokeColor=none;spacingTop=-3;spacingBottom=-3;spacingLeft=-3;spacingRight=-3;labelBackgroundColor=none;rounded=0;html=1;whiteSpace=wrap;" parent="KINrCgI-4FL6j2Hm-c1F-14" vertex="1">
                    <mxGeometry x="16" y="6" width="16" height="9" as="geometry"/>
                </mxCell>
                <mxCell id="KINrCgI-4FL6j2Hm-c1F-18" style="vsdxID=1898;fillColor=#9cebff;gradientColor=none;shape=stencil(UzV2Ls5ILEhVNTIoLinKz04tz0wpyVA1dlE1MsrMy0gtyiwBslSNXVWNndPyi1LTi/JL81Ig/IJEkEoQKze/DGRCBUSfoYEBSI+RQSWEb2ysZ2oEFnGDKM/JzMOjHMbHqhhVqZmZnokFsYrxmEqhizGUAxmIwEnLzMmBhC2yPHpgAoUgEWHsCgA=);strokeColor=none;spacingTop=-3;spacingBottom=-3;spacingLeft=-3;spacingRight=-3;labelBackgroundColor=none;rounded=0;html=1;whiteSpace=wrap;" parent="KINrCgI-4FL6j2Hm-c1F-14" vertex="1">
                    <mxGeometry x="16" y="11" width="8" height="14" as="geometry"/>
                </mxCell>
                <mxCell id="KINrCgI-4FL6j2Hm-c1F-19" style="vsdxID=1899;fillColor=#c3f1ff;gradientColor=none;shape=stencil(UzV2Ls5ILEhVNTIoLinKz04tz0wpyVA1dlE1MsrMy0gtyiwBslSNXVWNndPyi1LTi/JL81Ig/IJEkEoQKze/DGRCBUSfAUiHkUElhGdiqWduCBZxgyjOycxDUmxogKrcgHilMD5WxSQ5goBiIAPh17TMnBxIUCHLo4cNUAgSrsauAA==);strokeColor=none;spacingTop=-3;spacingBottom=-3;spacingLeft=-3;spacingRight=-3;labelBackgroundColor=none;rounded=0;html=1;whiteSpace=wrap;" parent="KINrCgI-4FL6j2Hm-c1F-14" vertex="1">
                    <mxGeometry x="16" y="16" width="8" height="9" as="geometry"/>
                </mxCell>
                <mxCell id="KINrCgI-4FL6j2Hm-c1F-20" style="vsdxID=1900;fillColor=#9cebff;gradientColor=none;shape=stencil(UzV2Ls5ILEhVNTIoLinKz04tz0wpyVA1dlE1MsrMy0gtyiwBslSNXVWNndPyi1LTi/JL81Ig/IJEkEoQKze/DGRCBUSfoYEBSI+RQSWEb2KpZ24IFnGDKM/JzENSjqrYgFiFMFuwKiXRCQSVAxkI36Zl5uRAAgtZHj10gEKQkDV2BQA=);strokeColor=none;spacingTop=-3;spacingBottom=-3;spacingLeft=-3;spacingRight=-3;labelBackgroundColor=none;rounded=0;html=1;whiteSpace=wrap;" parent="KINrCgI-4FL6j2Hm-c1F-14" vertex="1">
                    <mxGeometry x="24" y="16" width="8" height="9" as="geometry"/>
                </mxCell>
                <mxCell id="KINrCgI-4FL6j2Hm-c1F-21" style="vsdxID=1901;fillColor=#0078d4;gradientColor=none;shape=stencil(vVPBbsMgDP0ajkGA06Q5d+1/oJYkaCxEhK7s70eG25Gk2qQddjPPz7xnyyZwmHo5KiLY5J19VTd98T2BFyKEHnrltI8RgSOBQ2ud6py9Dpf0HuXMnKM3+z7/EFJdwyjnc5VgHwmp97T8Ak6Jf766VMAxzygAVtwhQWGXoCASVDV0VyELobKkNUoF2LIQYrm20UPmFTLlJ+S1UdgazS2gK9HQql4azdtBVw3dN0uf6zFJd45Zh1Y5f4zVoVfBKbYacvP3VjjDdyhk0FPhrJde22HBNdJ1qohSRWtkt0hNN6XGDfx0jg+plfSfO/lhif6hnd9XOAbf+99qY9L55Pn1vUQo3RocPwE=);strokeColor=none;spacingTop=-3;spacingBottom=-3;spacingLeft=-3;spacingRight=-3;labelBackgroundColor=none;rounded=0;html=1;whiteSpace=wrap;" parent="KINrCgI-4FL6j2Hm-c1F-14" vertex="1">
                    <mxGeometry x="12" y="32" width="24" height="12" as="geometry"/>
                </mxCell>
                <mxCell id="KINrCgI-4FL6j2Hm-c1F-22" value="" style="aspect=fixed;html=1;points=[];align=center;image;fontSize=12;image=img/lib/azure2/security/Security_Center.svg;rounded=0;sketch=0;strokeColor=#457B9D;fillColor=#A8DADC;" parent="KINrCgI-4FL6j2Hm-c1F-14" vertex="1">
                    <mxGeometry x="36" y="16" width="27.18" height="33" as="geometry"/>
                </mxCell>
                <mxCell id="KINrCgI-4FL6j2Hm-c1F-23" value="" style="aspect=fixed;html=1;points=[];align=center;image;fontSize=12;image=img/lib/azure2/storage/Storage_Accounts.svg;labelBackgroundColor=#F1FAEE;fillColor=#A8DADC;strokeColor=#457B9D;fontColor=#1D3557;" parent="KINrCgI-4FL6j2Hm-c1F-3" vertex="1">
                    <mxGeometry x="421" y="261" width="48.75" height="39" as="geometry"/>
                </mxCell>
                <mxCell id="KINrCgI-4FL6j2Hm-c1F-24" value="" style="aspect=fixed;html=1;points=[];align=center;image;fontSize=12;image=img/lib/azure2/security/Security_Center.svg;rounded=0;sketch=0;strokeColor=#457B9D;fillColor=#A8DADC;" parent="KINrCgI-4FL6j2Hm-c1F-3" vertex="1">
                    <mxGeometry x="456.91" y="276.05" width="27.18" height="33" as="geometry"/>
                </mxCell>
                <mxCell id="KINrCgI-4FL6j2Hm-c1F-25" value="&lt;font style=&quot;color: rgb(60 , 60 , 65) ; direction: ltr ; letter-spacing: 0px ; line-height: 120% ; opacity: 1&quot;&gt;&lt;font face=&quot;segoe ui&quot;&gt;&lt;span style=&quot;font-size: 14px&quot;&gt;Windows VM&lt;/span&gt;&lt;/font&gt;&lt;br&gt;&lt;/font&gt;" style="text;vsdxID=1620;fillColor=none;gradientColor=none;strokeColor=none;spacingTop=-3;spacingBottom=-3;spacingLeft=-3;spacingRight=-3;labelBackgroundColor=none;rounded=0;html=1;whiteSpace=wrap;verticalAlign=middle;align=center;;html=1;" parent="KINrCgI-4FL6j2Hm-c1F-3" vertex="1">
                    <mxGeometry x="414" y="141" width="88.68" height="22.91" as="geometry"/>
                </mxCell>
                <mxCell id="KINrCgI-4FL6j2Hm-c1F-26" value="&lt;font style=&quot;color: rgb(60 , 60 , 65) ; direction: ltr ; letter-spacing: 0px ; line-height: 120% ; opacity: 1&quot;&gt;&lt;font face=&quot;segoe ui&quot;&gt;&lt;span style=&quot;font-size: 14px&quot;&gt;Linux VM&lt;/span&gt;&lt;/font&gt;&lt;br&gt;&lt;/font&gt;" style="text;vsdxID=1620;fillColor=none;gradientColor=none;strokeColor=none;spacingTop=-3;spacingBottom=-3;spacingLeft=-3;spacingRight=-3;labelBackgroundColor=none;rounded=0;html=1;whiteSpace=wrap;verticalAlign=middle;align=center;;html=1;" parent="KINrCgI-4FL6j2Hm-c1F-3" vertex="1">
                    <mxGeometry x="401.04" y="51" width="88.68" height="28.91" as="geometry"/>
                </mxCell>
                <mxCell id="KINrCgI-4FL6j2Hm-c1F-27" value="&lt;font style=&quot;color: rgb(60 , 60 , 65) ; direction: ltr ; letter-spacing: 0px ; line-height: 120% ; opacity: 1&quot;&gt;&lt;font face=&quot;segoe ui&quot;&gt;&lt;span style=&quot;font-size: 14px&quot;&gt;Storage Account&lt;/span&gt;&lt;/font&gt;&lt;br&gt;&lt;/font&gt;" style="text;vsdxID=1620;fillColor=none;gradientColor=none;strokeColor=none;spacingTop=-3;spacingBottom=-3;spacingLeft=-3;spacingRight=-3;labelBackgroundColor=none;rounded=0;html=1;whiteSpace=wrap;verticalAlign=middle;align=center;;html=1;" parent="KINrCgI-4FL6j2Hm-c1F-3" vertex="1">
                    <mxGeometry x="421" y="238.08999999999997" width="99" height="22.91" as="geometry"/>
                </mxCell>
                <mxCell id="KINrCgI-4FL6j2Hm-c1F-28" value="" style="aspect=fixed;html=1;points=[];align=center;image;fontSize=12;image=img/lib/azure2/management_governance/Automation_Accounts.svg;labelBackgroundColor=#F1FAEE;fillColor=#A8DADC;strokeColor=#457B9D;fontColor=#1D3557;" parent="KINrCgI-4FL6j2Hm-c1F-3" vertex="1">
                    <mxGeometry x="237.37" y="295.05" width="50" height="50" as="geometry"/>
                </mxCell>
                <mxCell id="KINrCgI-4FL6j2Hm-c1F-29" value="" style="aspect=fixed;html=1;points=[];align=center;image;fontSize=12;image=img/lib/azure2/storage/Storage_Accounts.svg;labelBackgroundColor=#F1FAEE;fillColor=#A8DADC;strokeColor=#457B9D;fontColor=#1D3557;" parent="KINrCgI-4FL6j2Hm-c1F-3" vertex="1">
                    <mxGeometry x="421" y="357.90999999999997" width="48.75" height="39" as="geometry"/>
                </mxCell>
                <mxCell id="KINrCgI-4FL6j2Hm-c1F-30" value="" style="aspect=fixed;html=1;points=[];align=center;image;fontSize=12;image=img/lib/azure2/security/Security_Center.svg;rounded=0;sketch=0;strokeColor=#457B9D;fillColor=#A8DADC;" parent="KINrCgI-4FL6j2Hm-c1F-3" vertex="1">
                    <mxGeometry x="455" y="373.90999999999997" width="27.18" height="33" as="geometry"/>
                </mxCell>
                <mxCell id="KINrCgI-4FL6j2Hm-c1F-31" value="&lt;font style=&quot;color: rgb(60 , 60 , 65) ; direction: ltr ; letter-spacing: 0px ; line-height: 120% ; opacity: 1&quot;&gt;&lt;font face=&quot;segoe ui&quot;&gt;&lt;span style=&quot;font-size: 14px&quot;&gt;Storage Account Archive&lt;/span&gt;&lt;/font&gt;&lt;br&gt;&lt;/font&gt;" style="text;vsdxID=1620;fillColor=none;gradientColor=none;strokeColor=none;spacingTop=-3;spacingBottom=-3;spacingLeft=-3;spacingRight=-3;labelBackgroundColor=none;rounded=0;html=1;whiteSpace=wrap;verticalAlign=middle;align=center;;html=1;" parent="KINrCgI-4FL6j2Hm-c1F-3" vertex="1">
                    <mxGeometry x="421" y="332" width="99" height="22.91" as="geometry"/>
                </mxCell>
                <mxCell id="KINrCgI-4FL6j2Hm-c1F-32" style="vsdxID=1469;fillColor=#ffffff;gradientColor=none;shape=stencil(nZBLDsIwDAVP4y0yzoIDlHIBThARQyxCUqXhe3rSukhVFyy6s98by9KAaXpvOwbCvuR05ae44sHsgUii5yylTmBaMM05Zb7kdI9O985WknBM2OnNdqAJbT4d5cNTRpudxnp3S4/h30tb1Oo9saj7QdEgcYb+ylXwH3QluHhfh9GIupIQVOi8Xxqskdo37Rc=);strokeColor=#0078d4;strokeWidth=2;labelBackgroundColor=none;rounded=1;html=1;whiteSpace=wrap;" parent="KINrCgI-4FL6j2Hm-c1F-3" vertex="1">
                    <mxGeometry x="41" y="269.05" width="127" height="111" as="geometry"/>
                </mxCell>
                <mxCell id="KINrCgI-4FL6j2Hm-c1F-33" value="&lt;font style=&quot;font-size:14px;font-family:Segoe UI;color:#3c3c41;direction:ltr;letter-spacing:0px;line-height:120%;opacity:1&quot;&gt;Azure Sentinel&lt;br/&gt;(SIEM &amp;amp; SOAR)&lt;/font&gt;&lt;font style=&quot;font-size:16px;font-family:Themed;color:#3c3c41;direction:ltr;letter-spacing:0px;line-height:120%;opacity:1&quot;&gt;&lt;br/&gt;&lt;/font&gt;" style="text;vsdxID=1430;fillColor=none;gradientColor=none;strokeColor=none;spacingTop=-3;spacingBottom=-3;spacingLeft=-3;spacingRight=-3;labelBackgroundColor=none;rounded=0;html=1;whiteSpace=wrap;verticalAlign=middle;align=center;;html=1;" parent="KINrCgI-4FL6j2Hm-c1F-3" vertex="1">
                    <mxGeometry x="44.17999999999995" y="326.96000000000004" width="123.82" height="53.09" as="geometry"/>
                </mxCell>
                <mxCell id="KINrCgI-4FL6j2Hm-c1F-34" style="vsdxID=1430;fillColor=none;gradientColor=none;strokeColor=none;spacingTop=-3;spacingBottom=-3;spacingLeft=-3;spacingRight=-3;labelBackgroundColor=none;rounded=0;html=1;whiteSpace=wrap;" parent="KINrCgI-4FL6j2Hm-c1F-3" vertex="1">
                    <mxGeometry x="88" y="281.00000000000006" width="33" height="40" as="geometry"/>
                </mxCell>
                <mxCell id="KINrCgI-4FL6j2Hm-c1F-35" style="vsdxID=1431;fillColor=#1b93eb;gradientColor=none;shape=stencil(vZRRb4QgDMc/jY8SoALH8+32PcgdKpnTC3o79+2Hg5tWM5cs2d7g39KWX5tmcOxrc7UZp/3guxd7d5ehzuAp49y1tfVuCKcMThkcy87byne39hLvVzN5TqfX7m2KMMZ3jNLpDafv8V5IIvWn8hzdzzcf/dn6QRIUECGjNPIoSUpEckqKFoQnH4iKYERDckqS1kSyZW7jz8HsU6lA6CE+8KlYTkSRoqbqD0QW6D9zTDrmZnR97rvBDK5roz19pjG+snnIl5eNqZCpv1t7Xchsjw5oojTms/g6R4EfbCaAmA3FXDY9aVy7aCFuICsIiD2IrNhA1Ahi4KxwSEaU/EeGxVwA+6qAMQyRK0yRrsZrxZDuZVSA01GcSop5VPm2oMf0ynn2YA3ut70I46vYN/39k2bg0fpxO4TDvFlK1zRxMS3t600UpLjF4PQB);strokeColor=none;spacingTop=-3;spacingBottom=-3;spacingLeft=-3;spacingRight=-3;labelBackgroundColor=none;rounded=0;html=1;whiteSpace=wrap;" parent="KINrCgI-4FL6j2Hm-c1F-34" vertex="1">
                    <mxGeometry width="33" height="40" as="geometry"/>
                </mxCell>
                <mxCell id="KINrCgI-4FL6j2Hm-c1F-36" style="vsdxID=1432;fillColor=#0078d4;gradientColor=none;shape=stencil(vZTNcoIwEMefhiM7yS4Ecrb6HhlFzZSCE7DSt29ogma1taf2Fv77/VtmM1oNR3NqMhTD6PrX5mJ34zGjlwzRdsfG2dG/MlpntNr3rjm4/tztwvfJzJ7z661/nzNMIU5r0DhHofgISqGg/hI2wX97diFAPkZEqSJQOkgTBkkJwMUrSroErKIXBamUoGT0omt6hWl947be7GK/BLIMAS72i1AuWeMANRAf6ZZTTLmZ7JC7fjSj7btgF8HWGndocl8v37fmwEzDpWlOiSyfESINFQeUjo4s8QInRUjcg77fS2u7ZI+CDSwLqPQziHGABKIiBhFB1zylhOo/GRLUxCH6DoTkEFFBUXGQgkMs/N+qOEjxrK7fQ1HyuoLXVOraxlLTd3b/Z2sFuuR1bwR/WsrDThbgMYF42DLWf7cS/oP9fij843Zl9rZtw5FK7fdXyUvhotH6Ew==);strokeColor=none;spacingTop=-3;spacingBottom=-3;spacingLeft=-3;spacingRight=-3;labelBackgroundColor=none;rounded=0;html=1;whiteSpace=wrap;" parent="KINrCgI-4FL6j2Hm-c1F-34" vertex="1">
                    <mxGeometry x="1" y="1" width="30" height="37" as="geometry"/>
                </mxCell>
                <mxCell id="KINrCgI-4FL6j2Hm-c1F-37" style="vsdxID=1433;fillColor=#c3f1ff;gradientColor=none;shape=stencil(xZTbcoMgEIafhkt3OIjCdZq+B9OgMrXioGns2xcK00rSpL2Ik7tlD/DtzvIjtps6NWpE8TQ7+6pP5jB3iD0hSs3QaWdmbyG2R2zXWKdbZ4/DIZ5HFTKD9Wbfww1LrOM4lFD8EY8lB0K+PM8xW7kXH3Upm9bAy1jgUgXngGV0paS6BsKzWyUFljxLoRYzFc7OajZ2iPHE0CvX6sK/WDS9arPQdNJ6XLlvMJZQyRxRAhMZoSAgyoyQYHxXPrzm682wmrjkEGK/PH6tHXHRTp218w2fEoQEUW3XTs7HMdCzeXse4PlOPBDwHwMsoRaPWgcigFR3XQdKQWz9/24QBo1glxqRM16VnU0EIp/4X5LnjR+1bEzfR7Fdx8/V1buiMrP9Jw==);strokeColor=none;spacingTop=-3;spacingBottom=-3;spacingLeft=-3;spacingRight=-3;labelBackgroundColor=none;rounded=0;html=1;whiteSpace=wrap;" parent="KINrCgI-4FL6j2Hm-c1F-34" vertex="1">
                    <mxGeometry x="4" y="8" width="24" height="12" as="geometry"/>
                </mxCell>
                <mxCell id="KINrCgI-4FL6j2Hm-c1F-38" style="vsdxID=1434;fillColor=#FFFFFF;gradientColor=none;shape=stencil(vVHLDsIgEPwajiQI6RfU+h8bu22JCGRB2/69kG1iazx58DazM/vIjjBtmiCi0CplCjecbZ8nYc5Ca+snJJsLEqYTph0C4Ujh4XvmEaqzont41gkL96naodXKrGF6YSfQtUi0OXXDVlqPfJNP6usotUhYbJIUMmQb/GGrAxpRljVycDBuc1hKM2LclX8/7H9nFfB+82Cd45T2+mcspcSRmu4F);strokeColor=none;spacingTop=-3;spacingBottom=-3;spacingLeft=-3;spacingRight=-3;labelBackgroundColor=none;rounded=0;html=1;whiteSpace=wrap;" parent="KINrCgI-4FL6j2Hm-c1F-34" vertex="1">
                    <mxGeometry x="12" y="16" width="9" height="9" as="geometry"/>
                </mxCell>
                <mxCell id="KINrCgI-4FL6j2Hm-c1F-39" value="&lt;font style=&quot;color: rgb(60 , 60 , 65) ; direction: ltr ; letter-spacing: 0px ; line-height: 120% ; opacity: 1&quot;&gt;&lt;font face=&quot;segoe ui&quot;&gt;&lt;span style=&quot;font-size: 14px&quot;&gt;Automation Account&lt;/span&gt;&lt;/font&gt;&lt;br&gt;&lt;/font&gt;" style="text;vsdxID=1620;fillColor=none;gradientColor=none;strokeColor=none;spacingTop=-3;spacingBottom=-3;spacingLeft=-3;spacingRight=-3;labelBackgroundColor=none;rounded=0;html=1;whiteSpace=wrap;verticalAlign=middle;align=center;;html=1;" parent="KINrCgI-4FL6j2Hm-c1F-3" vertex="1">
                    <mxGeometry x="209.86999999999998" y="357.14000000000004" width="99" height="22.91" as="geometry"/>
                </mxCell>
                <mxCell id="KINrCgI-4FL6j2Hm-c1F-40" style="vsdxID=1711;edgeStyle=none;startArrow=none;endArrow=block;startSize=5;endSize=5;strokeWidth=2;strokeColor=#0078d4;spacingTop=0;spacingBottom=0;spacingLeft=0;spacingRight=0;verticalAlign=middle;html=1;labelBackgroundColor=#ffffff;rounded=0;" parent="KINrCgI-4FL6j2Hm-c1F-1" edge="1">
                    <mxGeometry relative="1" as="geometry">
                        <Array as="points"/>
                        <mxPoint x="302" y="271" as="sourcePoint"/>
                        <mxPoint x="369" y="271" as="targetPoint"/>
                    </mxGeometry>
                </mxCell>
                <mxCell id="KINrCgI-4FL6j2Hm-c1F-41" style="vsdxID=1420;fillColor=none;gradientColor=none;shape=stencil(nZBLDoAgDERP0z3SIyjew0SURgSD+Lu9kMZoXLhwN9O+tukAlrNpJg1SzDH4QW/URgNYgZTkjA4UkwJUgGXng+6DX1zLfmoymdXo17xh5zmRJ6Q42BWCfc2oJfdAr+Yv+AP9Cb7OJ3H/2JG1HNGz/84klThPVCc=);dashed=1;dashPattern=1.00 2.00;strokeColor=#3c3c41;strokeWidth=2;labelBackgroundColor=none;rounded=0;html=1;whiteSpace=wrap;" parent="KINrCgI-4FL6j2Hm-c1F-1" vertex="1">
                    <mxGeometry x="47" y="366" width="254" height="152" as="geometry"/>
                </mxCell>
                <mxCell id="KINrCgI-4FL6j2Hm-c1F-42" value="&lt;font style=&quot;font-size:19px;font-family:Segoe UI Semibold;color:#000000;direction:ltr;letter-spacing:0px;line-height:120%;opacity:1&quot;&gt;On-premises&lt;br/&gt;&lt;/font&gt;" style="text;vsdxID=1420;fillColor=none;gradientColor=none;dashed=1;dashPattern=1.00 2.00;strokeColor=none;strokeWidth=2;labelBackgroundColor=none;rounded=0;html=1;whiteSpace=wrap;verticalAlign=middle;align=center;;html=1;" parent="KINrCgI-4FL6j2Hm-c1F-41" vertex="1">
                    <mxGeometry y="-32.15" width="252.18" height="30.48" as="geometry"/>
                </mxCell>
                <mxCell id="KINrCgI-4FL6j2Hm-c1F-43" style="vsdxID=1671;fillColor=none;gradientColor=none;strokeColor=none;spacingTop=-3;spacingBottom=-3;spacingLeft=-3;spacingRight=-3;labelBackgroundColor=none;rounded=0;html=1;whiteSpace=wrap;" parent="KINrCgI-4FL6j2Hm-c1F-41" vertex="1">
                    <mxGeometry x="107.5" y="19" width="42.18" height="60" as="geometry"/>
                </mxCell>
                <mxCell id="KINrCgI-4FL6j2Hm-c1F-44" style="vsdxID=1672;fillColor=none;gradientColor=none;strokeColor=none;spacingTop=-3;spacingBottom=-3;spacingLeft=-3;spacingRight=-3;labelBackgroundColor=none;rounded=0;html=1;whiteSpace=wrap;" parent="KINrCgI-4FL6j2Hm-c1F-43" vertex="1">
                    <mxGeometry width="42.18" height="60" as="geometry"/>
                </mxCell>
                <mxCell id="KINrCgI-4FL6j2Hm-c1F-45" style="vsdxID=1673;fillColor=#949494;gradientColor=none;shape=stencil(lZPdcoMgEIWfhtsd2BUr12nyHpnEVCZWM8T8vX21oLLEpu0dHM+ynwdW0OpcbU+lQHnuXHssb3bfVYLeBaJtqtLZrl8JWgtaHVpXfrj20uz9/rQdnMPqs70OJ9x9nZJyqEH58HuTg8ZvZePtu4vzfpUWBMEUkPkKeccgvQGp4BolA0UWXBSkDKQJLuKHh961bSJUDUYx1sSdkiLkhqNO7COoTCCjXyHuoB/i4Yg8S4KseAWYBKlAFxwPJ5yRUILKOaCGXHPGl6FEdk4x9oxS5iHNDSfDUkMeSHzHf6CLH84y3vz88Ck1Si20fA8c8dcJ+Ke9X8zDdrB17Wc1/p4OZy/5wab1Fw==);strokeColor=none;strokeWidth=17;spacingTop=-3;spacingBottom=-3;spacingLeft=-3;spacingRight=-3;labelBackgroundColor=none;rounded=0;html=1;whiteSpace=wrap;" parent="KINrCgI-4FL6j2Hm-c1F-44" vertex="1">
                    <mxGeometry width="28" height="48" as="geometry"/>
                </mxCell>
                <mxCell id="KINrCgI-4FL6j2Hm-c1F-46" style="vsdxID=1674;fillColor=#003067;gradientColor=none;shape=stencil(jZTRcoMgEEW/htcd3EWQ5zT5j0xiKlOrGWPa5O+rBSustfUN1rPeO3sBQbtbdbyWAuWt79q38tOd+0rQi0B0TVV2rh9WgvaCdpe2K1+79t6c/f56HMlx9d5+jH94+D45dqB8+l0uQeN35eDh073zdJbiYYsESvvSA31Jg1EBCpUMkAJDoaLAFgEiBgXh2jWRy0IBmsQp57lRi5BnqVmZGrUWNKVOEQGRWZUyNaosUPGX8tyR8Y4f7ZlBPvh15UU46YxmfmOWC6PGgGFGLQFqFufUNhktcpDI0gzMinLcwc1MykPkmh+khXLE/K7MRhSdu01Go8O85pMFGc+QUmJbjP+EOCzmq3xxde1fgvg7v/pDyT8btP8C);strokeColor=none;strokeWidth=17;spacingTop=-3;spacingBottom=-3;spacingLeft=-3;spacingRight=-3;labelBackgroundColor=none;rounded=0;html=1;whiteSpace=wrap;" parent="KINrCgI-4FL6j2Hm-c1F-44" vertex="1">
                    <mxGeometry x="4" y="13" width="20" height="6" as="geometry"/>
                </mxCell>
                <mxCell id="KINrCgI-4FL6j2Hm-c1F-47" style="vsdxID=1675;fillColor=#003067;gradientColor=none;shape=stencil(jZTRcoMgEEW/htcd3CUgz2nyH5nGVKZWM8S06d9XC0bY1NQ3WO96z+wFBG0v9eFcCZSX3nfv1Zc79rWgF4Ho2rryrh9WgnaCtqfOV2++u7bHsD8fRuW4+ug+xz/cQp8cO1B+h91Ggsbfyj6IX68+qItcHrdIoHQo3TCUNBgVRbFSAFLUUKwosGUUERNF48a1CWWpAE1GyvUc1CJsihxW5qDWgqacFBEQGaqUOaiyQOUz57mj4B1371mDfPDLzg/h5DOa9SuzfAA1BgwDtQSoWZxT2wQ6hKNVjjppFpzTDg4zOaeRP3G+a/52ZiNKzt0q0OQwL3GyINMZUq5YF+M/IQ6L+SqfXNOElyD9zq/+UArPBu1+AA==);strokeColor=none;strokeWidth=17;spacingTop=-3;spacingBottom=-3;spacingLeft=-3;spacingRight=-3;labelBackgroundColor=none;rounded=0;html=1;whiteSpace=wrap;" parent="KINrCgI-4FL6j2Hm-c1F-44" vertex="1">
                    <mxGeometry x="4" y="4" width="20" height="6" as="geometry"/>
                </mxCell>
                <mxCell id="KINrCgI-4FL6j2Hm-c1F-48" style="vsdxID=1676;fillColor=#50e6ff;gradientColor=none;shape=stencil(vVHLDsIgEPwajiQI6RfU+h8bu22JCGRB2/69kG1iazx58DazM/vIjjBtmiCi0CplCjecbZ8nYc5Ca+snJJsLEqYTph0C4Ujh4XvmEaqzont41gkL96naodXKrGF6YSfQtUi0OXXDVlqPfJNP6usotUhYbJIUMmQb/GGrAxpRljVycDBuc1hKM2LclX8/7H9nFfB+82Cd45T2+mcspcSRmu4F);strokeColor=none;strokeWidth=17;spacingTop=-3;spacingBottom=-3;spacingLeft=-3;spacingRight=-3;labelBackgroundColor=none;rounded=0;html=1;whiteSpace=wrap;" parent="KINrCgI-4FL6j2Hm-c1F-44" vertex="1">
                    <mxGeometry x="5" y="5" width="4" height="4" as="geometry"/>
                </mxCell>
                <mxCell id="KINrCgI-4FL6j2Hm-c1F-49" style="vsdxID=1677;fillColor=#50e6ff;gradientColor=none;shape=stencil(vVHLDsIgEPwajiQI6RfU+h8bu22JCGRB2/69kG1iazx58DazM/vIjjBtmiCi0CplCjecbZ8nYc5Ca+snJJsLEqYTph0C4Ujh4XvmEaqzont41gkL96naodXKrGF6YSfQtUi0OXXDVlqPfJNP6usotUhYbJIUMmQb/GGrAxpRljVycDBuc1hKM2LclX8/7H9nFfB+82Cd45T2+mcspcSRmu4F);strokeColor=none;strokeWidth=17;spacingTop=-3;spacingBottom=-3;spacingLeft=-3;spacingRight=-3;labelBackgroundColor=none;rounded=0;html=1;whiteSpace=wrap;" parent="KINrCgI-4FL6j2Hm-c1F-44" vertex="1">
                    <mxGeometry x="5" y="14" width="4" height="4" as="geometry"/>
                </mxCell>
                <mxCell id="KINrCgI-4FL6j2Hm-c1F-50" value="" style="aspect=fixed;html=1;points=[];align=center;image;fontSize=12;image=img/lib/azure2/security/Security_Center.svg;rounded=0;sketch=0;strokeColor=#457B9D;fillColor=#A8DADC;" parent="KINrCgI-4FL6j2Hm-c1F-44" vertex="1">
                    <mxGeometry x="15" y="27" width="27.18" height="33" as="geometry"/>
                </mxCell>
                <mxCell id="KINrCgI-4FL6j2Hm-c1F-51" value="&lt;font style=&quot;font-size: 14px ; font-family: &amp;#34;segoe ui&amp;#34; ; color: #000000 ; direction: ltr ; letter-spacing: 0px ; line-height: 120% ; opacity: 1&quot;&gt;Other systems agent&lt;br&gt;installed&lt;br&gt;&lt;/font&gt;" style="verticalAlign=middle;align=center;vsdxID=1879;fillColor=none;gradientColor=none;shape=stencil(nZBLDoAgDERP0z3SIyjew0SURgSD+Lu9kMZoXLhwN9O+tukAlrNpJg1SzDH4QW/URgNYgZTkjA4UkwJUgGXng+6DX1zLfmoymdXo17xh5zmRJ6Q42BWCfc2oJfdAr+Yv+AP9Cb7OJ3H/2JG1HNGz/84klThPVCc=);strokeColor=none;labelBackgroundColor=none;rounded=0;html=1;whiteSpace=wrap;" parent="KINrCgI-4FL6j2Hm-c1F-41" vertex="1">
                    <mxGeometry x="57.5" y="83" width="139" height="54" as="geometry"/>
                </mxCell>
                <mxCell id="KINrCgI-4FL6j2Hm-c1F-52" style="vsdxID=1839;edgeStyle=none;startArrow=none;endArrow=block;startSize=3;endSize=5;strokeWidth=2;strokeColor=#0078d4;spacingTop=0;spacingBottom=0;spacingLeft=0;spacingRight=0;verticalAlign=middle;html=1;labelBackgroundColor=#ffffff;rounded=0;" parent="KINrCgI-4FL6j2Hm-c1F-1" edge="1">
                    <mxGeometry relative="1" as="geometry">
                        <mxPoint x="-1" as="offset"/>
                        <Array as="points"/>
                        <mxPoint x="652" y="277" as="sourcePoint"/>
                        <mxPoint x="699" y="277" as="targetPoint"/>
                    </mxGeometry>
                </mxCell>
                <mxCell id="KINrCgI-4FL6j2Hm-c1F-53" style="vsdxID=1874;fillColor=#ffffff;gradientColor=none;shape=stencil(nZBLDsIwDAVP4y0yzoIDlHIBThARQyxCUqXhe3rSukhVFyy6s98by9KAaXpvOwbCvuR05ae44sHsgUii5yylTmBaMM05Zb7kdI9O985WknBM2OnNdqAJbT4d5cNTRpudxnp3S4/h30tb1Oo9saj7QdEgcYb+ylXwH3QluHhfh9GIupIQVOi8Xxqskdo37Rc=);strokeColor=#0078d4;strokeWidth=2;labelBackgroundColor=none;rounded=1;html=1;whiteSpace=wrap;" parent="KINrCgI-4FL6j2Hm-c1F-1" vertex="1">
                    <mxGeometry x="517" y="222" width="127" height="111" as="geometry"/>
                </mxCell>
                <mxCell id="KINrCgI-4FL6j2Hm-c1F-54" style="vsdxID=1918;fillColor=none;gradientColor=none;dashed=1;dashPattern=1.00 2.00;strokeColor=none;strokeWidth=2;spacingTop=-3;spacingBottom=-3;spacingLeft=-3;spacingRight=-3;labelBackgroundColor=none;rounded=0;html=1;whiteSpace=wrap;" parent="KINrCgI-4FL6j2Hm-c1F-1" vertex="1">
                    <mxGeometry x="42" y="126" width="254" height="180" as="geometry"/>
                </mxCell>
                <mxCell id="KINrCgI-4FL6j2Hm-c1F-55" style="vsdxID=1919;fillColor=#ffffff;gradientColor=none;shape=stencil(vZTNcsIgEMefJsfsAJsAOVt9D0ZRmaaJQ2K1b19SMLrYTk/mRvaD/WX57xa4Go7mZAvBhtH37/biduOxwLdCCNcdrXdjOBW4LnC17709+P7c7eL3yUyR0+mj/5xuuMY8ztiUI9hX/JYapP6xbGK48dvg9SlcCKhkTPApAznIJppSkGZQk0tRg+AppDRXN5S+H83o+i76E0Jr/MGWoWC5b82BuIaLtacn8++IGpBniA00NUGsOWBFGNlifA2wmvJVDBraQoFQa8InJKjleihB5z1UoJEwZsJB4PVifGoWlL9rDLMeauCKMM5ifwXh9uzjYPHbO6faPC8uZiHo25wkUxOEmmR5xfRfDORNqThHpcRUunXdw0grCYJq+ymBdrMClc100JogvVQKqqc75WLPLUBV2XMLYJog/r3JXkJIe/7vGg2H+wreu7aNG/zRn6/sYIrrHtff);dashed=1;dashPattern=1.00 2.00;strokeColor=#75757a;strokeWidth=2;spacingTop=-3;spacingBottom=-3;spacingLeft=-3;spacingRight=-3;labelBackgroundColor=none;rounded=0;html=1;whiteSpace=wrap;" parent="KINrCgI-4FL6j2Hm-c1F-54" vertex="1">
                    <mxGeometry width="254" height="180" as="geometry"/>
                </mxCell>
                <mxCell id="KINrCgI-4FL6j2Hm-c1F-56" style="vsdxID=1595;fillColor=none;gradientColor=none;shape=stencil(nZBLDoAgDERP0z3SIyjew0SURgSD+Lu9kMZoXLhwN9O+tukAlrNpJg1SzDH4QW/URgNYgZTkjA4UkwJUgGXng+6DX1zLfmoymdXo17xh5zmRJ6Q42BWCfc2oJfdAr+Yv+AP9Cb7OJ3H/2JG1HNGz/84klThPVCc=);strokeColor=none;labelBackgroundColor=none;rounded=0;html=1;whiteSpace=wrap;" parent="KINrCgI-4FL6j2Hm-c1F-1" vertex="1">
                    <mxGeometry x="47" y="119" width="228" height="56" as="geometry"/>
                </mxCell>
                <mxCell id="KINrCgI-4FL6j2Hm-c1F-57" value="&lt;font style=&quot;font-size: 19px ; font-family: &amp;#34;segoe ui semibold&amp;#34; ; color: #000000 ; direction: ltr ; letter-spacing: 0px ; line-height: 120% ; opacity: 1&quot;&gt;AWS, GCPother cloud providers, and SaaS apps &lt;br&gt;&lt;/font&gt;" style="text;vsdxID=1595;fillColor=none;gradientColor=none;strokeColor=none;labelBackgroundColor=none;rounded=0;html=1;whiteSpace=wrap;verticalAlign=middle;align=center;;html=1;" parent="KINrCgI-4FL6j2Hm-c1F-56" vertex="1">
                    <mxGeometry y="-46.69" width="254" height="52.35" as="geometry"/>
                </mxCell>
                <mxCell id="KINrCgI-4FL6j2Hm-c1F-58" style="vsdxID=1620;fillColor=none;gradientColor=none;strokeColor=none;spacingTop=-3;spacingBottom=-3;spacingLeft=-3;spacingRight=-3;labelBackgroundColor=none;rounded=0;html=1;whiteSpace=wrap;" parent="KINrCgI-4FL6j2Hm-c1F-1" vertex="1">
                    <mxGeometry x="704" y="242" width="75" height="71" as="geometry"/>
                </mxCell>
                <mxCell id="KINrCgI-4FL6j2Hm-c1F-59" style="vsdxID=1621;fillColor=#1988d9;gradientColor=none;shape=stencil(pVPbDoIwDP2aPUIGAyPPiP+x6IDFyUg3Bf/ekcXIGBGnb72c0562KSKlamnPUIqVBnlhAz/rFpEDSlPetQy4NhYiFSJlLYE1IG/d2fo9nZCTdZX3qcJoeTmJ9/nESvFjGTlaguDdjJBg/A/85a+CfTGBcE+MO+wuzpLvy2e7OAlQ48M3VhO0RxdckDgv5mAKJ5MFb054LCNbq8BjREeuIpCaai47p72g0LDINItqQRsnpQbGei+8OsvWGdyjuZObLef7kCMEEz4Ix78BPQnGeP9jzYWw7zzPL//XhOzvk+oJ);strokeColor=none;spacingTop=-3;spacingBottom=-3;spacingLeft=-3;spacingRight=-3;labelBackgroundColor=none;rounded=0;html=1;whiteSpace=wrap;" parent="KINrCgI-4FL6j2Hm-c1F-58" vertex="1">
                    <mxGeometry y="31" width="41" height="39" as="geometry"/>
                </mxCell>
                <mxCell id="KINrCgI-4FL6j2Hm-c1F-60" style="vsdxID=1622;fillColor=#198ab3;gradientColor=none;shape=stencil(vVLLDoIwEPyaHktKKzGcEf+jkQKNlZKlCvy9bZYgEGNMfNx2Z2cfsxkisq6WrSKcdQ7sWfW6cDURB8K5bmoF2vmIiJyIrLSgKrDXpsC8lYEZoou9hQkD9iUstHA2YorZEZkSTr4CE3OXRglyYZwRniI0cWK2HpewiMcTg8pBdxSsk07bZrmOGQmVon4dLY2sVqWuV6pdwPFnB27kzvf+4jqjm8Wjny9+g+pF7NOvqv6b5lfm8sHDk6U2Bi29rG897CH0v8jv);strokeColor=none;spacingTop=-3;spacingBottom=-3;spacingLeft=-3;spacingRight=-3;labelBackgroundColor=none;rounded=0;html=1;whiteSpace=wrap;" parent="KINrCgI-4FL6j2Hm-c1F-58" vertex="1">
                    <mxGeometry x="22" width="53" height="50" as="geometry"/>
                </mxCell>
                <mxCell id="KINrCgI-4FL6j2Hm-c1F-61" style="vsdxID=1623;fillColor=#FFFFFF;gradientColor=none;shape=stencil(nZBLDoAgDERP0z3SIyjew0SURgSD+Lu9kMZoXLhwN9O+tukAlrNpJg1SzDH4QW/URgNYgZTkjA4UkwJUgGXng+6DX1zLfmoymdXo17xh5zmRJ6Q42BWCfc2oJfdAr+Yv+AP9Cb7OJ3H/2JG1HNGz/84klThPVCc=);strokeColor=none;spacingTop=-3;spacingBottom=-3;spacingLeft=-3;spacingRight=-3;labelBackgroundColor=none;rounded=0;html=1;whiteSpace=wrap;" parent="KINrCgI-4FL6j2Hm-c1F-58" vertex="1">
                    <mxGeometry x="31" y="21" width="6" height="17" as="geometry"/>
                </mxCell>
                <mxCell id="KINrCgI-4FL6j2Hm-c1F-62" style="vsdxID=1624;fillColor=#FFFFFF;gradientColor=none;shape=stencil(nZBLDoAgDERP0z3SIyjew0SURgSD+Lu9kMZoXLhwN9O+tukAlrNpJg1SzDH4QW/URgNYgZTkjA4UkwJUgGXng+6DX1zLfmoymdXo17xh5zmRJ6Q42BWCfc2oJfdAr+Yv+AP9Cb7OJ3H/2JG1HNGz/84klThPVCc=);strokeColor=none;spacingTop=-3;spacingBottom=-3;spacingLeft=-3;spacingRight=-3;labelBackgroundColor=none;rounded=0;html=1;whiteSpace=wrap;" parent="KINrCgI-4FL6j2Hm-c1F-58" vertex="1">
                    <mxGeometry x="43" y="27" width="6" height="11" as="geometry"/>
                </mxCell>
                <mxCell id="KINrCgI-4FL6j2Hm-c1F-63" style="vsdxID=1625;fillColor=#FFFFFF;gradientColor=none;shape=stencil(nZBLDoAgDERP0z3SIyjew0SURgSD+Lu9kMZoXLhwN9O+tukAlrNpJg1SzDH4QW/URgNYgZTkjA4UkwJUgGXng+6DX1zLfmoymdXo17xh5zmRJ6Q42BWCfc2oJfdAr+Yv+AP9Cb7OJ3H/2JG1HNGz/84klThPVCc=);strokeColor=none;spacingTop=-3;spacingBottom=-3;spacingLeft=-3;spacingRight=-3;labelBackgroundColor=none;rounded=0;html=1;whiteSpace=wrap;" parent="KINrCgI-4FL6j2Hm-c1F-58" vertex="1">
                    <mxGeometry x="55" y="15" width="6" height="22" as="geometry"/>
                </mxCell>
                <mxCell id="KINrCgI-4FL6j2Hm-c1F-64" value="&lt;font style=&quot;font-size: 14px ; font-family: &amp;#34;segoe ui&amp;#34; ; color: #3c3c41 ; direction: ltr ; letter-spacing: 0px ; line-height: 120% ; opacity: 1&quot;&gt;&lt;b&gt;Log Analytics&lt;br&gt;workspace&lt;/b&gt;&lt;/font&gt;&lt;font style=&quot;font-size: 16px ; font-family: &amp;#34;themed&amp;#34; ; color: #3c3c41 ; direction: ltr ; letter-spacing: 0px ; line-height: 120% ; opacity: 1&quot;&gt;&lt;br&gt;&lt;/font&gt;" style="text;vsdxID=1620;fillColor=none;gradientColor=none;strokeColor=none;spacingTop=-3;spacingBottom=-3;spacingLeft=-3;spacingRight=-3;labelBackgroundColor=none;rounded=0;html=1;whiteSpace=wrap;verticalAlign=middle;align=center;;html=1;" parent="KINrCgI-4FL6j2Hm-c1F-58" vertex="1">
                    <mxGeometry x="-9.97" y="91.29" width="88.68" height="22.91" as="geometry"/>
                </mxCell>
                <mxCell id="KINrCgI-4FL6j2Hm-c1F-65" style="vsdxID=1894;fillColor=none;gradientColor=none;strokeColor=none;spacingTop=-3;spacingBottom=-3;spacingLeft=-3;spacingRight=-3;labelBackgroundColor=none;rounded=0;html=1;whiteSpace=wrap;" parent="KINrCgI-4FL6j2Hm-c1F-1" vertex="1">
                    <mxGeometry x="186" y="205" width="63.18" height="49" as="geometry"/>
                </mxCell>
                <mxCell id="KINrCgI-4FL6j2Hm-c1F-66" style="vsdxID=1895;fillColor=#0078d4;gradientColor=none;shape=stencil(vVNLDsIgED0NSwxCrOm61nsQS1siQjOgrbeXCtH+4sIm3c3Me8P8eIhltuaNQJRYB+YqWlm4GrETolTqWoB03kIsRywrDYgKzF0XwW94z+ytm3n0L3Qhj/QZlDyDlx7e7jkwOVw8BJHJdowFMkR2IJMZHuE9iY93mHfSYjCOO2n0qLDiUAnsK+FS8WoE2VaIZhaOvSmpB1OkyS45Lhb/a5RP5+O1bDDItPKKe8x3stk5Zl9hxS2W9rHBCL904Y2vnEqpVFDjEJ/Kz4eCdFn+Ag==);strokeColor=none;spacingTop=-3;spacingBottom=-3;spacingLeft=-3;spacingRight=-3;labelBackgroundColor=none;rounded=0;html=1;whiteSpace=wrap;" parent="KINrCgI-4FL6j2Hm-c1F-65" vertex="1">
                    <mxGeometry width="49" height="32" as="geometry"/>
                </mxCell>
                <mxCell id="KINrCgI-4FL6j2Hm-c1F-67" style="vsdxID=1896;fillColor=#50e6ff;gradientColor=none;shape=stencil(lZHBCsIwEES/Zq8lZqR4r/U/Ck3NYkxKGq3+vQmLaAWl3mY2b5ZlQmgm242GtJpSDCczc58sYU9as7cmcsqK0BKaIURzjOHie/FjV8iizuFaNtwkt1GqZLS6ixd3ENSx/4HWdbXdfceX8DO8AgUqYP0Zf1y8QLN4lTKwc9Lp+/tniXkkH4D2AQ==);strokeColor=none;spacingTop=-3;spacingBottom=-3;spacingLeft=-3;spacingRight=-3;labelBackgroundColor=none;rounded=0;html=1;whiteSpace=wrap;" parent="KINrCgI-4FL6j2Hm-c1F-65" vertex="1">
                    <mxGeometry x="24" y="11" width="8" height="14" as="geometry"/>
                </mxCell>
                <mxCell id="KINrCgI-4FL6j2Hm-c1F-68" style="vsdxID=1897;fillColor=#c3f1ff;gradientColor=none;shape=stencil(UzV2Ls5ILEhVNTIoLinKz04tz0wpyVA1dlE1MsrMy0gtyiwBslSNXVWNndPyi1LTi/JL81Ig/IJEkEoQKze/DGRCBUSfoYEBSI+RQSWEb2KpZ2EGFnGDKM/JzENSboqqGqYbq1pKDMZjLIkuJqgcyEAETlpmTg4kbJHl0QMTKASJCGNXAA==);strokeColor=none;spacingTop=-3;spacingBottom=-3;spacingLeft=-3;spacingRight=-3;labelBackgroundColor=none;rounded=0;html=1;whiteSpace=wrap;" parent="KINrCgI-4FL6j2Hm-c1F-65" vertex="1">
                    <mxGeometry x="16" y="6" width="16" height="9" as="geometry"/>
                </mxCell>
                <mxCell id="KINrCgI-4FL6j2Hm-c1F-69" style="vsdxID=1898;fillColor=#9cebff;gradientColor=none;shape=stencil(UzV2Ls5ILEhVNTIoLinKz04tz0wpyVA1dlE1MsrMy0gtyiwBslSNXVWNndPyi1LTi/JL81Ig/IJEkEoQKze/DGRCBUSfoYEBSI+RQSWEb2ysZ2oEFnGDKM/JzMOjHMbHqhhVqZmZnokFsYrxmEqhizGUAxmIwEnLzMmBhC2yPHpgAoUgEWHsCgA=);strokeColor=none;spacingTop=-3;spacingBottom=-3;spacingLeft=-3;spacingRight=-3;labelBackgroundColor=none;rounded=0;html=1;whiteSpace=wrap;" parent="KINrCgI-4FL6j2Hm-c1F-65" vertex="1">
                    <mxGeometry x="16" y="11" width="8" height="14" as="geometry"/>
                </mxCell>
                <mxCell id="KINrCgI-4FL6j2Hm-c1F-70" style="vsdxID=1899;fillColor=#c3f1ff;gradientColor=none;shape=stencil(UzV2Ls5ILEhVNTIoLinKz04tz0wpyVA1dlE1MsrMy0gtyiwBslSNXVWNndPyi1LTi/JL81Ig/IJEkEoQKze/DGRCBUSfAUiHkUElhGdiqWduCBZxgyjOycxDUmxogKrcgHilMD5WxSQ5goBiIAPh17TMnBxIUCHLo4cNUAgSrsauAA==);strokeColor=none;spacingTop=-3;spacingBottom=-3;spacingLeft=-3;spacingRight=-3;labelBackgroundColor=none;rounded=0;html=1;whiteSpace=wrap;" parent="KINrCgI-4FL6j2Hm-c1F-65" vertex="1">
                    <mxGeometry x="16" y="16" width="8" height="9" as="geometry"/>
                </mxCell>
                <mxCell id="KINrCgI-4FL6j2Hm-c1F-71" style="vsdxID=1900;fillColor=#9cebff;gradientColor=none;shape=stencil(UzV2Ls5ILEhVNTIoLinKz04tz0wpyVA1dlE1MsrMy0gtyiwBslSNXVWNndPyi1LTi/JL81Ig/IJEkEoQKze/DGRCBUSfoYEBSI+RQSWEb2KpZ24IFnGDKM/JzENSjqrYgFiFMFuwKiXRCQSVAxkI36Zl5uRAAgtZHj10gEKQkDV2BQA=);strokeColor=none;spacingTop=-3;spacingBottom=-3;spacingLeft=-3;spacingRight=-3;labelBackgroundColor=none;rounded=0;html=1;whiteSpace=wrap;" parent="KINrCgI-4FL6j2Hm-c1F-65" vertex="1">
                    <mxGeometry x="24" y="16" width="8" height="9" as="geometry"/>
                </mxCell>
                <mxCell id="KINrCgI-4FL6j2Hm-c1F-72" style="vsdxID=1901;fillColor=#0078d4;gradientColor=none;shape=stencil(vVPBbsMgDP0ajkGA06Q5d+1/oJYkaCxEhK7s70eG25Gk2qQddjPPz7xnyyZwmHo5KiLY5J19VTd98T2BFyKEHnrltI8RgSOBQ2ud6py9Dpf0HuXMnKM3+z7/EFJdwyjnc5VgHwmp97T8Ak6Jf766VMAxzygAVtwhQWGXoCASVDV0VyELobKkNUoF2LIQYrm20UPmFTLlJ+S1UdgazS2gK9HQql4azdtBVw3dN0uf6zFJd45Zh1Y5f4zVoVfBKbYacvP3VjjDdyhk0FPhrJde22HBNdJ1qohSRWtkt0hNN6XGDfx0jg+plfSfO/lhif6hnd9XOAbf+99qY9L55Pn1vUQo3RocPwE=);strokeColor=none;spacingTop=-3;spacingBottom=-3;spacingLeft=-3;spacingRight=-3;labelBackgroundColor=none;rounded=0;html=1;whiteSpace=wrap;" parent="KINrCgI-4FL6j2Hm-c1F-65" vertex="1">
                    <mxGeometry x="12" y="32" width="24" height="12" as="geometry"/>
                </mxCell>
                <mxCell id="KINrCgI-4FL6j2Hm-c1F-73" value="" style="aspect=fixed;html=1;points=[];align=center;image;fontSize=12;image=img/lib/azure2/security/Security_Center.svg;rounded=0;sketch=0;strokeColor=#457B9D;fillColor=#A8DADC;" parent="KINrCgI-4FL6j2Hm-c1F-65" vertex="1">
                    <mxGeometry x="36" y="16" width="27.18" height="33" as="geometry"/>
                </mxCell>
                <mxCell id="KINrCgI-4FL6j2Hm-c1F-74" style="vsdxID=1902;fillColor=none;gradientColor=none;strokeColor=none;spacingTop=-3;spacingBottom=-3;spacingLeft=-3;spacingRight=-3;labelBackgroundColor=none;rounded=0;html=1;whiteSpace=wrap;" parent="KINrCgI-4FL6j2Hm-c1F-1" vertex="1">
                    <mxGeometry x="92" y="205" width="63.18" height="49" as="geometry"/>
                </mxCell>
                <mxCell id="KINrCgI-4FL6j2Hm-c1F-75" style="vsdxID=1903;fillColor=#0078d4;gradientColor=none;shape=stencil(vVNLDsIgED0NSwxCrOm61nsQS1siQjOgrbeXCtH+4sIm3c3Me8P8eIhltuaNQJRYB+YqWlm4GrETolTqWoB03kIsRywrDYgKzF0XwW94z+ytm3n0L3Qhj/QZlDyDlx7e7jkwOVw8BJHJdowFMkR2IJMZHuE9iY93mHfSYjCOO2n0qLDiUAnsK+FS8WoE2VaIZhaOvSmpB1OkyS45Lhb/a5RP5+O1bDDItPKKe8x3stk5Zl9hxS2W9rHBCL904Y2vnEqpVFDjEJ/Kz4eCdFn+Ag==);strokeColor=none;spacingTop=-3;spacingBottom=-3;spacingLeft=-3;spacingRight=-3;labelBackgroundColor=none;rounded=0;html=1;whiteSpace=wrap;" parent="KINrCgI-4FL6j2Hm-c1F-74" vertex="1">
                    <mxGeometry width="49" height="32" as="geometry"/>
                </mxCell>
                <mxCell id="KINrCgI-4FL6j2Hm-c1F-76" style="vsdxID=1904;fillColor=#50e6ff;gradientColor=none;shape=stencil(lZHBCsIwEES/Zq8lZqR4r/U/Ck3NYkxKGq3+vQmLaAWl3mY2b5ZlQmgm242GtJpSDCczc58sYU9as7cmcsqK0BKaIURzjOHie/FjV8iizuFaNtwkt1GqZLS6ixd3ENSx/4HWdbXdfceX8DO8AgUqYP0Zf1y8QLN4lTKwc9Lp+/tniXkkH4D2AQ==);strokeColor=none;spacingTop=-3;spacingBottom=-3;spacingLeft=-3;spacingRight=-3;labelBackgroundColor=none;rounded=0;html=1;whiteSpace=wrap;" parent="KINrCgI-4FL6j2Hm-c1F-74" vertex="1">
                    <mxGeometry x="24" y="11" width="8" height="14" as="geometry"/>
                </mxCell>
                <mxCell id="KINrCgI-4FL6j2Hm-c1F-77" style="vsdxID=1905;fillColor=#c3f1ff;gradientColor=none;shape=stencil(UzV2Ls5ILEhVNTIoLinKz04tz0wpyVA1dlE1MsrMy0gtyiwBslSNXVWNndPyi1LTi/JL81Ig/IJEkEoQKze/DGRCBUSfoYEBSI+RQSWEb2KpZ2EGFnGDKM/JzENSboqqGqYbq1pKDMZjLIkuJqgcyEAETlpmTg4kbJHl0QMTKASJCGNXAA==);strokeColor=none;spacingTop=-3;spacingBottom=-3;spacingLeft=-3;spacingRight=-3;labelBackgroundColor=none;rounded=0;html=1;whiteSpace=wrap;" parent="KINrCgI-4FL6j2Hm-c1F-74" vertex="1">
                    <mxGeometry x="16" y="6" width="16" height="9" as="geometry"/>
                </mxCell>
                <mxCell id="KINrCgI-4FL6j2Hm-c1F-78" style="vsdxID=1906;fillColor=#9cebff;gradientColor=none;shape=stencil(UzV2Ls5ILEhVNTIoLinKz04tz0wpyVA1dlE1MsrMy0gtyiwBslSNXVWNndPyi1LTi/JL81Ig/IJEkEoQKze/DGRCBUSfoYEBSI+RQSWEb2ysZ2oEFnGDKM/JzMOjHMbHqhhVqZmZnokFsYrxmEqhizGUAxmIwEnLzMmBhC2yPHpgAoUgEWHsCgA=);strokeColor=none;spacingTop=-3;spacingBottom=-3;spacingLeft=-3;spacingRight=-3;labelBackgroundColor=none;rounded=0;html=1;whiteSpace=wrap;" parent="KINrCgI-4FL6j2Hm-c1F-74" vertex="1">
                    <mxGeometry x="16" y="11" width="8" height="14" as="geometry"/>
                </mxCell>
                <mxCell id="KINrCgI-4FL6j2Hm-c1F-79" style="vsdxID=1907;fillColor=#c3f1ff;gradientColor=none;shape=stencil(UzV2Ls5ILEhVNTIoLinKz04tz0wpyVA1dlE1MsrMy0gtyiwBslSNXVWNndPyi1LTi/JL81Ig/IJEkEoQKze/DGRCBUSfAUiHkUElhGdiqWduCBZxgyjOycxDUmxogKrcgHilMD5WxSQ5goBiIAPh17TMnBxIUCHLo4cNUAgSrsauAA==);strokeColor=none;spacingTop=-3;spacingBottom=-3;spacingLeft=-3;spacingRight=-3;labelBackgroundColor=none;rounded=0;html=1;whiteSpace=wrap;" parent="KINrCgI-4FL6j2Hm-c1F-74" vertex="1">
                    <mxGeometry x="16" y="16" width="8" height="9" as="geometry"/>
                </mxCell>
                <mxCell id="KINrCgI-4FL6j2Hm-c1F-80" style="vsdxID=1908;fillColor=#9cebff;gradientColor=none;shape=stencil(UzV2Ls5ILEhVNTIoLinKz04tz0wpyVA1dlE1MsrMy0gtyiwBslSNXVWNndPyi1LTi/JL81Ig/IJEkEoQKze/DGRCBUSfoYEBSI+RQSWEb2KpZ24IFnGDKM/JzENSjqrYgFiFMFuwKiXRCQSVAxkI36Zl5uRAAgtZHj10gEKQkDV2BQA=);strokeColor=none;spacingTop=-3;spacingBottom=-3;spacingLeft=-3;spacingRight=-3;labelBackgroundColor=none;rounded=0;html=1;whiteSpace=wrap;" parent="KINrCgI-4FL6j2Hm-c1F-74" vertex="1">
                    <mxGeometry x="24" y="16" width="8" height="9" as="geometry"/>
                </mxCell>
                <mxCell id="KINrCgI-4FL6j2Hm-c1F-81" style="vsdxID=1909;fillColor=#0078d4;gradientColor=none;shape=stencil(rVNdc4MgEPw1PMoA5xfPafo/mASVqRUHTUP+fbBgCmqnL32Dvb3bXfQQnKZOjBIxMs1Gf8i7us4dgjfEmBo6adTsTgjOCE6NNrI1+jZc/X0UC3M5feqvZYL1fZxgSpcuRh4eqWqcfwPvnn+5Gd9AQ51ggNCxQgxD4SHLPFRyXJSBFaA8x1WQsrBnBYjE2r0aIq8QKR+Qt0ZhbzS2EFwxjssqNRrHCa44rnnqc/tMwlxc1djXiDWYCV5pTjFZx8b21zCUhLvNhFVTZvQsZqWHhNsL08rMiWVNL9qkNN2lHHfw4Uu+pDbSh1lo4b5SmgUo2WZhFNcsGcorDPRfE9HfE/39H7vDzxI0qu/9DsX17dI4yC8cnJ8=);strokeColor=none;spacingTop=-3;spacingBottom=-3;spacingLeft=-3;spacingRight=-3;labelBackgroundColor=none;rounded=0;html=1;whiteSpace=wrap;" parent="KINrCgI-4FL6j2Hm-c1F-74" vertex="1">
                    <mxGeometry x="12" y="32" width="24" height="12" as="geometry"/>
                </mxCell>
                <mxCell id="KINrCgI-4FL6j2Hm-c1F-82" value="" style="aspect=fixed;html=1;points=[];align=center;image;fontSize=12;image=img/lib/azure2/security/Security_Center.svg;rounded=0;sketch=0;strokeColor=#457B9D;fillColor=#A8DADC;" parent="KINrCgI-4FL6j2Hm-c1F-74" vertex="1">
                    <mxGeometry x="36" y="16" width="27.18" height="33" as="geometry"/>
                </mxCell>
                <mxCell id="KINrCgI-4FL6j2Hm-c1F-83" style="vsdxID=1715;edgeStyle=none;startArrow=none;endArrow=block;startSize=5;endSize=5;strokeWidth=2;strokeColor=#0078d4;spacingTop=0;spacingBottom=0;spacingLeft=0;spacingRight=0;verticalAlign=middle;html=1;labelBackgroundColor=#ffffff;rounded=0;" parent="KINrCgI-4FL6j2Hm-c1F-1" edge="1">
                    <mxGeometry relative="1" as="geometry">
                        <mxPoint x="21" as="offset"/>
                        <Array as="points"/>
                        <mxPoint x="416" y="277" as="sourcePoint"/>
                        <mxPoint x="513" y="277" as="targetPoint"/>
                    </mxGeometry>
                </mxCell>
                <mxCell id="KINrCgI-4FL6j2Hm-c1F-84" value="&lt;font style=&quot;font-size: 14px ; font-family: &amp;#34;segoe ui&amp;#34; ; color: #000000 ; direction: ltr ; letter-spacing: 0px ; line-height: 120% ; opacity: 1&quot;&gt;VMs with agent installed&lt;br&gt;&lt;/font&gt;" style="verticalAlign=middle;align=center;vsdxID=1700;fillColor=none;gradientColor=none;shape=stencil(nZBLDoAgDERP0z3SIyjew0SURgSD+Lu9kMZoXLhwN9O+tukAlrNpJg1SzDH4QW/URgNYgZTkjA4UkwJUgGXng+6DX1zLfmoymdXo17xh5zmRJ6Q42BWCfc2oJfdAr+Yv+AP9Cb7OJ3H/2JG1HNGz/84klThPVCc=);strokeColor=none;labelBackgroundColor=none;rounded=0;html=1;whiteSpace=wrap;" parent="KINrCgI-4FL6j2Hm-c1F-1" vertex="1">
                    <mxGeometry x="72" y="258" width="203" height="38" as="geometry"/>
                </mxCell>
                <mxCell id="KINrCgI-4FL6j2Hm-c1F-85" value="&lt;p style=&quot;align:left;margin-left:0;margin-right:0;margin-top:0px;margin-bottom:0px;text-indent:0;valign:middle;direction:ltr;&quot;&gt;&lt;font style=&quot;font-size:11px;font-family:Segoe UI;color:#00599f;direction:ltr;letter-spacing:0px;line-height:120%;opacity:1&quot;&gt;HTTPS: used&lt;br/&gt;by agents&lt;br/&gt;&lt;/font&gt;&lt;/p&gt;" style="verticalAlign=middle;align=left;vsdxID=1841;fillColor=none;gradientColor=none;shape=stencil(nZBLDoAgDERP0z3SIyjew0SURgSD+Lu9kMZoXLhwN9O+tukAlrNpJg1SzDH4QW/URgNYgZTkjA4UkwJUgGXng+6DX1zLfmoymdXo17xh5zmRJ6Q42BWCfc2oJfdAr+Yv+AP9Cb7OJ3H/2JG1HNGz/84klThPVCc=);strokeColor=none;labelBackgroundColor=none;rounded=0;html=1;whiteSpace=wrap;" parent="KINrCgI-4FL6j2Hm-c1F-1" vertex="1">
                    <mxGeometry x="324" y="404" width="101" height="45" as="geometry"/>
                </mxCell>
                <mxCell id="KINrCgI-4FL6j2Hm-c1F-86" value="&lt;p style=&quot;align:left;margin-left:0;margin-right:0;margin-top:0px;margin-bottom:0px;text-indent:0;valign:middle;direction:ltr;&quot;&gt;&lt;font style=&quot;font-size:11px;font-family:Segoe UI;color:#00599f;direction:ltr;letter-spacing:0px;line-height:120%;opacity:1&quot;&gt;HTTPS: used&lt;br/&gt;by agents&lt;br/&gt;&lt;/font&gt;&lt;/p&gt;" style="verticalAlign=middle;align=left;vsdxID=1843;fillColor=none;gradientColor=none;shape=stencil(nZBLDoAgDERP0z3SIyjew0SURgSD+Lu9kMZoXLhwN9O+tukAlrNpJg1SzDH4QW/URgNYgZTkjA4UkwJUgGXng+6DX1zLfmoymdXo17xh5zmRJ6Q42BWCfc2oJfdAr+Yv+AP9Cb7OJ3H/2JG1HNGz/84klThPVCc=);strokeColor=none;labelBackgroundColor=none;rounded=0;html=1;whiteSpace=wrap;" parent="KINrCgI-4FL6j2Hm-c1F-1" vertex="1">
                    <mxGeometry x="302" y="226" width="101" height="45" as="geometry"/>
                </mxCell>
                <mxCell id="KINrCgI-4FL6j2Hm-c1F-87" style="vsdxID=1926;fillColor=none;gradientColor=none;strokeColor=none;spacingTop=-3;spacingBottom=-3;spacingLeft=-3;spacingRight=-3;labelBackgroundColor=none;rounded=0;html=1;whiteSpace=wrap;" parent="KINrCgI-4FL6j2Hm-c1F-1" vertex="1">
                    <mxGeometry x="372" y="252" width="22" height="38" as="geometry"/>
                </mxCell>
                <mxCell id="KINrCgI-4FL6j2Hm-c1F-88" style="vsdxID=1927;fillColor=none;gradientColor=none;strokeColor=none;spacingTop=-3;spacingBottom=-3;spacingLeft=-3;spacingRight=-3;labelBackgroundColor=none;rounded=0;html=1;whiteSpace=wrap;" parent="KINrCgI-4FL6j2Hm-c1F-87" vertex="1">
                    <mxGeometry width="22" height="38" as="geometry"/>
                </mxCell>
                <mxCell id="KINrCgI-4FL6j2Hm-c1F-89" style="vsdxID=1928;fillColor=#949494;gradientColor=none;shape=stencil(lZPdcoMgEIWfhtsd2BUr12nyHpnEVCZWM8T8vX21oLLEpu0dHM+ynwdW0OpcbU+lQHnuXHssb3bfVYLeBaJtqtLZrl8JWgtaHVpXfrj20uz9/rQdnMPqs70OJ9x9nZJyqEH58HuTg8ZvZePtu4vzfpUWBMEUkPkKeccgvQGp4BolA0UWXBSkDKQJLuKHh961bSJUDUYx1sSdkiLkhqNO7COoTCCjXyHuoB/i4Yg8S4KseAWYBKlAFxwPJ5yRUILKOaCGXHPGl6FEdk4x9oxS5iHNDSfDUkMeSHzHf6CLH84y3vz88Ck1Si20fA8c8dcJ+Ke9X8zDdrB17Wc1/p4OZy/5wab1Fw==);strokeColor=none;strokeWidth=17;spacingTop=-3;spacingBottom=-3;spacingLeft=-3;spacingRight=-3;labelBackgroundColor=none;rounded=0;html=1;whiteSpace=wrap;" parent="KINrCgI-4FL6j2Hm-c1F-88" vertex="1">
                    <mxGeometry width="22" height="38" as="geometry"/>
                </mxCell>
                <mxCell id="KINrCgI-4FL6j2Hm-c1F-90" style="vsdxID=1929;fillColor=#003067;gradientColor=none;shape=stencil(jZTRcoMgEEW/htcd3EWQ5zT5j0xiKlOrGWPa5O+rBSustfUN1rPeO3sBQbtbdbyWAuWt79q38tOd+0rQi0B0TVV2rh9WgvaCdpe2K1+79t6c/f56HMlx9d5+jH94+D45dqB8+l0uQeN35eDh073zdJbiYYsESvvSA31Jg1EBCpUMkAJDoaLAFgEiBgXh2jWRy0IBmsQp57lRi5BnqVmZGrUWNKVOEQGRWZUyNaosUPGX8tyR8Y4f7ZlBPvh15UU46YxmfmOWC6PGgGFGLQFqFufUNhktcpDI0gzMinLcwc1MykPkmh+khXLE/K7MRhSdu01Go8O85pMFGc+QUmJbjP+EOCzmq3xxde1fgvg7v/pDyT8btP8C);strokeColor=none;strokeWidth=17;spacingTop=-3;spacingBottom=-3;spacingLeft=-3;spacingRight=-3;labelBackgroundColor=none;rounded=0;html=1;whiteSpace=wrap;" parent="KINrCgI-4FL6j2Hm-c1F-88" vertex="1">
                    <mxGeometry x="3" y="10" width="16" height="4" as="geometry"/>
                </mxCell>
                <mxCell id="KINrCgI-4FL6j2Hm-c1F-91" style="vsdxID=1930;fillColor=#003067;gradientColor=none;shape=stencil(jZTRcoMgEEW/htcd3CUgz2nyH5nGVKZWM8S06d9XC0bY1NQ3WO96z+wFBG0v9eFcCZSX3nfv1Zc79rWgF4Ho2rryrh9WgnaCtqfOV2++u7bHsD8fRuW4+ug+xz/cQp8cO1B+h91Ggsbfyj6IX68+qItcHrdIoHQo3TCUNBgVRbFSAFLUUKwosGUUERNF48a1CWWpAE1GyvUc1CJsihxW5qDWgqacFBEQGaqUOaiyQOUz57mj4B1371mDfPDLzg/h5DOa9SuzfAA1BgwDtQSoWZxT2wQ6hKNVjjppFpzTDg4zOaeRP3G+a/52ZiNKzt0q0OQwL3GyINMZUq5YF+M/IQ6L+SqfXNOElyD9zq/+UArPBu1+AA==);strokeColor=none;strokeWidth=17;spacingTop=-3;spacingBottom=-3;spacingLeft=-3;spacingRight=-3;labelBackgroundColor=none;rounded=0;html=1;whiteSpace=wrap;" parent="KINrCgI-4FL6j2Hm-c1F-88" vertex="1">
                    <mxGeometry x="3" y="3" width="16" height="4" as="geometry"/>
                </mxCell>
                <mxCell id="KINrCgI-4FL6j2Hm-c1F-92" style="vsdxID=1931;fillColor=#50e6ff;gradientColor=none;shape=stencil(vVHLDsIgEPwajiQI6RfU+h8bu22JCGRB2/69kG1iazx58DazM/vIjjBtmiCi0CplCjecbZ8nYc5Ca+snJJsLEqYTph0C4Ujh4XvmEaqzont41gkL96naodXKrGF6YSfQtUi0OXXDVlqPfJNP6usotUhYbJIUMmQb/GGrAxpRljVycDBuc1hKM2LclX8/7H9nFfB+82Cd45T2+mcspcSRmu4F);strokeColor=none;strokeWidth=17;spacingTop=-3;spacingBottom=-3;spacingLeft=-3;spacingRight=-3;labelBackgroundColor=none;rounded=0;html=1;whiteSpace=wrap;" parent="KINrCgI-4FL6j2Hm-c1F-88" vertex="1">
                    <mxGeometry x="4" y="4" width="3" height="3" as="geometry"/>
                </mxCell>
                <mxCell id="KINrCgI-4FL6j2Hm-c1F-93" style="vsdxID=1932;fillColor=#50e6ff;gradientColor=none;shape=stencil(vVHLDsIgEPwajiQI6RfU+h8bu22JCGRB2/69kG1iazx58DazM/vIjjBtmiCi0CplCjecbZ8nYc5Ca+snJJsLEqYTph0C4Ujh4XvmEaqzont41gkL96naodXKrGF6YSfQtUi0OXXDVlqPfJNP6usotUhYbJIUMmQb/GGrAxpRljVycDBuc1hKM2LclX8/7H9nFfB+82Cd45T2+mcspcSRmu4F);strokeColor=none;strokeWidth=17;spacingTop=-3;spacingBottom=-3;spacingLeft=-3;spacingRight=-3;labelBackgroundColor=none;rounded=0;html=1;whiteSpace=wrap;" parent="KINrCgI-4FL6j2Hm-c1F-88" vertex="1">
                    <mxGeometry x="4" y="11" width="3" height="3" as="geometry"/>
                </mxCell>
                <mxCell id="KINrCgI-4FL6j2Hm-c1F-94" style="vsdxID=1933;fillColor=none;gradientColor=none;strokeColor=none;spacingTop=-3;spacingBottom=-3;spacingLeft=-3;spacingRight=-3;labelBackgroundColor=none;rounded=0;html=1;whiteSpace=wrap;" parent="KINrCgI-4FL6j2Hm-c1F-1" vertex="1">
                    <mxGeometry x="379" y="272" width="41" height="36" as="geometry"/>
                </mxCell>
                <mxCell id="KINrCgI-4FL6j2Hm-c1F-95" style="vsdxID=1934;fillColor=#0078d4;gradientColor=none;shape=stencil(vZTLboMwEEW/hiUj4wE/1mn6H1ZjwCoFZEhD/r5QI8JAoq7Kzp6HfbgeboSnrjStjTjret982pu79GWEbxHnri6td/24ivAc4SlvvC18c60vYd+aqXJafTXf0wlD6EsYm3o4u4e9UCCS38h7KDf+Y8z6uZxzmHJTg587MAHEEJqLFIOMHIrLoWyIzeC62De96V1Th/yMUBlf2Hi8MM4rU5BUd7O23YWfI6qFZ0HUoFOCmD2g7+SiA/g0MEH5UgZaED6OkAnCxwXI4zQUoLYaSlCcMG4GB4Flh/HJ/RiOz66ohgoSSRj1ag7+gbFy9erPQrYM/e76pw1SLB/1qoGqkAJqKoKAhGogJaTpkRrs7EJu34kDo//iaws64JX+9L9x8fDO3FVVsN51fuu1Yyj4NJ5/AA==);strokeColor=none;spacingTop=-3;spacingBottom=-3;spacingLeft=-3;spacingRight=-3;labelBackgroundColor=none;rounded=0;html=1;whiteSpace=wrap;" parent="KINrCgI-4FL6j2Hm-c1F-94" vertex="1">
                    <mxGeometry width="41" height="29" as="geometry"/>
                </mxCell>
                <mxCell id="KINrCgI-4FL6j2Hm-c1F-96" style="vsdxID=1935;fillColor=#f2f2f2;gradientColor=none;shape=stencil(nZBRDoQgDERP03+WHsHFe5iISyOCQdT19kIaIxq//Jtp3zTpAFaTaUYNUkwx+F6v1EYD+AUpyRkdKCYFqACrzgf9C352LfuxyWRWg1/yhT/nRE5IsZWuZtCSK8CPeI0e/hF+jV7AJM4PO7KWCyr390bSiNtEtQM=);strokeColor=none;spacingTop=-3;spacingBottom=-3;spacingLeft=-3;spacingRight=-3;labelBackgroundColor=none;rounded=0;html=1;whiteSpace=wrap;" parent="KINrCgI-4FL6j2Hm-c1F-94" vertex="1">
                    <mxGeometry x="15" y="13" width="11" height="15" as="geometry"/>
                </mxCell>
                <mxCell id="KINrCgI-4FL6j2Hm-c1F-97" style="vsdxID=1936;fillColor=#50e6ff;gradientColor=none;shape=stencil(vVTRboMwDPyaPBIlcSHkuWv/I2oDRGOkCnRlf7+wkA63XVdpWt8c+87ns8AE1n2jD4YI1g/evZqT3Q8NgRcihO0a4+0QIgIbAuvKeVN7d+z28X3QE3KK3tz71GGMPJXTVTmxBPuIGZ5TJb4y20hobbcgSCoVwrMlVvtdqPgZW1Ax9/apOVUze1yyz9qUp3KmR9tn3g16sK5D4Fb72mRBKqtaXaNSfzLmcJWeh9sdfbTOsTa/EhcYIBKgkDMAMAASoISfN4etqpIy/qfVFZQB3h5j/7c87CUMv7qpfRMdPjKJRy2BFnfNq1/Mn72mhpxK+Sz3l+I8rEPes5MDtiMS/pHf8AmGHrgCIfi+IZVt23iClvXLmxNS8V7B5hM=);strokeColor=none;spacingTop=-3;spacingBottom=-3;spacingLeft=-3;spacingRight=-3;labelBackgroundColor=none;rounded=0;html=1;whiteSpace=wrap;" parent="KINrCgI-4FL6j2Hm-c1F-94" vertex="1">
                    <mxGeometry x="20" y="7" width="9" height="28" as="geometry"/>
                </mxCell>
                <mxCell id="KINrCgI-4FL6j2Hm-c1F-98" value="&lt;font style=&quot;font-size:14px;font-family:Segoe UI;color:#000000;direction:ltr;letter-spacing:0px;line-height:120%;opacity:1&quot;&gt;(Optional)&lt;br/&gt;collector proxy&lt;br/&gt;&lt;/font&gt;" style="text;vsdxID=1933;fillColor=none;gradientColor=none;strokeColor=none;spacingTop=-3;spacingBottom=-3;spacingLeft=-3;spacingRight=-3;labelBackgroundColor=none;rounded=0;html=1;whiteSpace=wrap;verticalAlign=middle;align=center;;html=1;" parent="KINrCgI-4FL6j2Hm-c1F-94" vertex="1">
                    <mxGeometry x="-35.87" y="42.74" width="103.19" height="22.22" as="geometry"/>
                </mxCell>
                <mxCell id="KINrCgI-4FL6j2Hm-c1F-99" style="vsdxID=1924;edgeStyle=none;startArrow=block;endArrow=none;startSize=9;endSize=9;strokeWidth=2;spacingTop=0;spacingBottom=0;spacingLeft=0;spacingRight=0;verticalAlign=middle;html=1;labelBackgroundColor=#ffffff;rounded=0;" parent="KINrCgI-4FL6j2Hm-c1F-1" edge="1">
                    <mxGeometry relative="1" as="geometry">
                        <mxPoint y="-1" as="offset"/>
                        <Array as="points">
                            <mxPoint x="324.55" y="288"/>
                            <mxPoint x="324.55" y="441.37"/>
                        </Array>
                        <mxPoint x="369" y="288" as="sourcePoint"/>
                        <mxPoint x="301" y="441" as="targetPoint"/>
                    </mxGeometry>
                </mxCell>
                <mxCell id="KINrCgI-4FL6j2Hm-c1F-100" value="" style="aspect=fixed;html=1;points=[];align=center;image;fontSize=12;image=img/lib/azure2/security/Security_Center.svg;rounded=0;sketch=0;strokeColor=#457B9D;fillColor=#A8DADC;" parent="KINrCgI-4FL6j2Hm-c1F-1" vertex="1">
                    <mxGeometry x="561.56" y="244" width="37.89" height="46" as="geometry"/>
                </mxCell>
                <mxCell id="KINrCgI-4FL6j2Hm-c1F-101" style="vsdxID=1839;edgeStyle=none;startArrow=none;endArrow=block;startSize=3;endSize=5;strokeWidth=2;strokeColor=#0078d4;spacingTop=0;spacingBottom=0;spacingLeft=0;spacingRight=0;verticalAlign=middle;html=1;labelBackgroundColor=#ffffff;rounded=0;exitX=0;exitY=0.25;exitDx=0;exitDy=0;" parent="KINrCgI-4FL6j2Hm-c1F-1" source="KINrCgI-4FL6j2Hm-c1F-5" edge="1">
                    <mxGeometry relative="1" as="geometry">
                        <mxPoint x="-1" as="offset"/>
                        <Array as="points"/>
                        <mxPoint x="810" y="400" as="sourcePoint"/>
                        <mxPoint x="790" y="330" as="targetPoint"/>
                    </mxGeometry>
                </mxCell>
                <mxCell id="KINrCgI-4FL6j2Hm-c1F-102" style="vsdxID=1839;edgeStyle=none;startArrow=none;endArrow=block;startSize=3;endSize=5;strokeWidth=2;strokeColor=#0078d4;spacingTop=0;spacingBottom=0;spacingLeft=0;spacingRight=0;verticalAlign=middle;html=1;labelBackgroundColor=#ffffff;rounded=0;exitX=0;exitY=0.25;exitDx=0;exitDy=0;" parent="KINrCgI-4FL6j2Hm-c1F-1" source="KINrCgI-4FL6j2Hm-c1F-14" edge="1">
                    <mxGeometry relative="1" as="geometry">
                        <mxPoint x="-1" as="offset"/>
                        <Array as="points"/>
                        <mxPoint x="903.9099999999999" y="406.25" as="sourcePoint"/>
                        <mxPoint x="800" y="352" as="targetPoint"/>
                    </mxGeometry>
                </mxCell>
                <mxCell id="KINrCgI-4FL6j2Hm-c1F-103" value="Azure Security Center" style="text;html=1;strokeColor=none;fillColor=none;align=center;verticalAlign=middle;whiteSpace=wrap;rounded=0;sketch=0;fontColor=#1D3557;" parent="KINrCgI-4FL6j2Hm-c1F-1" vertex="1">
                    <mxGeometry x="535.22" y="296" width="90.55" height="20" as="geometry"/>
                </mxCell>
                <mxCell id="KINrCgI-4FL6j2Hm-c1F-104" style="vsdxID=1714;edgeStyle=none;startArrow=block;endArrow=block;startSize=5;endSize=5;strokeWidth=2;strokeColor=#0078d4;spacingTop=0;spacingBottom=0;spacingLeft=0;spacingRight=0;verticalAlign=middle;html=1;labelBackgroundColor=#ffffff;rounded=0;entryX=0;entryY=0.051;entryDx=0;entryDy=0;entryPerimeter=0;" parent="KINrCgI-4FL6j2Hm-c1F-1" target="KINrCgI-4FL6j2Hm-c1F-23" edge="1">
                    <mxGeometry relative="1" as="geometry">
                        <mxPoint as="offset"/>
                        <Array as="points"/>
                        <mxPoint x="790" y="360" as="sourcePoint"/>
                        <mxPoint x="819" y="380" as="targetPoint"/>
                    </mxGeometry>
                </mxCell>
                <mxCell id="KINrCgI-4FL6j2Hm-c1F-105" style="vsdxID=1714;edgeStyle=none;startArrow=block;endArrow=block;startSize=5;endSize=5;strokeWidth=2;strokeColor=#0078d4;spacingTop=0;spacingBottom=0;spacingLeft=0;spacingRight=0;verticalAlign=middle;html=1;labelBackgroundColor=#ffffff;rounded=0;entryX=0.48;entryY=0.08;entryDx=0;entryDy=0;entryPerimeter=0;" parent="KINrCgI-4FL6j2Hm-c1F-1" target="KINrCgI-4FL6j2Hm-c1F-28" edge="1">
                    <mxGeometry relative="1" as="geometry">
                        <mxPoint as="offset"/>
                        <Array as="points"/>
                        <mxPoint x="740" y="370" as="sourcePoint"/>
                        <mxPoint x="859.97" y="541.989" as="targetPoint"/>
                    </mxGeometry>
                </mxCell>
                <mxCell id="KINrCgI-4FL6j2Hm-c1F-106" style="vsdxID=1714;edgeStyle=none;startArrow=block;endArrow=block;startSize=5;endSize=5;strokeWidth=2;strokeColor=#0078d4;spacingTop=0;spacingBottom=0;spacingLeft=0;spacingRight=0;verticalAlign=middle;html=1;labelBackgroundColor=#ffffff;rounded=0;entryX=-0.041;entryY=0.079;entryDx=0;entryDy=0;entryPerimeter=0;" parent="KINrCgI-4FL6j2Hm-c1F-1" target="KINrCgI-4FL6j2Hm-c1F-29" edge="1">
                    <mxGeometry relative="1" as="geometry">
                        <mxPoint as="offset"/>
                        <Array as="points"/>
                        <mxPoint x="770" y="360" as="sourcePoint"/>
                        <mxPoint x="880.04" y="544.999" as="targetPoint"/>
                    </mxGeometry>
                </mxCell>
                <mxCell id="KINrCgI-4FL6j2Hm-c1F-107" style="vsdxID=1714;edgeStyle=none;startArrow=block;endArrow=block;startSize=5;endSize=5;strokeWidth=2;strokeColor=#0078d4;spacingTop=0;spacingBottom=0;spacingLeft=0;spacingRight=0;verticalAlign=middle;html=1;labelBackgroundColor=#ffffff;rounded=0;exitX=-0.124;exitY=0.875;exitDx=0;exitDy=0;exitPerimeter=0;" parent="KINrCgI-4FL6j2Hm-c1F-1" source="KINrCgI-4FL6j2Hm-c1F-64" edge="1">
                    <mxGeometry relative="1" as="geometry">
                        <mxPoint as="offset"/>
                        <Array as="points"/>
                        <mxPoint x="788.0099599999999" y="379.99181999999996" as="sourcePoint"/>
                        <mxPoint x="581" y="440" as="targetPoint"/>
                    </mxGeometry>
                </mxCell>
            </root>
        </mxGraphModel>
    </diagram>
    <diagram name="First MicroHack LA" id="INwo9vKPs6BBbxcnbSyz">
        <mxGraphModel dx="1195" dy="1163" grid="1" gridSize="10" guides="0" tooltips="1" connect="1" arrows="1" fold="1" page="1" pageScale="1" pageWidth="850" pageHeight="1100" math="0" shadow="0">
            <root>
                <mxCell id="EulCbl3LE-ToeLQa1urC-0"/>
                <mxCell id="EulCbl3LE-ToeLQa1urC-1" parent="EulCbl3LE-ToeLQa1urC-0"/>
                <mxCell id="bRuFRhwKxHo6qi5xH5AQ-25" value="" style="rounded=0;whiteSpace=wrap;html=1;shadow=0;glass=0;sketch=0;opacity=0;" vertex="1" parent="EulCbl3LE-ToeLQa1urC-1">
                    <mxGeometry x="490" y="200" width="190" height="150" as="geometry"/>
                </mxCell>
                <mxCell id="EulCbl3LE-ToeLQa1urC-2" style="vsdxID=259;fillColor=#ffffff;gradientColor=none;shape=stencil(nZBLDoAgDERP0z3SIyjew0SURgSD+Lu9kMZoXLhwN9O+tukAlrNpJg1SzDH4QW/URgNYgZTkjA4UkwJUgGXng+6DX1zLfmoymdXo17xh5zmRJ6Q42BWCfc2oJfdAr+Yv+AP9Cb7OJ3H/2JG1HNGz/84klThPVCc=);strokeColor=none;labelBackgroundColor=none;rounded=0;html=1;whiteSpace=wrap;" parent="EulCbl3LE-ToeLQa1urC-1" vertex="1">
                    <mxGeometry x="20" y="42" width="1060" height="848" as="geometry"/>
                </mxCell>
                <mxCell id="EulCbl3LE-ToeLQa1urC-3" style="vsdxID=1663;fillColor=#ebebeb;gradientColor=none;shape=stencil(nZBLDoAgDERP0z3SIyjew0SURgSD+Lu9kMZoXLhwN9O+tukAlrNpJg1SzDH4QW/URgNYgZTkjA4UkwJUgGXng+6DX1zLfmoymdXo17xh5zmRJ6Q42BWCfc2oJfdAr+Yv+AP9Cb7OJ3H/2JG1HNGz/84klThPVCc=);dashed=1;dashPattern=1.00 2.00;strokeColor=#0078d4;strokeWidth=2;labelBackgroundColor=none;rounded=0;html=1;whiteSpace=wrap;" parent="EulCbl3LE-ToeLQa1urC-1" vertex="1">
                    <mxGeometry x="479" y="179" width="546" height="600" as="geometry"/>
                </mxCell>
                <mxCell id="EulCbl3LE-ToeLQa1urC-4" value="&lt;font style=&quot;font-size:19px;font-family:Segoe UI Semibold;color:#000000;direction:ltr;letter-spacing:0px;line-height:120%;opacity:1&quot;&gt;Azure&lt;br/&gt;&lt;/font&gt;" style="text;vsdxID=1663;fillColor=none;gradientColor=none;dashed=1;dashPattern=1.00 2.00;strokeColor=none;strokeWidth=2;labelBackgroundColor=none;rounded=0;html=1;whiteSpace=wrap;verticalAlign=middle;align=center;;html=1;" parent="EulCbl3LE-ToeLQa1urC-3" vertex="1">
                    <mxGeometry y="-59.54565217391304" width="544.28" height="55.71086956521739" as="geometry"/>
                </mxCell>
                <mxCell id="EulCbl3LE-ToeLQa1urC-5" style="vsdxID=1894;fillColor=none;gradientColor=none;strokeColor=none;spacingTop=-3;spacingBottom=-3;spacingLeft=-3;spacingRight=-3;labelBackgroundColor=none;rounded=0;html=1;whiteSpace=wrap;" parent="EulCbl3LE-ToeLQa1urC-3" vertex="1">
                    <mxGeometry x="420.99999999999994" y="76.91" width="63.18" height="49" as="geometry"/>
                </mxCell>
                <mxCell id="EulCbl3LE-ToeLQa1urC-6" style="vsdxID=1895;fillColor=#0078d4;gradientColor=none;shape=stencil(vVNLDsIgED0NSwxCrOm61nsQS1siQjOgrbeXCtH+4sIm3c3Me8P8eIhltuaNQJRYB+YqWlm4GrETolTqWoB03kIsRywrDYgKzF0XwW94z+ytm3n0L3Qhj/QZlDyDlx7e7jkwOVw8BJHJdowFMkR2IJMZHuE9iY93mHfSYjCOO2n0qLDiUAnsK+FS8WoE2VaIZhaOvSmpB1OkyS45Lhb/a5RP5+O1bDDItPKKe8x3stk5Zl9hxS2W9rHBCL904Y2vnEqpVFDjEJ/Kz4eCdFn+Ag==);strokeColor=none;spacingTop=-3;spacingBottom=-3;spacingLeft=-3;spacingRight=-3;labelBackgroundColor=none;rounded=0;html=1;whiteSpace=wrap;" parent="EulCbl3LE-ToeLQa1urC-5" vertex="1">
                    <mxGeometry width="49" height="32" as="geometry"/>
                </mxCell>
                <mxCell id="EulCbl3LE-ToeLQa1urC-7" style="vsdxID=1896;fillColor=#50e6ff;gradientColor=none;shape=stencil(lZHBCsIwEES/Zq8lZqR4r/U/Ck3NYkxKGq3+vQmLaAWl3mY2b5ZlQmgm242GtJpSDCczc58sYU9as7cmcsqK0BKaIURzjOHie/FjV8iizuFaNtwkt1GqZLS6ixd3ENSx/4HWdbXdfceX8DO8AgUqYP0Zf1y8QLN4lTKwc9Lp+/tniXkkH4D2AQ==);strokeColor=none;spacingTop=-3;spacingBottom=-3;spacingLeft=-3;spacingRight=-3;labelBackgroundColor=none;rounded=0;html=1;whiteSpace=wrap;" parent="EulCbl3LE-ToeLQa1urC-5" vertex="1">
                    <mxGeometry x="24" y="11" width="8" height="14" as="geometry"/>
                </mxCell>
                <mxCell id="EulCbl3LE-ToeLQa1urC-8" style="vsdxID=1897;fillColor=#c3f1ff;gradientColor=none;shape=stencil(UzV2Ls5ILEhVNTIoLinKz04tz0wpyVA1dlE1MsrMy0gtyiwBslSNXVWNndPyi1LTi/JL81Ig/IJEkEoQKze/DGRCBUSfoYEBSI+RQSWEb2KpZ2EGFnGDKM/JzENSboqqGqYbq1pKDMZjLIkuJqgcyEAETlpmTg4kbJHl0QMTKASJCGNXAA==);strokeColor=none;spacingTop=-3;spacingBottom=-3;spacingLeft=-3;spacingRight=-3;labelBackgroundColor=none;rounded=0;html=1;whiteSpace=wrap;" parent="EulCbl3LE-ToeLQa1urC-5" vertex="1">
                    <mxGeometry x="16" y="6" width="16" height="9" as="geometry"/>
                </mxCell>
                <mxCell id="EulCbl3LE-ToeLQa1urC-9" style="vsdxID=1898;fillColor=#9cebff;gradientColor=none;shape=stencil(UzV2Ls5ILEhVNTIoLinKz04tz0wpyVA1dlE1MsrMy0gtyiwBslSNXVWNndPyi1LTi/JL81Ig/IJEkEoQKze/DGRCBUSfoYEBSI+RQSWEb2ysZ2oEFnGDKM/JzMOjHMbHqhhVqZmZnokFsYrxmEqhizGUAxmIwEnLzMmBhC2yPHpgAoUgEWHsCgA=);strokeColor=none;spacingTop=-3;spacingBottom=-3;spacingLeft=-3;spacingRight=-3;labelBackgroundColor=none;rounded=0;html=1;whiteSpace=wrap;" parent="EulCbl3LE-ToeLQa1urC-5" vertex="1">
                    <mxGeometry x="16" y="11" width="8" height="14" as="geometry"/>
                </mxCell>
                <mxCell id="EulCbl3LE-ToeLQa1urC-10" style="vsdxID=1899;fillColor=#c3f1ff;gradientColor=none;shape=stencil(UzV2Ls5ILEhVNTIoLinKz04tz0wpyVA1dlE1MsrMy0gtyiwBslSNXVWNndPyi1LTi/JL81Ig/IJEkEoQKze/DGRCBUSfAUiHkUElhGdiqWduCBZxgyjOycxDUmxogKrcgHilMD5WxSQ5goBiIAPh17TMnBxIUCHLo4cNUAgSrsauAA==);strokeColor=none;spacingTop=-3;spacingBottom=-3;spacingLeft=-3;spacingRight=-3;labelBackgroundColor=none;rounded=0;html=1;whiteSpace=wrap;" parent="EulCbl3LE-ToeLQa1urC-5" vertex="1">
                    <mxGeometry x="16" y="16" width="8" height="9" as="geometry"/>
                </mxCell>
                <mxCell id="EulCbl3LE-ToeLQa1urC-11" style="vsdxID=1900;fillColor=#9cebff;gradientColor=none;shape=stencil(UzV2Ls5ILEhVNTIoLinKz04tz0wpyVA1dlE1MsrMy0gtyiwBslSNXVWNndPyi1LTi/JL81Ig/IJEkEoQKze/DGRCBUSfoYEBSI+RQSWEb2KpZ24IFnGDKM/JzENSjqrYgFiFMFuwKiXRCQSVAxkI36Zl5uRAAgtZHj10gEKQkDV2BQA=);strokeColor=none;spacingTop=-3;spacingBottom=-3;spacingLeft=-3;spacingRight=-3;labelBackgroundColor=none;rounded=0;html=1;whiteSpace=wrap;" parent="EulCbl3LE-ToeLQa1urC-5" vertex="1">
                    <mxGeometry x="24" y="16" width="8" height="9" as="geometry"/>
                </mxCell>
                <mxCell id="EulCbl3LE-ToeLQa1urC-12" style="vsdxID=1901;fillColor=#0078d4;gradientColor=none;shape=stencil(vVPBbsMgDP0ajkGA06Q5d+1/oJYkaCxEhK7s70eG25Gk2qQddjPPz7xnyyZwmHo5KiLY5J19VTd98T2BFyKEHnrltI8RgSOBQ2ud6py9Dpf0HuXMnKM3+z7/EFJdwyjnc5VgHwmp97T8Ak6Jf766VMAxzygAVtwhQWGXoCASVDV0VyELobKkNUoF2LIQYrm20UPmFTLlJ+S1UdgazS2gK9HQql4azdtBVw3dN0uf6zFJd45Zh1Y5f4zVoVfBKbYacvP3VjjDdyhk0FPhrJde22HBNdJ1qohSRWtkt0hNN6XGDfx0jg+plfSfO/lhif6hnd9XOAbf+99qY9L55Pn1vUQo3RocPwE=);strokeColor=none;spacingTop=-3;spacingBottom=-3;spacingLeft=-3;spacingRight=-3;labelBackgroundColor=none;rounded=0;html=1;whiteSpace=wrap;" parent="EulCbl3LE-ToeLQa1urC-5" vertex="1">
                    <mxGeometry x="12" y="32" width="24" height="12" as="geometry"/>
                </mxCell>
                <mxCell id="EulCbl3LE-ToeLQa1urC-13" value="" style="aspect=fixed;html=1;points=[];align=center;image;fontSize=12;image=img/lib/azure2/security/Security_Center.svg;rounded=0;sketch=0;strokeColor=#457B9D;fillColor=#A8DADC;" parent="EulCbl3LE-ToeLQa1urC-5" vertex="1">
                    <mxGeometry x="36" y="16" width="27.18" height="33" as="geometry"/>
                </mxCell>
                <mxCell id="EulCbl3LE-ToeLQa1urC-14" style="vsdxID=1894;fillColor=none;gradientColor=none;strokeColor=none;spacingTop=-3;spacingBottom=-3;spacingLeft=-3;spacingRight=-3;labelBackgroundColor=none;rounded=0;html=1;whiteSpace=wrap;" parent="EulCbl3LE-ToeLQa1urC-3" vertex="1">
                    <mxGeometry x="420.99999999999994" y="161" width="63.18" height="49" as="geometry"/>
                </mxCell>
                <mxCell id="EulCbl3LE-ToeLQa1urC-15" style="vsdxID=1895;fillColor=#0078d4;gradientColor=none;shape=stencil(vVNLDsIgED0NSwxCrOm61nsQS1siQjOgrbeXCtH+4sIm3c3Me8P8eIhltuaNQJRYB+YqWlm4GrETolTqWoB03kIsRywrDYgKzF0XwW94z+ytm3n0L3Qhj/QZlDyDlx7e7jkwOVw8BJHJdowFMkR2IJMZHuE9iY93mHfSYjCOO2n0qLDiUAnsK+FS8WoE2VaIZhaOvSmpB1OkyS45Lhb/a5RP5+O1bDDItPKKe8x3stk5Zl9hxS2W9rHBCL904Y2vnEqpVFDjEJ/Kz4eCdFn+Ag==);strokeColor=none;spacingTop=-3;spacingBottom=-3;spacingLeft=-3;spacingRight=-3;labelBackgroundColor=none;rounded=0;html=1;whiteSpace=wrap;" parent="EulCbl3LE-ToeLQa1urC-14" vertex="1">
                    <mxGeometry width="49" height="32" as="geometry"/>
                </mxCell>
                <mxCell id="EulCbl3LE-ToeLQa1urC-16" style="vsdxID=1896;fillColor=#50e6ff;gradientColor=none;shape=stencil(lZHBCsIwEES/Zq8lZqR4r/U/Ck3NYkxKGq3+vQmLaAWl3mY2b5ZlQmgm242GtJpSDCczc58sYU9as7cmcsqK0BKaIURzjOHie/FjV8iizuFaNtwkt1GqZLS6ixd3ENSx/4HWdbXdfceX8DO8AgUqYP0Zf1y8QLN4lTKwc9Lp+/tniXkkH4D2AQ==);strokeColor=none;spacingTop=-3;spacingBottom=-3;spacingLeft=-3;spacingRight=-3;labelBackgroundColor=none;rounded=0;html=1;whiteSpace=wrap;" parent="EulCbl3LE-ToeLQa1urC-14" vertex="1">
                    <mxGeometry x="24" y="11" width="8" height="14" as="geometry"/>
                </mxCell>
                <mxCell id="EulCbl3LE-ToeLQa1urC-17" style="vsdxID=1897;fillColor=#c3f1ff;gradientColor=none;shape=stencil(UzV2Ls5ILEhVNTIoLinKz04tz0wpyVA1dlE1MsrMy0gtyiwBslSNXVWNndPyi1LTi/JL81Ig/IJEkEoQKze/DGRCBUSfoYEBSI+RQSWEb2KpZ2EGFnGDKM/JzENSboqqGqYbq1pKDMZjLIkuJqgcyEAETlpmTg4kbJHl0QMTKASJCGNXAA==);strokeColor=none;spacingTop=-3;spacingBottom=-3;spacingLeft=-3;spacingRight=-3;labelBackgroundColor=none;rounded=0;html=1;whiteSpace=wrap;" parent="EulCbl3LE-ToeLQa1urC-14" vertex="1">
                    <mxGeometry x="16" y="6" width="16" height="9" as="geometry"/>
                </mxCell>
                <mxCell id="EulCbl3LE-ToeLQa1urC-18" style="vsdxID=1898;fillColor=#9cebff;gradientColor=none;shape=stencil(UzV2Ls5ILEhVNTIoLinKz04tz0wpyVA1dlE1MsrMy0gtyiwBslSNXVWNndPyi1LTi/JL81Ig/IJEkEoQKze/DGRCBUSfoYEBSI+RQSWEb2ysZ2oEFnGDKM/JzMOjHMbHqhhVqZmZnokFsYrxmEqhizGUAxmIwEnLzMmBhC2yPHpgAoUgEWHsCgA=);strokeColor=none;spacingTop=-3;spacingBottom=-3;spacingLeft=-3;spacingRight=-3;labelBackgroundColor=none;rounded=0;html=1;whiteSpace=wrap;" parent="EulCbl3LE-ToeLQa1urC-14" vertex="1">
                    <mxGeometry x="16" y="11" width="8" height="14" as="geometry"/>
                </mxCell>
                <mxCell id="EulCbl3LE-ToeLQa1urC-19" style="vsdxID=1899;fillColor=#c3f1ff;gradientColor=none;shape=stencil(UzV2Ls5ILEhVNTIoLinKz04tz0wpyVA1dlE1MsrMy0gtyiwBslSNXVWNndPyi1LTi/JL81Ig/IJEkEoQKze/DGRCBUSfAUiHkUElhGdiqWduCBZxgyjOycxDUmxogKrcgHilMD5WxSQ5goBiIAPh17TMnBxIUCHLo4cNUAgSrsauAA==);strokeColor=none;spacingTop=-3;spacingBottom=-3;spacingLeft=-3;spacingRight=-3;labelBackgroundColor=none;rounded=0;html=1;whiteSpace=wrap;" parent="EulCbl3LE-ToeLQa1urC-14" vertex="1">
                    <mxGeometry x="16" y="16" width="8" height="9" as="geometry"/>
                </mxCell>
                <mxCell id="EulCbl3LE-ToeLQa1urC-20" style="vsdxID=1900;fillColor=#9cebff;gradientColor=none;shape=stencil(UzV2Ls5ILEhVNTIoLinKz04tz0wpyVA1dlE1MsrMy0gtyiwBslSNXVWNndPyi1LTi/JL81Ig/IJEkEoQKze/DGRCBUSfoYEBSI+RQSWEb2KpZ24IFnGDKM/JzENSjqrYgFiFMFuwKiXRCQSVAxkI36Zl5uRAAgtZHj10gEKQkDV2BQA=);strokeColor=none;spacingTop=-3;spacingBottom=-3;spacingLeft=-3;spacingRight=-3;labelBackgroundColor=none;rounded=0;html=1;whiteSpace=wrap;" parent="EulCbl3LE-ToeLQa1urC-14" vertex="1">
                    <mxGeometry x="24" y="16" width="8" height="9" as="geometry"/>
                </mxCell>
                <mxCell id="EulCbl3LE-ToeLQa1urC-21" style="vsdxID=1901;fillColor=#0078d4;gradientColor=none;shape=stencil(vVPBbsMgDP0ajkGA06Q5d+1/oJYkaCxEhK7s70eG25Gk2qQddjPPz7xnyyZwmHo5KiLY5J19VTd98T2BFyKEHnrltI8RgSOBQ2ud6py9Dpf0HuXMnKM3+z7/EFJdwyjnc5VgHwmp97T8Ak6Jf766VMAxzygAVtwhQWGXoCASVDV0VyELobKkNUoF2LIQYrm20UPmFTLlJ+S1UdgazS2gK9HQql4azdtBVw3dN0uf6zFJd45Zh1Y5f4zVoVfBKbYacvP3VjjDdyhk0FPhrJde22HBNdJ1qohSRWtkt0hNN6XGDfx0jg+plfSfO/lhif6hnd9XOAbf+99qY9L55Pn1vUQo3RocPwE=);strokeColor=none;spacingTop=-3;spacingBottom=-3;spacingLeft=-3;spacingRight=-3;labelBackgroundColor=none;rounded=0;html=1;whiteSpace=wrap;" parent="EulCbl3LE-ToeLQa1urC-14" vertex="1">
                    <mxGeometry x="12" y="32" width="24" height="12" as="geometry"/>
                </mxCell>
                <mxCell id="EulCbl3LE-ToeLQa1urC-22" value="" style="aspect=fixed;html=1;points=[];align=center;image;fontSize=12;image=img/lib/azure2/security/Security_Center.svg;rounded=0;sketch=0;strokeColor=#457B9D;fillColor=#A8DADC;" parent="EulCbl3LE-ToeLQa1urC-14" vertex="1">
                    <mxGeometry x="36" y="16" width="27.18" height="33" as="geometry"/>
                </mxCell>
                <mxCell id="EulCbl3LE-ToeLQa1urC-23" value="" style="aspect=fixed;html=1;points=[];align=center;image;fontSize=12;image=img/lib/azure2/storage/Storage_Accounts.svg;labelBackgroundColor=#F1FAEE;fillColor=#A8DADC;strokeColor=#457B9D;fontColor=#1D3557;" parent="EulCbl3LE-ToeLQa1urC-3" vertex="1">
                    <mxGeometry x="421" y="261" width="48.75" height="39" as="geometry"/>
                </mxCell>
                <mxCell id="EulCbl3LE-ToeLQa1urC-24" value="" style="aspect=fixed;html=1;points=[];align=center;image;fontSize=12;image=img/lib/azure2/security/Security_Center.svg;rounded=0;sketch=0;strokeColor=#457B9D;fillColor=#A8DADC;" parent="EulCbl3LE-ToeLQa1urC-3" vertex="1">
                    <mxGeometry x="456.91" y="276.05" width="27.18" height="33" as="geometry"/>
                </mxCell>
                <mxCell id="EulCbl3LE-ToeLQa1urC-25" value="&lt;font style=&quot;color: rgb(60 , 60 , 65) ; direction: ltr ; letter-spacing: 0px ; line-height: 120% ; opacity: 1&quot;&gt;&lt;font face=&quot;segoe ui&quot;&gt;&lt;span style=&quot;font-size: 14px&quot;&gt;Windows VM&lt;/span&gt;&lt;/font&gt;&lt;br&gt;&lt;/font&gt;" style="text;vsdxID=1620;fillColor=none;gradientColor=none;strokeColor=none;spacingTop=-3;spacingBottom=-3;spacingLeft=-3;spacingRight=-3;labelBackgroundColor=none;rounded=0;html=1;whiteSpace=wrap;verticalAlign=middle;align=center;;html=1;" parent="EulCbl3LE-ToeLQa1urC-3" vertex="1">
                    <mxGeometry x="414" y="141" width="88.68" height="22.91" as="geometry"/>
                </mxCell>
                <mxCell id="EulCbl3LE-ToeLQa1urC-26" value="&lt;font style=&quot;color: rgb(60 , 60 , 65) ; direction: ltr ; letter-spacing: 0px ; line-height: 120% ; opacity: 1&quot;&gt;&lt;font face=&quot;segoe ui&quot;&gt;&lt;span style=&quot;font-size: 14px&quot;&gt;Linux VM&lt;/span&gt;&lt;/font&gt;&lt;br&gt;&lt;/font&gt;" style="text;vsdxID=1620;fillColor=none;gradientColor=none;strokeColor=none;spacingTop=-3;spacingBottom=-3;spacingLeft=-3;spacingRight=-3;labelBackgroundColor=none;rounded=0;html=1;whiteSpace=wrap;verticalAlign=middle;align=center;;html=1;" parent="EulCbl3LE-ToeLQa1urC-3" vertex="1">
                    <mxGeometry x="401.04" y="51" width="88.68" height="28.91" as="geometry"/>
                </mxCell>
                <mxCell id="EulCbl3LE-ToeLQa1urC-27" value="&lt;font style=&quot;color: rgb(60 , 60 , 65) ; direction: ltr ; letter-spacing: 0px ; line-height: 120% ; opacity: 1&quot;&gt;&lt;font face=&quot;segoe ui&quot;&gt;&lt;span style=&quot;font-size: 14px&quot;&gt;Storage Account&lt;/span&gt;&lt;/font&gt;&lt;br&gt;&lt;/font&gt;" style="text;vsdxID=1620;fillColor=none;gradientColor=none;strokeColor=none;spacingTop=-3;spacingBottom=-3;spacingLeft=-3;spacingRight=-3;labelBackgroundColor=none;rounded=0;html=1;whiteSpace=wrap;verticalAlign=middle;align=center;;html=1;" parent="EulCbl3LE-ToeLQa1urC-3" vertex="1">
                    <mxGeometry x="421" y="238.08999999999997" width="99" height="22.91" as="geometry"/>
                </mxCell>
                <mxCell id="EulCbl3LE-ToeLQa1urC-28" value="" style="aspect=fixed;html=1;points=[];align=center;image;fontSize=12;image=img/lib/azure2/management_governance/Automation_Accounts.svg;labelBackgroundColor=#F1FAEE;fillColor=#A8DADC;strokeColor=#457B9D;fontColor=#1D3557;" parent="EulCbl3LE-ToeLQa1urC-3" vertex="1">
                    <mxGeometry x="237.37" y="295.05" width="50" height="50" as="geometry"/>
                </mxCell>
                <mxCell id="EulCbl3LE-ToeLQa1urC-115" value="" style="aspect=fixed;html=1;points=[];align=center;image;fontSize=12;image=img/lib/azure2/storage/Storage_Accounts.svg;labelBackgroundColor=#F1FAEE;fillColor=#A8DADC;strokeColor=#457B9D;fontColor=#1D3557;" parent="EulCbl3LE-ToeLQa1urC-3" vertex="1">
                    <mxGeometry x="421" y="357.90999999999997" width="48.75" height="39" as="geometry"/>
                </mxCell>
                <mxCell id="EulCbl3LE-ToeLQa1urC-116" value="" style="aspect=fixed;html=1;points=[];align=center;image;fontSize=12;image=img/lib/azure2/security/Security_Center.svg;rounded=0;sketch=0;strokeColor=#457B9D;fillColor=#A8DADC;" parent="EulCbl3LE-ToeLQa1urC-3" vertex="1">
                    <mxGeometry x="455" y="373.90999999999997" width="27.18" height="33" as="geometry"/>
                </mxCell>
                <mxCell id="EulCbl3LE-ToeLQa1urC-117" value="&lt;font style=&quot;color: rgb(60 , 60 , 65) ; direction: ltr ; letter-spacing: 0px ; line-height: 120% ; opacity: 1&quot;&gt;&lt;font face=&quot;segoe ui&quot;&gt;&lt;span style=&quot;font-size: 14px&quot;&gt;Storage Account Archive&lt;/span&gt;&lt;/font&gt;&lt;br&gt;&lt;/font&gt;" style="text;vsdxID=1620;fillColor=none;gradientColor=none;strokeColor=none;spacingTop=-3;spacingBottom=-3;spacingLeft=-3;spacingRight=-3;labelBackgroundColor=none;rounded=0;html=1;whiteSpace=wrap;verticalAlign=middle;align=center;;html=1;" parent="EulCbl3LE-ToeLQa1urC-3" vertex="1">
                    <mxGeometry x="421" y="332" width="99" height="22.91" as="geometry"/>
                </mxCell>
                <mxCell id="EulCbl3LE-ToeLQa1urC-29" style="vsdxID=1469;fillColor=#ffffff;gradientColor=none;shape=stencil(nZBLDsIwDAVP4y0yzoIDlHIBThARQyxCUqXhe3rSukhVFyy6s98by9KAaXpvOwbCvuR05ae44sHsgUii5yylTmBaMM05Zb7kdI9O985WknBM2OnNdqAJbT4d5cNTRpudxnp3S4/h30tb1Oo9saj7QdEgcYb+ylXwH3QluHhfh9GIupIQVOi8Xxqskdo37Rc=);strokeColor=#0078d4;strokeWidth=2;labelBackgroundColor=none;rounded=1;html=1;whiteSpace=wrap;" parent="EulCbl3LE-ToeLQa1urC-3" vertex="1">
                    <mxGeometry x="41" y="269.05" width="127" height="111" as="geometry"/>
                </mxCell>
                <mxCell id="EulCbl3LE-ToeLQa1urC-47" value="&lt;font style=&quot;font-size:14px;font-family:Segoe UI;color:#3c3c41;direction:ltr;letter-spacing:0px;line-height:120%;opacity:1&quot;&gt;Azure Sentinel&lt;br/&gt;(SIEM &amp;amp; SOAR)&lt;/font&gt;&lt;font style=&quot;font-size:16px;font-family:Themed;color:#3c3c41;direction:ltr;letter-spacing:0px;line-height:120%;opacity:1&quot;&gt;&lt;br/&gt;&lt;/font&gt;" style="text;vsdxID=1430;fillColor=none;gradientColor=none;strokeColor=none;spacingTop=-3;spacingBottom=-3;spacingLeft=-3;spacingRight=-3;labelBackgroundColor=none;rounded=0;html=1;whiteSpace=wrap;verticalAlign=middle;align=center;;html=1;" parent="EulCbl3LE-ToeLQa1urC-3" vertex="1">
                    <mxGeometry x="44.17999999999995" y="326.96000000000004" width="123.82" height="53.09" as="geometry"/>
                </mxCell>
                <mxCell id="EulCbl3LE-ToeLQa1urC-42" style="vsdxID=1430;fillColor=none;gradientColor=none;strokeColor=none;spacingTop=-3;spacingBottom=-3;spacingLeft=-3;spacingRight=-3;labelBackgroundColor=none;rounded=0;html=1;whiteSpace=wrap;" parent="EulCbl3LE-ToeLQa1urC-3" vertex="1">
                    <mxGeometry x="81" y="291.00000000000006" width="143" height="199.99999999999994" as="geometry"/>
                </mxCell>
                <mxCell id="EulCbl3LE-ToeLQa1urC-43" style="vsdxID=1431;fillColor=#1b93eb;gradientColor=none;shape=stencil(vZRRb4QgDMc/jY8SoALH8+32PcgdKpnTC3o79+2Hg5tWM5cs2d7g39KWX5tmcOxrc7UZp/3guxd7d5ehzuAp49y1tfVuCKcMThkcy87byne39hLvVzN5TqfX7m2KMMZ3jNLpDafv8V5IIvWn8hzdzzcf/dn6QRIUECGjNPIoSUpEckqKFoQnH4iKYERDckqS1kSyZW7jz8HsU6lA6CE+8KlYTkSRoqbqD0QW6D9zTDrmZnR97rvBDK5roz19pjG+snnIl5eNqZCpv1t7Xchsjw5oojTms/g6R4EfbCaAmA3FXDY9aVy7aCFuICsIiD2IrNhA1Ahi4KxwSEaU/EeGxVwA+6qAMQyRK0yRrsZrxZDuZVSA01GcSop5VPm2oMf0ynn2YA3ut70I46vYN/39k2bg0fpxO4TDvFlK1zRxMS3t600UpLjF4PQB);strokeColor=none;spacingTop=-3;spacingBottom=-3;spacingLeft=-3;spacingRight=-3;labelBackgroundColor=none;rounded=0;html=1;whiteSpace=wrap;" parent="EulCbl3LE-ToeLQa1urC-42" vertex="1">
                    <mxGeometry width="33" height="40" as="geometry"/>
                </mxCell>
                <mxCell id="EulCbl3LE-ToeLQa1urC-44" style="vsdxID=1432;fillColor=#0078d4;gradientColor=none;shape=stencil(vZTNcoIwEMefhiM7yS4Ecrb6HhlFzZSCE7DSt29ogma1taf2Fv77/VtmM1oNR3NqMhTD6PrX5mJ34zGjlwzRdsfG2dG/MlpntNr3rjm4/tztwvfJzJ7z661/nzNMIU5r0DhHofgISqGg/hI2wX97diFAPkZEqSJQOkgTBkkJwMUrSroErKIXBamUoGT0omt6hWl947be7GK/BLIMAS72i1AuWeMANRAf6ZZTTLmZ7JC7fjSj7btgF8HWGndocl8v37fmwEzDpWlOiSyfESINFQeUjo4s8QInRUjcg77fS2u7ZI+CDSwLqPQziHGABKIiBhFB1zylhOo/GRLUxCH6DoTkEFFBUXGQgkMs/N+qOEjxrK7fQ1HyuoLXVOraxlLTd3b/Z2sFuuR1bwR/WsrDThbgMYF42DLWf7cS/oP9fij843Zl9rZtw5FK7fdXyUvhotH6Ew==);strokeColor=none;spacingTop=-3;spacingBottom=-3;spacingLeft=-3;spacingRight=-3;labelBackgroundColor=none;rounded=0;html=1;whiteSpace=wrap;" parent="EulCbl3LE-ToeLQa1urC-42" vertex="1">
                    <mxGeometry x="1" y="1" width="30" height="37" as="geometry"/>
                </mxCell>
                <mxCell id="EulCbl3LE-ToeLQa1urC-45" style="vsdxID=1433;fillColor=#c3f1ff;gradientColor=none;shape=stencil(xZTbcoMgEIafhkt3OIjCdZq+B9OgMrXioGns2xcK00rSpL2Ik7tlD/DtzvIjtps6NWpE8TQ7+6pP5jB3iD0hSs3QaWdmbyG2R2zXWKdbZ4/DIZ5HFTKD9Wbfww1LrOM4lFD8EY8lB0K+PM8xW7kXH3Upm9bAy1jgUgXngGV0paS6BsKzWyUFljxLoRYzFc7OajZ2iPHE0CvX6sK/WDS9arPQdNJ6XLlvMJZQyRxRAhMZoSAgyoyQYHxXPrzm682wmrjkEGK/PH6tHXHRTp218w2fEoQEUW3XTs7HMdCzeXse4PlOPBDwHwMsoRaPWgcigFR3XQdKQWz9/24QBo1glxqRM16VnU0EIp/4X5LnjR+1bEzfR7Fdx8/V1buiMrP9Jw==);strokeColor=none;spacingTop=-3;spacingBottom=-3;spacingLeft=-3;spacingRight=-3;labelBackgroundColor=none;rounded=0;html=1;whiteSpace=wrap;" parent="EulCbl3LE-ToeLQa1urC-42" vertex="1">
                    <mxGeometry x="4" y="8" width="24" height="12" as="geometry"/>
                </mxCell>
                <mxCell id="EulCbl3LE-ToeLQa1urC-46" style="vsdxID=1434;fillColor=#FFFFFF;gradientColor=none;shape=stencil(vVHLDsIgEPwajiQI6RfU+h8bu22JCGRB2/69kG1iazx58DazM/vIjjBtmiCi0CplCjecbZ8nYc5Ca+snJJsLEqYTph0C4Ujh4XvmEaqzont41gkL96naodXKrGF6YSfQtUi0OXXDVlqPfJNP6usotUhYbJIUMmQb/GGrAxpRljVycDBuc1hKM2LclX8/7H9nFfB+82Cd45T2+mcspcSRmu4F);strokeColor=none;spacingTop=-3;spacingBottom=-3;spacingLeft=-3;spacingRight=-3;labelBackgroundColor=none;rounded=0;html=1;whiteSpace=wrap;" parent="EulCbl3LE-ToeLQa1urC-42" vertex="1">
                    <mxGeometry x="12" y="16" width="9" height="9" as="geometry"/>
                </mxCell>
                <mxCell id="EulCbl3LE-ToeLQa1urC-121" value="&lt;font style=&quot;color: rgb(60 , 60 , 65) ; direction: ltr ; letter-spacing: 0px ; line-height: 120% ; opacity: 1&quot;&gt;&lt;font face=&quot;segoe ui&quot;&gt;&lt;span style=&quot;font-size: 14px&quot;&gt;Automation Account&lt;/span&gt;&lt;/font&gt;&lt;br&gt;&lt;/font&gt;" style="text;vsdxID=1620;fillColor=none;gradientColor=none;strokeColor=none;spacingTop=-3;spacingBottom=-3;spacingLeft=-3;spacingRight=-3;labelBackgroundColor=none;rounded=0;html=1;whiteSpace=wrap;verticalAlign=middle;align=center;;html=1;" parent="EulCbl3LE-ToeLQa1urC-3" vertex="1">
                    <mxGeometry x="209.86999999999998" y="357.14000000000004" width="99" height="22.91" as="geometry"/>
                </mxCell>
                <mxCell id="EulCbl3LE-ToeLQa1urC-49" style="vsdxID=1874;fillColor=#ffffff;gradientColor=none;shape=stencil(nZBLDsIwDAVP4y0yzoIDlHIBThARQyxCUqXhe3rSukhVFyy6s98by9KAaXpvOwbCvuR05ae44sHsgUii5yylTmBaMM05Zb7kdI9O985WknBM2OnNdqAJbT4d5cNTRpudxnp3S4/h30tb1Oo9saj7QdEgcYb+ylXwH3QluHhfh9GIupIQVOi8Xxqskdo37Rc=);strokeColor=#0078d4;strokeWidth=2;labelBackgroundColor=none;rounded=1;html=1;whiteSpace=wrap;" parent="EulCbl3LE-ToeLQa1urC-3" vertex="1">
                    <mxGeometry x="38" y="51" width="127" height="111" as="geometry"/>
                </mxCell>
                <mxCell id="EulCbl3LE-ToeLQa1urC-108" value="" style="aspect=fixed;html=1;points=[];align=center;image;fontSize=12;image=img/lib/azure2/security/Security_Center.svg;rounded=0;sketch=0;strokeColor=#457B9D;fillColor=#A8DADC;connectable=1;" parent="EulCbl3LE-ToeLQa1urC-3" vertex="1">
                    <mxGeometry x="81" y="71" width="37.89" height="46" as="geometry"/>
                </mxCell>
                <mxCell id="bRuFRhwKxHo6qi5xH5AQ-26" value="" style="rounded=0;whiteSpace=wrap;html=1;shadow=0;glass=0;sketch=0;opacity=80;" vertex="1" parent="EulCbl3LE-ToeLQa1urC-3">
                    <mxGeometry x="11" y="21" width="189" height="389" as="geometry"/>
                </mxCell>
                <mxCell id="EulCbl3LE-ToeLQa1urC-30" style="vsdxID=1711;edgeStyle=none;startArrow=none;endArrow=block;startSize=5;endSize=5;strokeWidth=2;strokeColor=#0078d4;spacingTop=0;spacingBottom=0;spacingLeft=0;spacingRight=0;verticalAlign=middle;html=1;labelBackgroundColor=#ffffff;rounded=0;" parent="EulCbl3LE-ToeLQa1urC-1" edge="1">
                    <mxGeometry relative="1" as="geometry">
                        <Array as="points"/>
                        <mxPoint x="302" y="271" as="sourcePoint"/>
                        <mxPoint x="369" y="271" as="targetPoint"/>
                    </mxGeometry>
                </mxCell>
                <mxCell id="EulCbl3LE-ToeLQa1urC-31" style="vsdxID=1420;fillColor=none;gradientColor=none;shape=stencil(nZBLDoAgDERP0z3SIyjew0SURgSD+Lu9kMZoXLhwN9O+tukAlrNpJg1SzDH4QW/URgNYgZTkjA4UkwJUgGXng+6DX1zLfmoymdXo17xh5zmRJ6Q42BWCfc2oJfdAr+Yv+AP9Cb7OJ3H/2JG1HNGz/84klThPVCc=);dashed=1;dashPattern=1.00 2.00;strokeColor=#3c3c41;strokeWidth=2;labelBackgroundColor=none;rounded=0;html=1;whiteSpace=wrap;" parent="EulCbl3LE-ToeLQa1urC-1" vertex="1">
                    <mxGeometry x="47" y="366" width="403" height="214" as="geometry"/>
                </mxCell>
                <mxCell id="EulCbl3LE-ToeLQa1urC-32" value="&lt;font style=&quot;font-size:19px;font-family:Segoe UI Semibold;color:#000000;direction:ltr;letter-spacing:0px;line-height:120%;opacity:1&quot;&gt;On-premises&lt;br/&gt;&lt;/font&gt;" style="text;vsdxID=1420;fillColor=none;gradientColor=none;dashed=1;dashPattern=1.00 2.00;strokeColor=none;strokeWidth=2;labelBackgroundColor=none;rounded=0;html=1;whiteSpace=wrap;verticalAlign=middle;align=center;;html=1;" parent="EulCbl3LE-ToeLQa1urC-31" vertex="1">
                    <mxGeometry y="-32.15" width="252.18" height="30.48" as="geometry"/>
                </mxCell>
                <mxCell id="EulCbl3LE-ToeLQa1urC-33" style="vsdxID=1671;fillColor=none;gradientColor=none;strokeColor=none;spacingTop=-3;spacingBottom=-3;spacingLeft=-3;spacingRight=-3;labelBackgroundColor=none;rounded=0;html=1;whiteSpace=wrap;" parent="EulCbl3LE-ToeLQa1urC-31" vertex="1">
                    <mxGeometry x="107.5" y="19" width="42.18" height="60" as="geometry"/>
                </mxCell>
                <mxCell id="EulCbl3LE-ToeLQa1urC-34" style="vsdxID=1672;fillColor=none;gradientColor=none;strokeColor=none;spacingTop=-3;spacingBottom=-3;spacingLeft=-3;spacingRight=-3;labelBackgroundColor=none;rounded=0;html=1;whiteSpace=wrap;" parent="EulCbl3LE-ToeLQa1urC-33" vertex="1">
                    <mxGeometry width="42.18" height="60" as="geometry"/>
                </mxCell>
                <mxCell id="EulCbl3LE-ToeLQa1urC-35" style="vsdxID=1673;fillColor=#949494;gradientColor=none;shape=stencil(lZPdcoMgEIWfhtsd2BUr12nyHpnEVCZWM8T8vX21oLLEpu0dHM+ynwdW0OpcbU+lQHnuXHssb3bfVYLeBaJtqtLZrl8JWgtaHVpXfrj20uz9/rQdnMPqs70OJ9x9nZJyqEH58HuTg8ZvZePtu4vzfpUWBMEUkPkKeccgvQGp4BolA0UWXBSkDKQJLuKHh961bSJUDUYx1sSdkiLkhqNO7COoTCCjXyHuoB/i4Yg8S4KseAWYBKlAFxwPJ5yRUILKOaCGXHPGl6FEdk4x9oxS5iHNDSfDUkMeSHzHf6CLH84y3vz88Ck1Si20fA8c8dcJ+Ke9X8zDdrB17Wc1/p4OZy/5wab1Fw==);strokeColor=none;strokeWidth=17;spacingTop=-3;spacingBottom=-3;spacingLeft=-3;spacingRight=-3;labelBackgroundColor=none;rounded=0;html=1;whiteSpace=wrap;" parent="EulCbl3LE-ToeLQa1urC-34" vertex="1">
                    <mxGeometry width="28" height="48" as="geometry"/>
                </mxCell>
                <mxCell id="EulCbl3LE-ToeLQa1urC-36" style="vsdxID=1674;fillColor=#003067;gradientColor=none;shape=stencil(jZTRcoMgEEW/htcd3EWQ5zT5j0xiKlOrGWPa5O+rBSustfUN1rPeO3sBQbtbdbyWAuWt79q38tOd+0rQi0B0TVV2rh9WgvaCdpe2K1+79t6c/f56HMlx9d5+jH94+D45dqB8+l0uQeN35eDh073zdJbiYYsESvvSA31Jg1EBCpUMkAJDoaLAFgEiBgXh2jWRy0IBmsQp57lRi5BnqVmZGrUWNKVOEQGRWZUyNaosUPGX8tyR8Y4f7ZlBPvh15UU46YxmfmOWC6PGgGFGLQFqFufUNhktcpDI0gzMinLcwc1MykPkmh+khXLE/K7MRhSdu01Go8O85pMFGc+QUmJbjP+EOCzmq3xxde1fgvg7v/pDyT8btP8C);strokeColor=none;strokeWidth=17;spacingTop=-3;spacingBottom=-3;spacingLeft=-3;spacingRight=-3;labelBackgroundColor=none;rounded=0;html=1;whiteSpace=wrap;" parent="EulCbl3LE-ToeLQa1urC-34" vertex="1">
                    <mxGeometry x="4" y="13" width="20" height="6" as="geometry"/>
                </mxCell>
                <mxCell id="EulCbl3LE-ToeLQa1urC-37" style="vsdxID=1675;fillColor=#003067;gradientColor=none;shape=stencil(jZTRcoMgEEW/htcd3CUgz2nyH5nGVKZWM8S06d9XC0bY1NQ3WO96z+wFBG0v9eFcCZSX3nfv1Zc79rWgF4Ho2rryrh9WgnaCtqfOV2++u7bHsD8fRuW4+ug+xz/cQp8cO1B+h91Ggsbfyj6IX68+qItcHrdIoHQo3TCUNBgVRbFSAFLUUKwosGUUERNF48a1CWWpAE1GyvUc1CJsihxW5qDWgqacFBEQGaqUOaiyQOUz57mj4B1371mDfPDLzg/h5DOa9SuzfAA1BgwDtQSoWZxT2wQ6hKNVjjppFpzTDg4zOaeRP3G+a/52ZiNKzt0q0OQwL3GyINMZUq5YF+M/IQ6L+SqfXNOElyD9zq/+UArPBu1+AA==);strokeColor=none;strokeWidth=17;spacingTop=-3;spacingBottom=-3;spacingLeft=-3;spacingRight=-3;labelBackgroundColor=none;rounded=0;html=1;whiteSpace=wrap;" parent="EulCbl3LE-ToeLQa1urC-34" vertex="1">
                    <mxGeometry x="4" y="4" width="20" height="6" as="geometry"/>
                </mxCell>
                <mxCell id="EulCbl3LE-ToeLQa1urC-38" style="vsdxID=1676;fillColor=#50e6ff;gradientColor=none;shape=stencil(vVHLDsIgEPwajiQI6RfU+h8bu22JCGRB2/69kG1iazx58DazM/vIjjBtmiCi0CplCjecbZ8nYc5Ca+snJJsLEqYTph0C4Ujh4XvmEaqzont41gkL96naodXKrGF6YSfQtUi0OXXDVlqPfJNP6usotUhYbJIUMmQb/GGrAxpRljVycDBuc1hKM2LclX8/7H9nFfB+82Cd45T2+mcspcSRmu4F);strokeColor=none;strokeWidth=17;spacingTop=-3;spacingBottom=-3;spacingLeft=-3;spacingRight=-3;labelBackgroundColor=none;rounded=0;html=1;whiteSpace=wrap;" parent="EulCbl3LE-ToeLQa1urC-34" vertex="1">
                    <mxGeometry x="5" y="5" width="4" height="4" as="geometry"/>
                </mxCell>
                <mxCell id="EulCbl3LE-ToeLQa1urC-39" style="vsdxID=1677;fillColor=#50e6ff;gradientColor=none;shape=stencil(vVHLDsIgEPwajiQI6RfU+h8bu22JCGRB2/69kG1iazx58DazM/vIjjBtmiCi0CplCjecbZ8nYc5Ca+snJJsLEqYTph0C4Ujh4XvmEaqzont41gkL96naodXKrGF6YSfQtUi0OXXDVlqPfJNP6usotUhYbJIUMmQb/GGrAxpRljVycDBuc1hKM2LclX8/7H9nFfB+82Cd45T2+mcspcSRmu4F);strokeColor=none;strokeWidth=17;spacingTop=-3;spacingBottom=-3;spacingLeft=-3;spacingRight=-3;labelBackgroundColor=none;rounded=0;html=1;whiteSpace=wrap;" parent="EulCbl3LE-ToeLQa1urC-34" vertex="1">
                    <mxGeometry x="5" y="14" width="4" height="4" as="geometry"/>
                </mxCell>
                <mxCell id="EulCbl3LE-ToeLQa1urC-40" value="" style="aspect=fixed;html=1;points=[];align=center;image;fontSize=12;image=img/lib/azure2/security/Security_Center.svg;rounded=0;sketch=0;strokeColor=#457B9D;fillColor=#A8DADC;" parent="EulCbl3LE-ToeLQa1urC-34" vertex="1">
                    <mxGeometry x="15" y="27" width="27.18" height="33" as="geometry"/>
                </mxCell>
                <mxCell id="EulCbl3LE-ToeLQa1urC-41" value="&lt;font style=&quot;font-size: 14px ; font-family: &amp;#34;segoe ui&amp;#34; ; color: #000000 ; direction: ltr ; letter-spacing: 0px ; line-height: 120% ; opacity: 1&quot;&gt;Other systems agent&lt;br&gt;installed&lt;br&gt;&lt;/font&gt;" style="verticalAlign=middle;align=center;vsdxID=1879;fillColor=none;gradientColor=none;shape=stencil(nZBLDoAgDERP0z3SIyjew0SURgSD+Lu9kMZoXLhwN9O+tukAlrNpJg1SzDH4QW/URgNYgZTkjA4UkwJUgGXng+6DX1zLfmoymdXo17xh5zmRJ6Q42BWCfc2oJfdAr+Yv+AP9Cb7OJ3H/2JG1HNGz/84klThPVCc=);strokeColor=none;labelBackgroundColor=none;rounded=0;html=1;whiteSpace=wrap;" parent="EulCbl3LE-ToeLQa1urC-31" vertex="1">
                    <mxGeometry x="57.5" y="83" width="139" height="54" as="geometry"/>
                </mxCell>
                <mxCell id="EulCbl3LE-ToeLQa1urC-52" style="vsdxID=1595;fillColor=none;gradientColor=none;shape=stencil(nZBLDoAgDERP0z3SIyjew0SURgSD+Lu9kMZoXLhwN9O+tukAlrNpJg1SzDH4QW/URgNYgZTkjA4UkwJUgGXng+6DX1zLfmoymdXo17xh5zmRJ6Q42BWCfc2oJfdAr+Yv+AP9Cb7OJ3H/2JG1HNGz/84klThPVCc=);strokeColor=none;labelBackgroundColor=none;rounded=0;html=1;whiteSpace=wrap;" parent="EulCbl3LE-ToeLQa1urC-31" vertex="1">
                    <mxGeometry x="-7" y="-266" width="410" height="480" as="geometry"/>
                </mxCell>
                <mxCell id="EulCbl3LE-ToeLQa1urC-53" value="&lt;font style=&quot;font-size: 19px ; font-family: &amp;#34;segoe ui semibold&amp;#34; ; color: #000000 ; direction: ltr ; letter-spacing: 0px ; line-height: 120% ; opacity: 1&quot;&gt;AWS, GCPother cloud providers, and SaaS apps &lt;br&gt;&lt;/font&gt;" style="text;vsdxID=1595;fillColor=none;gradientColor=none;strokeColor=none;labelBackgroundColor=none;rounded=0;html=1;whiteSpace=wrap;verticalAlign=middle;align=center;;html=1;" parent="EulCbl3LE-ToeLQa1urC-52" vertex="1">
                    <mxGeometry y="-46.69" width="254" height="52.35" as="geometry"/>
                </mxCell>
                <mxCell id="EulCbl3LE-ToeLQa1urC-50" style="vsdxID=1918;dashed=1;dashPattern=1.00 2.00;strokeWidth=2;spacingTop=-3;spacingBottom=-3;spacingLeft=-3;spacingRight=-3;labelBackgroundColor=none;rounded=0;html=1;whiteSpace=wrap;opacity=10;fillColor=#FFFFFF;" parent="EulCbl3LE-ToeLQa1urC-52" vertex="1">
                    <mxGeometry y="40" width="254" height="180" as="geometry"/>
                </mxCell>
                <mxCell id="EulCbl3LE-ToeLQa1urC-51" style="vsdxID=1919;fillColor=#ffffff;gradientColor=none;shape=stencil(vZTNcsIgEMefJsfsAJsAOVt9D0ZRmaaJQ2K1b19SMLrYTk/mRvaD/WX57xa4Go7mZAvBhtH37/biduOxwLdCCNcdrXdjOBW4LnC17709+P7c7eL3yUyR0+mj/5xuuMY8ztiUI9hX/JYapP6xbGK48dvg9SlcCKhkTPApAznIJppSkGZQk0tRg+AppDRXN5S+H83o+i76E0Jr/MGWoWC5b82BuIaLtacn8++IGpBniA00NUGsOWBFGNlifA2wmvJVDBraQoFQa8InJKjleihB5z1UoJEwZsJB4PVifGoWlL9rDLMeauCKMM5ifwXh9uzjYPHbO6faPC8uZiHo25wkUxOEmmR5xfRfDORNqThHpcRUunXdw0grCYJq+ymBdrMClc100JogvVQKqqc75WLPLUBV2XMLYJog/r3JXkJIe/7vGg2H+wreu7aNG/zRn6/sYIrrHtff);dashed=1;dashPattern=1.00 2.00;strokeColor=#75757a;strokeWidth=2;spacingTop=-3;spacingBottom=-3;spacingLeft=-3;spacingRight=-3;labelBackgroundColor=none;rounded=0;html=1;whiteSpace=wrap;" parent="EulCbl3LE-ToeLQa1urC-50" vertex="1">
                    <mxGeometry width="254" height="180" as="geometry"/>
                </mxCell>
                <mxCell id="bRuFRhwKxHo6qi5xH5AQ-14" style="vsdxID=1894;fillColor=none;gradientColor=none;strokeColor=none;spacingTop=-3;spacingBottom=-3;spacingLeft=-3;spacingRight=-3;labelBackgroundColor=none;rounded=0;html=1;whiteSpace=wrap;imageAspect=0;" vertex="1" parent="EulCbl3LE-ToeLQa1urC-50">
                    <mxGeometry x="70" y="64" width="63.18" height="49" as="geometry"/>
                </mxCell>
                <mxCell id="bRuFRhwKxHo6qi5xH5AQ-15" style="vsdxID=1895;fillColor=#0078d4;gradientColor=none;shape=stencil(vVNLDsIgED0NSwxCrOm61nsQS1siQjOgrbeXCtH+4sIm3c3Me8P8eIhltuaNQJRYB+YqWlm4GrETolTqWoB03kIsRywrDYgKzF0XwW94z+ytm3n0L3Qhj/QZlDyDlx7e7jkwOVw8BJHJdowFMkR2IJMZHuE9iY93mHfSYjCOO2n0qLDiUAnsK+FS8WoE2VaIZhaOvSmpB1OkyS45Lhb/a5RP5+O1bDDItPKKe8x3stk5Zl9hxS2W9rHBCL904Y2vnEqpVFDjEJ/Kz4eCdFn+Ag==);strokeColor=none;spacingTop=-3;spacingBottom=-3;spacingLeft=-3;spacingRight=-3;labelBackgroundColor=none;rounded=0;html=1;whiteSpace=wrap;" vertex="1" parent="bRuFRhwKxHo6qi5xH5AQ-14">
                    <mxGeometry width="49" height="32" as="geometry"/>
                </mxCell>
                <mxCell id="bRuFRhwKxHo6qi5xH5AQ-16" style="vsdxID=1896;fillColor=#50e6ff;gradientColor=none;shape=stencil(lZHBCsIwEES/Zq8lZqR4r/U/Ck3NYkxKGq3+vQmLaAWl3mY2b5ZlQmgm242GtJpSDCczc58sYU9as7cmcsqK0BKaIURzjOHie/FjV8iizuFaNtwkt1GqZLS6ixd3ENSx/4HWdbXdfceX8DO8AgUqYP0Zf1y8QLN4lTKwc9Lp+/tniXkkH4D2AQ==);strokeColor=none;spacingTop=-3;spacingBottom=-3;spacingLeft=-3;spacingRight=-3;labelBackgroundColor=none;rounded=0;html=1;whiteSpace=wrap;" vertex="1" parent="bRuFRhwKxHo6qi5xH5AQ-14">
                    <mxGeometry x="24" y="11" width="8" height="14" as="geometry"/>
                </mxCell>
                <mxCell id="bRuFRhwKxHo6qi5xH5AQ-17" style="vsdxID=1897;fillColor=#c3f1ff;gradientColor=none;shape=stencil(UzV2Ls5ILEhVNTIoLinKz04tz0wpyVA1dlE1MsrMy0gtyiwBslSNXVWNndPyi1LTi/JL81Ig/IJEkEoQKze/DGRCBUSfoYEBSI+RQSWEb2KpZ2EGFnGDKM/JzENSboqqGqYbq1pKDMZjLIkuJqgcyEAETlpmTg4kbJHl0QMTKASJCGNXAA==);strokeColor=none;spacingTop=-3;spacingBottom=-3;spacingLeft=-3;spacingRight=-3;labelBackgroundColor=none;rounded=0;html=1;whiteSpace=wrap;" vertex="1" parent="bRuFRhwKxHo6qi5xH5AQ-14">
                    <mxGeometry x="16" y="6" width="16" height="9" as="geometry"/>
                </mxCell>
                <mxCell id="bRuFRhwKxHo6qi5xH5AQ-18" style="vsdxID=1898;fillColor=#9cebff;gradientColor=none;shape=stencil(UzV2Ls5ILEhVNTIoLinKz04tz0wpyVA1dlE1MsrMy0gtyiwBslSNXVWNndPyi1LTi/JL81Ig/IJEkEoQKze/DGRCBUSfoYEBSI+RQSWEb2ysZ2oEFnGDKM/JzMOjHMbHqhhVqZmZnokFsYrxmEqhizGUAxmIwEnLzMmBhC2yPHpgAoUgEWHsCgA=);strokeColor=none;spacingTop=-3;spacingBottom=-3;spacingLeft=-3;spacingRight=-3;labelBackgroundColor=none;rounded=0;html=1;whiteSpace=wrap;" vertex="1" parent="bRuFRhwKxHo6qi5xH5AQ-14">
                    <mxGeometry x="16" y="11" width="8" height="14" as="geometry"/>
                </mxCell>
                <mxCell id="bRuFRhwKxHo6qi5xH5AQ-19" style="vsdxID=1899;fillColor=#c3f1ff;gradientColor=none;shape=stencil(UzV2Ls5ILEhVNTIoLinKz04tz0wpyVA1dlE1MsrMy0gtyiwBslSNXVWNndPyi1LTi/JL81Ig/IJEkEoQKze/DGRCBUSfAUiHkUElhGdiqWduCBZxgyjOycxDUmxogKrcgHilMD5WxSQ5goBiIAPh17TMnBxIUCHLo4cNUAgSrsauAA==);strokeColor=none;spacingTop=-3;spacingBottom=-3;spacingLeft=-3;spacingRight=-3;labelBackgroundColor=none;rounded=0;html=1;whiteSpace=wrap;" vertex="1" parent="bRuFRhwKxHo6qi5xH5AQ-14">
                    <mxGeometry x="16" y="16" width="8" height="9" as="geometry"/>
                </mxCell>
                <mxCell id="bRuFRhwKxHo6qi5xH5AQ-20" style="vsdxID=1900;fillColor=#9cebff;gradientColor=none;shape=stencil(UzV2Ls5ILEhVNTIoLinKz04tz0wpyVA1dlE1MsrMy0gtyiwBslSNXVWNndPyi1LTi/JL81Ig/IJEkEoQKze/DGRCBUSfoYEBSI+RQSWEb2KpZ24IFnGDKM/JzENSjqrYgFiFMFuwKiXRCQSVAxkI36Zl5uRAAgtZHj10gEKQkDV2BQA=);strokeColor=none;spacingTop=-3;spacingBottom=-3;spacingLeft=-3;spacingRight=-3;labelBackgroundColor=none;rounded=0;html=1;whiteSpace=wrap;" vertex="1" parent="bRuFRhwKxHo6qi5xH5AQ-14">
                    <mxGeometry x="24" y="16" width="8" height="9" as="geometry"/>
                </mxCell>
                <mxCell id="bRuFRhwKxHo6qi5xH5AQ-21" style="vsdxID=1901;fillColor=#0078d4;gradientColor=none;shape=stencil(vVPBbsMgDP0ajkGA06Q5d+1/oJYkaCxEhK7s70eG25Gk2qQddjPPz7xnyyZwmHo5KiLY5J19VTd98T2BFyKEHnrltI8RgSOBQ2ud6py9Dpf0HuXMnKM3+z7/EFJdwyjnc5VgHwmp97T8Ak6Jf766VMAxzygAVtwhQWGXoCASVDV0VyELobKkNUoF2LIQYrm20UPmFTLlJ+S1UdgazS2gK9HQql4azdtBVw3dN0uf6zFJd45Zh1Y5f4zVoVfBKbYacvP3VjjDdyhk0FPhrJde22HBNdJ1qohSRWtkt0hNN6XGDfx0jg+plfSfO/lhif6hnd9XOAbf+99qY9L55Pn1vUQo3RocPwE=);strokeColor=none;spacingTop=-3;spacingBottom=-3;spacingLeft=-3;spacingRight=-3;labelBackgroundColor=none;rounded=0;html=1;whiteSpace=wrap;" vertex="1" parent="bRuFRhwKxHo6qi5xH5AQ-14">
                    <mxGeometry x="12" y="32" width="24" height="12" as="geometry"/>
                </mxCell>
                <mxCell id="bRuFRhwKxHo6qi5xH5AQ-22" value="" style="aspect=fixed;html=1;points=[];align=center;image;fontSize=12;image=img/lib/azure2/security/Security_Center.svg;rounded=0;sketch=0;strokeColor=#457B9D;fillColor=#A8DADC;" vertex="1" parent="bRuFRhwKxHo6qi5xH5AQ-14">
                    <mxGeometry x="36" y="16" width="27.18" height="33" as="geometry"/>
                </mxCell>
                <mxCell id="EulCbl3LE-ToeLQa1urC-48" style="vsdxID=1839;edgeStyle=none;startArrow=none;endArrow=block;startSize=3;endSize=5;strokeWidth=2;strokeColor=#0078d4;spacingTop=0;spacingBottom=0;spacingLeft=0;spacingRight=0;verticalAlign=middle;html=1;labelBackgroundColor=#ffffff;rounded=0;" parent="EulCbl3LE-ToeLQa1urC-1" edge="1">
                    <mxGeometry relative="1" as="geometry">
                        <mxPoint x="-1" as="offset"/>
                        <Array as="points"/>
                        <mxPoint x="652" y="277" as="sourcePoint"/>
                        <mxPoint x="699" y="277" as="targetPoint"/>
                    </mxGeometry>
                </mxCell>
                <mxCell id="EulCbl3LE-ToeLQa1urC-54" style="vsdxID=1620;fillColor=none;gradientColor=none;strokeColor=none;spacingTop=-3;spacingBottom=-3;spacingLeft=-3;spacingRight=-3;labelBackgroundColor=none;rounded=0;html=1;whiteSpace=wrap;" parent="EulCbl3LE-ToeLQa1urC-1" vertex="1">
                    <mxGeometry x="704" y="242" width="75" height="71" as="geometry"/>
                </mxCell>
                <mxCell id="EulCbl3LE-ToeLQa1urC-55" style="vsdxID=1621;fillColor=#1988d9;gradientColor=none;shape=stencil(pVPbDoIwDP2aPUIGAyPPiP+x6IDFyUg3Bf/ekcXIGBGnb72c0562KSKlamnPUIqVBnlhAz/rFpEDSlPetQy4NhYiFSJlLYE1IG/d2fo9nZCTdZX3qcJoeTmJ9/nESvFjGTlaguDdjJBg/A/85a+CfTGBcE+MO+wuzpLvy2e7OAlQ48M3VhO0RxdckDgv5mAKJ5MFb054LCNbq8BjREeuIpCaai47p72g0LDINItqQRsnpQbGei+8OsvWGdyjuZObLef7kCMEEz4Ix78BPQnGeP9jzYWw7zzPL//XhOzvk+oJ);strokeColor=none;spacingTop=-3;spacingBottom=-3;spacingLeft=-3;spacingRight=-3;labelBackgroundColor=none;rounded=0;html=1;whiteSpace=wrap;" parent="EulCbl3LE-ToeLQa1urC-54" vertex="1">
                    <mxGeometry y="31" width="41" height="39" as="geometry"/>
                </mxCell>
                <mxCell id="EulCbl3LE-ToeLQa1urC-56" style="vsdxID=1622;fillColor=#198ab3;gradientColor=none;shape=stencil(vVLLDoIwEPyaHktKKzGcEf+jkQKNlZKlCvy9bZYgEGNMfNx2Z2cfsxkisq6WrSKcdQ7sWfW6cDURB8K5bmoF2vmIiJyIrLSgKrDXpsC8lYEZoou9hQkD9iUstHA2YorZEZkSTr4CE3OXRglyYZwRniI0cWK2HpewiMcTg8pBdxSsk07bZrmOGQmVon4dLY2sVqWuV6pdwPFnB27kzvf+4jqjm8Wjny9+g+pF7NOvqv6b5lfm8sHDk6U2Bi29rG897CH0v8jv);strokeColor=none;spacingTop=-3;spacingBottom=-3;spacingLeft=-3;spacingRight=-3;labelBackgroundColor=none;rounded=0;html=1;whiteSpace=wrap;" parent="EulCbl3LE-ToeLQa1urC-54" vertex="1">
                    <mxGeometry x="22" width="53" height="50" as="geometry"/>
                </mxCell>
                <mxCell id="EulCbl3LE-ToeLQa1urC-57" style="vsdxID=1623;fillColor=#FFFFFF;gradientColor=none;shape=stencil(nZBLDoAgDERP0z3SIyjew0SURgSD+Lu9kMZoXLhwN9O+tukAlrNpJg1SzDH4QW/URgNYgZTkjA4UkwJUgGXng+6DX1zLfmoymdXo17xh5zmRJ6Q42BWCfc2oJfdAr+Yv+AP9Cb7OJ3H/2JG1HNGz/84klThPVCc=);strokeColor=none;spacingTop=-3;spacingBottom=-3;spacingLeft=-3;spacingRight=-3;labelBackgroundColor=none;rounded=0;html=1;whiteSpace=wrap;" parent="EulCbl3LE-ToeLQa1urC-54" vertex="1">
                    <mxGeometry x="31" y="21" width="6" height="17" as="geometry"/>
                </mxCell>
                <mxCell id="EulCbl3LE-ToeLQa1urC-58" style="vsdxID=1624;fillColor=#FFFFFF;gradientColor=none;shape=stencil(nZBLDoAgDERP0z3SIyjew0SURgSD+Lu9kMZoXLhwN9O+tukAlrNpJg1SzDH4QW/URgNYgZTkjA4UkwJUgGXng+6DX1zLfmoymdXo17xh5zmRJ6Q42BWCfc2oJfdAr+Yv+AP9Cb7OJ3H/2JG1HNGz/84klThPVCc=);strokeColor=none;spacingTop=-3;spacingBottom=-3;spacingLeft=-3;spacingRight=-3;labelBackgroundColor=none;rounded=0;html=1;whiteSpace=wrap;" parent="EulCbl3LE-ToeLQa1urC-54" vertex="1">
                    <mxGeometry x="43" y="27" width="6" height="11" as="geometry"/>
                </mxCell>
                <mxCell id="EulCbl3LE-ToeLQa1urC-59" style="vsdxID=1625;fillColor=#FFFFFF;gradientColor=none;shape=stencil(nZBLDoAgDERP0z3SIyjew0SURgSD+Lu9kMZoXLhwN9O+tukAlrNpJg1SzDH4QW/URgNYgZTkjA4UkwJUgGXng+6DX1zLfmoymdXo17xh5zmRJ6Q42BWCfc2oJfdAr+Yv+AP9Cb7OJ3H/2JG1HNGz/84klThPVCc=);strokeColor=none;spacingTop=-3;spacingBottom=-3;spacingLeft=-3;spacingRight=-3;labelBackgroundColor=none;rounded=0;html=1;whiteSpace=wrap;" parent="EulCbl3LE-ToeLQa1urC-54" vertex="1">
                    <mxGeometry x="55" y="15" width="6" height="22" as="geometry"/>
                </mxCell>
                <mxCell id="EulCbl3LE-ToeLQa1urC-60" value="&lt;font style=&quot;font-size: 14px ; font-family: &amp;#34;segoe ui&amp;#34; ; color: #3c3c41 ; direction: ltr ; letter-spacing: 0px ; line-height: 120% ; opacity: 1&quot;&gt;&lt;b&gt;Log Analytics&lt;br&gt;workspace&lt;/b&gt;&lt;/font&gt;&lt;font style=&quot;font-size: 16px ; font-family: &amp;#34;themed&amp;#34; ; color: #3c3c41 ; direction: ltr ; letter-spacing: 0px ; line-height: 120% ; opacity: 1&quot;&gt;&lt;br&gt;&lt;/font&gt;" style="text;vsdxID=1620;fillColor=none;gradientColor=none;strokeColor=none;spacingTop=-3;spacingBottom=-3;spacingLeft=-3;spacingRight=-3;labelBackgroundColor=none;rounded=0;html=1;whiteSpace=wrap;verticalAlign=middle;align=center;;html=1;" parent="EulCbl3LE-ToeLQa1urC-54" vertex="1">
                    <mxGeometry x="-9.97" y="91.29" width="88.68" height="22.91" as="geometry"/>
                </mxCell>
                <mxCell id="EulCbl3LE-ToeLQa1urC-61" style="vsdxID=1894;fillColor=none;gradientColor=none;strokeColor=none;spacingTop=-3;spacingBottom=-3;spacingLeft=-3;spacingRight=-3;labelBackgroundColor=none;rounded=0;html=1;whiteSpace=wrap;imageAspect=0;" parent="EulCbl3LE-ToeLQa1urC-1" vertex="1">
                    <mxGeometry x="186" y="205" width="63.18" height="49" as="geometry"/>
                </mxCell>
                <mxCell id="EulCbl3LE-ToeLQa1urC-62" style="vsdxID=1895;fillColor=#0078d4;gradientColor=none;shape=stencil(vVNLDsIgED0NSwxCrOm61nsQS1siQjOgrbeXCtH+4sIm3c3Me8P8eIhltuaNQJRYB+YqWlm4GrETolTqWoB03kIsRywrDYgKzF0XwW94z+ytm3n0L3Qhj/QZlDyDlx7e7jkwOVw8BJHJdowFMkR2IJMZHuE9iY93mHfSYjCOO2n0qLDiUAnsK+FS8WoE2VaIZhaOvSmpB1OkyS45Lhb/a5RP5+O1bDDItPKKe8x3stk5Zl9hxS2W9rHBCL904Y2vnEqpVFDjEJ/Kz4eCdFn+Ag==);strokeColor=none;spacingTop=-3;spacingBottom=-3;spacingLeft=-3;spacingRight=-3;labelBackgroundColor=none;rounded=0;html=1;whiteSpace=wrap;" parent="EulCbl3LE-ToeLQa1urC-61" vertex="1">
                    <mxGeometry width="49" height="32" as="geometry"/>
                </mxCell>
                <mxCell id="EulCbl3LE-ToeLQa1urC-63" style="vsdxID=1896;fillColor=#50e6ff;gradientColor=none;shape=stencil(lZHBCsIwEES/Zq8lZqR4r/U/Ck3NYkxKGq3+vQmLaAWl3mY2b5ZlQmgm242GtJpSDCczc58sYU9as7cmcsqK0BKaIURzjOHie/FjV8iizuFaNtwkt1GqZLS6ixd3ENSx/4HWdbXdfceX8DO8AgUqYP0Zf1y8QLN4lTKwc9Lp+/tniXkkH4D2AQ==);strokeColor=none;spacingTop=-3;spacingBottom=-3;spacingLeft=-3;spacingRight=-3;labelBackgroundColor=none;rounded=0;html=1;whiteSpace=wrap;" parent="EulCbl3LE-ToeLQa1urC-61" vertex="1">
                    <mxGeometry x="24" y="11" width="8" height="14" as="geometry"/>
                </mxCell>
                <mxCell id="EulCbl3LE-ToeLQa1urC-64" style="vsdxID=1897;fillColor=#c3f1ff;gradientColor=none;shape=stencil(UzV2Ls5ILEhVNTIoLinKz04tz0wpyVA1dlE1MsrMy0gtyiwBslSNXVWNndPyi1LTi/JL81Ig/IJEkEoQKze/DGRCBUSfoYEBSI+RQSWEb2KpZ2EGFnGDKM/JzENSboqqGqYbq1pKDMZjLIkuJqgcyEAETlpmTg4kbJHl0QMTKASJCGNXAA==);strokeColor=none;spacingTop=-3;spacingBottom=-3;spacingLeft=-3;spacingRight=-3;labelBackgroundColor=none;rounded=0;html=1;whiteSpace=wrap;" parent="EulCbl3LE-ToeLQa1urC-61" vertex="1">
                    <mxGeometry x="16" y="6" width="16" height="9" as="geometry"/>
                </mxCell>
                <mxCell id="EulCbl3LE-ToeLQa1urC-65" style="vsdxID=1898;fillColor=#9cebff;gradientColor=none;shape=stencil(UzV2Ls5ILEhVNTIoLinKz04tz0wpyVA1dlE1MsrMy0gtyiwBslSNXVWNndPyi1LTi/JL81Ig/IJEkEoQKze/DGRCBUSfoYEBSI+RQSWEb2ysZ2oEFnGDKM/JzMOjHMbHqhhVqZmZnokFsYrxmEqhizGUAxmIwEnLzMmBhC2yPHpgAoUgEWHsCgA=);strokeColor=none;spacingTop=-3;spacingBottom=-3;spacingLeft=-3;spacingRight=-3;labelBackgroundColor=none;rounded=0;html=1;whiteSpace=wrap;" parent="EulCbl3LE-ToeLQa1urC-61" vertex="1">
                    <mxGeometry x="16" y="11" width="8" height="14" as="geometry"/>
                </mxCell>
                <mxCell id="EulCbl3LE-ToeLQa1urC-66" style="vsdxID=1899;fillColor=#c3f1ff;gradientColor=none;shape=stencil(UzV2Ls5ILEhVNTIoLinKz04tz0wpyVA1dlE1MsrMy0gtyiwBslSNXVWNndPyi1LTi/JL81Ig/IJEkEoQKze/DGRCBUSfAUiHkUElhGdiqWduCBZxgyjOycxDUmxogKrcgHilMD5WxSQ5goBiIAPh17TMnBxIUCHLo4cNUAgSrsauAA==);strokeColor=none;spacingTop=-3;spacingBottom=-3;spacingLeft=-3;spacingRight=-3;labelBackgroundColor=none;rounded=0;html=1;whiteSpace=wrap;" parent="EulCbl3LE-ToeLQa1urC-61" vertex="1">
                    <mxGeometry x="16" y="16" width="8" height="9" as="geometry"/>
                </mxCell>
                <mxCell id="EulCbl3LE-ToeLQa1urC-67" style="vsdxID=1900;fillColor=#9cebff;gradientColor=none;shape=stencil(UzV2Ls5ILEhVNTIoLinKz04tz0wpyVA1dlE1MsrMy0gtyiwBslSNXVWNndPyi1LTi/JL81Ig/IJEkEoQKze/DGRCBUSfoYEBSI+RQSWEb2KpZ24IFnGDKM/JzENSjqrYgFiFMFuwKiXRCQSVAxkI36Zl5uRAAgtZHj10gEKQkDV2BQA=);strokeColor=none;spacingTop=-3;spacingBottom=-3;spacingLeft=-3;spacingRight=-3;labelBackgroundColor=none;rounded=0;html=1;whiteSpace=wrap;" parent="EulCbl3LE-ToeLQa1urC-61" vertex="1">
                    <mxGeometry x="24" y="16" width="8" height="9" as="geometry"/>
                </mxCell>
                <mxCell id="EulCbl3LE-ToeLQa1urC-68" style="vsdxID=1901;fillColor=#0078d4;gradientColor=none;shape=stencil(vVPBbsMgDP0ajkGA06Q5d+1/oJYkaCxEhK7s70eG25Gk2qQddjPPz7xnyyZwmHo5KiLY5J19VTd98T2BFyKEHnrltI8RgSOBQ2ud6py9Dpf0HuXMnKM3+z7/EFJdwyjnc5VgHwmp97T8Ak6Jf766VMAxzygAVtwhQWGXoCASVDV0VyELobKkNUoF2LIQYrm20UPmFTLlJ+S1UdgazS2gK9HQql4azdtBVw3dN0uf6zFJd45Zh1Y5f4zVoVfBKbYacvP3VjjDdyhk0FPhrJde22HBNdJ1qohSRWtkt0hNN6XGDfx0jg+plfSfO/lhif6hnd9XOAbf+99qY9L55Pn1vUQo3RocPwE=);strokeColor=none;spacingTop=-3;spacingBottom=-3;spacingLeft=-3;spacingRight=-3;labelBackgroundColor=none;rounded=0;html=1;whiteSpace=wrap;" parent="EulCbl3LE-ToeLQa1urC-61" vertex="1">
                    <mxGeometry x="12" y="32" width="24" height="12" as="geometry"/>
                </mxCell>
                <mxCell id="EulCbl3LE-ToeLQa1urC-69" value="" style="aspect=fixed;html=1;points=[];align=center;image;fontSize=12;image=img/lib/azure2/security/Security_Center.svg;rounded=0;sketch=0;strokeColor=#457B9D;fillColor=#A8DADC;" parent="EulCbl3LE-ToeLQa1urC-61" vertex="1">
                    <mxGeometry x="36" y="16" width="27.18" height="33" as="geometry"/>
                </mxCell>
                <mxCell id="EulCbl3LE-ToeLQa1urC-81" style="vsdxID=1715;edgeStyle=none;startArrow=none;endArrow=block;startSize=5;endSize=5;strokeWidth=2;strokeColor=#0078d4;spacingTop=0;spacingBottom=0;spacingLeft=0;spacingRight=0;verticalAlign=middle;html=1;labelBackgroundColor=#ffffff;rounded=0;" parent="EulCbl3LE-ToeLQa1urC-1" edge="1">
                    <mxGeometry relative="1" as="geometry">
                        <mxPoint x="21" as="offset"/>
                        <Array as="points"/>
                        <mxPoint x="416" y="277" as="sourcePoint"/>
                        <mxPoint x="513" y="277" as="targetPoint"/>
                    </mxGeometry>
                </mxCell>
                <mxCell id="EulCbl3LE-ToeLQa1urC-84" value="&lt;font style=&quot;font-size: 14px ; font-family: &amp;#34;segoe ui&amp;#34; ; color: #000000 ; direction: ltr ; letter-spacing: 0px ; line-height: 120% ; opacity: 1&quot;&gt;VMs with agent installed&lt;br&gt;&lt;/font&gt;" style="verticalAlign=middle;align=center;vsdxID=1700;fillColor=none;gradientColor=none;shape=stencil(nZBLDoAgDERP0z3SIyjew0SURgSD+Lu9kMZoXLhwN9O+tukAlrNpJg1SzDH4QW/URgNYgZTkjA4UkwJUgGXng+6DX1zLfmoymdXo17xh5zmRJ6Q42BWCfc2oJfdAr+Yv+AP9Cb7OJ3H/2JG1HNGz/84klThPVCc=);strokeColor=none;labelBackgroundColor=none;rounded=0;html=1;whiteSpace=wrap;" parent="EulCbl3LE-ToeLQa1urC-1" vertex="1">
                    <mxGeometry x="72" y="258" width="203" height="38" as="geometry"/>
                </mxCell>
                <mxCell id="EulCbl3LE-ToeLQa1urC-86" value="&lt;p style=&quot;align:left;margin-left:0;margin-right:0;margin-top:0px;margin-bottom:0px;text-indent:0;valign:middle;direction:ltr;&quot;&gt;&lt;font style=&quot;font-size:11px;font-family:Segoe UI;color:#00599f;direction:ltr;letter-spacing:0px;line-height:120%;opacity:1&quot;&gt;HTTPS: used&lt;br/&gt;by agents&lt;br/&gt;&lt;/font&gt;&lt;/p&gt;" style="verticalAlign=middle;align=left;vsdxID=1841;fillColor=none;gradientColor=none;shape=stencil(nZBLDoAgDERP0z3SIyjew0SURgSD+Lu9kMZoXLhwN9O+tukAlrNpJg1SzDH4QW/URgNYgZTkjA4UkwJUgGXng+6DX1zLfmoymdXo17xh5zmRJ6Q42BWCfc2oJfdAr+Yv+AP9Cb7OJ3H/2JG1HNGz/84klThPVCc=);strokeColor=none;labelBackgroundColor=none;rounded=0;html=1;whiteSpace=wrap;" parent="EulCbl3LE-ToeLQa1urC-1" vertex="1">
                    <mxGeometry x="324" y="404" width="101" height="45" as="geometry"/>
                </mxCell>
                <mxCell id="EulCbl3LE-ToeLQa1urC-87" value="&lt;p style=&quot;align:left;margin-left:0;margin-right:0;margin-top:0px;margin-bottom:0px;text-indent:0;valign:middle;direction:ltr;&quot;&gt;&lt;font style=&quot;font-size:11px;font-family:Segoe UI;color:#00599f;direction:ltr;letter-spacing:0px;line-height:120%;opacity:1&quot;&gt;HTTPS: used&lt;br/&gt;by agents&lt;br/&gt;&lt;/font&gt;&lt;/p&gt;" style="verticalAlign=middle;align=left;vsdxID=1843;fillColor=none;gradientColor=none;shape=stencil(nZBLDoAgDERP0z3SIyjew0SURgSD+Lu9kMZoXLhwN9O+tukAlrNpJg1SzDH4QW/URgNYgZTkjA4UkwJUgGXng+6DX1zLfmoymdXo17xh5zmRJ6Q42BWCfc2oJfdAr+Yv+AP9Cb7OJ3H/2JG1HNGz/84klThPVCc=);strokeColor=none;labelBackgroundColor=none;rounded=0;html=1;whiteSpace=wrap;" parent="EulCbl3LE-ToeLQa1urC-1" vertex="1">
                    <mxGeometry x="302" y="226" width="101" height="45" as="geometry"/>
                </mxCell>
                <mxCell id="EulCbl3LE-ToeLQa1urC-95" style="vsdxID=1926;fillColor=none;gradientColor=none;strokeColor=none;spacingTop=-3;spacingBottom=-3;spacingLeft=-3;spacingRight=-3;labelBackgroundColor=none;rounded=0;html=1;whiteSpace=wrap;" parent="EulCbl3LE-ToeLQa1urC-1" vertex="1">
                    <mxGeometry x="372" y="252" width="22" height="38" as="geometry"/>
                </mxCell>
                <mxCell id="EulCbl3LE-ToeLQa1urC-96" style="vsdxID=1927;fillColor=none;gradientColor=none;strokeColor=none;spacingTop=-3;spacingBottom=-3;spacingLeft=-3;spacingRight=-3;labelBackgroundColor=none;rounded=0;html=1;whiteSpace=wrap;" parent="EulCbl3LE-ToeLQa1urC-95" vertex="1">
                    <mxGeometry width="22" height="38" as="geometry"/>
                </mxCell>
                <mxCell id="EulCbl3LE-ToeLQa1urC-97" style="vsdxID=1928;fillColor=#949494;gradientColor=none;shape=stencil(lZPdcoMgEIWfhtsd2BUr12nyHpnEVCZWM8T8vX21oLLEpu0dHM+ynwdW0OpcbU+lQHnuXHssb3bfVYLeBaJtqtLZrl8JWgtaHVpXfrj20uz9/rQdnMPqs70OJ9x9nZJyqEH58HuTg8ZvZePtu4vzfpUWBMEUkPkKeccgvQGp4BolA0UWXBSkDKQJLuKHh961bSJUDUYx1sSdkiLkhqNO7COoTCCjXyHuoB/i4Yg8S4KseAWYBKlAFxwPJ5yRUILKOaCGXHPGl6FEdk4x9oxS5iHNDSfDUkMeSHzHf6CLH84y3vz88Ck1Si20fA8c8dcJ+Ke9X8zDdrB17Wc1/p4OZy/5wab1Fw==);strokeColor=none;strokeWidth=17;spacingTop=-3;spacingBottom=-3;spacingLeft=-3;spacingRight=-3;labelBackgroundColor=none;rounded=0;html=1;whiteSpace=wrap;" parent="EulCbl3LE-ToeLQa1urC-96" vertex="1">
                    <mxGeometry width="22" height="38" as="geometry"/>
                </mxCell>
                <mxCell id="EulCbl3LE-ToeLQa1urC-98" style="vsdxID=1929;fillColor=#003067;gradientColor=none;shape=stencil(jZTRcoMgEEW/htcd3EWQ5zT5j0xiKlOrGWPa5O+rBSustfUN1rPeO3sBQbtbdbyWAuWt79q38tOd+0rQi0B0TVV2rh9WgvaCdpe2K1+79t6c/f56HMlx9d5+jH94+D45dqB8+l0uQeN35eDh073zdJbiYYsESvvSA31Jg1EBCpUMkAJDoaLAFgEiBgXh2jWRy0IBmsQp57lRi5BnqVmZGrUWNKVOEQGRWZUyNaosUPGX8tyR8Y4f7ZlBPvh15UU46YxmfmOWC6PGgGFGLQFqFufUNhktcpDI0gzMinLcwc1MykPkmh+khXLE/K7MRhSdu01Go8O85pMFGc+QUmJbjP+EOCzmq3xxde1fgvg7v/pDyT8btP8C);strokeColor=none;strokeWidth=17;spacingTop=-3;spacingBottom=-3;spacingLeft=-3;spacingRight=-3;labelBackgroundColor=none;rounded=0;html=1;whiteSpace=wrap;" parent="EulCbl3LE-ToeLQa1urC-96" vertex="1">
                    <mxGeometry x="3" y="10" width="16" height="4" as="geometry"/>
                </mxCell>
                <mxCell id="EulCbl3LE-ToeLQa1urC-99" style="vsdxID=1930;fillColor=#003067;gradientColor=none;shape=stencil(jZTRcoMgEEW/htcd3CUgz2nyH5nGVKZWM8S06d9XC0bY1NQ3WO96z+wFBG0v9eFcCZSX3nfv1Zc79rWgF4Ho2rryrh9WgnaCtqfOV2++u7bHsD8fRuW4+ug+xz/cQp8cO1B+h91Ggsbfyj6IX68+qItcHrdIoHQo3TCUNBgVRbFSAFLUUKwosGUUERNF48a1CWWpAE1GyvUc1CJsihxW5qDWgqacFBEQGaqUOaiyQOUz57mj4B1371mDfPDLzg/h5DOa9SuzfAA1BgwDtQSoWZxT2wQ6hKNVjjppFpzTDg4zOaeRP3G+a/52ZiNKzt0q0OQwL3GyINMZUq5YF+M/IQ6L+SqfXNOElyD9zq/+UArPBu1+AA==);strokeColor=none;strokeWidth=17;spacingTop=-3;spacingBottom=-3;spacingLeft=-3;spacingRight=-3;labelBackgroundColor=none;rounded=0;html=1;whiteSpace=wrap;" parent="EulCbl3LE-ToeLQa1urC-96" vertex="1">
                    <mxGeometry x="3" y="3" width="16" height="4" as="geometry"/>
                </mxCell>
                <mxCell id="EulCbl3LE-ToeLQa1urC-100" style="vsdxID=1931;fillColor=#50e6ff;gradientColor=none;shape=stencil(vVHLDsIgEPwajiQI6RfU+h8bu22JCGRB2/69kG1iazx58DazM/vIjjBtmiCi0CplCjecbZ8nYc5Ca+snJJsLEqYTph0C4Ujh4XvmEaqzont41gkL96naodXKrGF6YSfQtUi0OXXDVlqPfJNP6usotUhYbJIUMmQb/GGrAxpRljVycDBuc1hKM2LclX8/7H9nFfB+82Cd45T2+mcspcSRmu4F);strokeColor=none;strokeWidth=17;spacingTop=-3;spacingBottom=-3;spacingLeft=-3;spacingRight=-3;labelBackgroundColor=none;rounded=0;html=1;whiteSpace=wrap;" parent="EulCbl3LE-ToeLQa1urC-96" vertex="1">
                    <mxGeometry x="4" y="4" width="3" height="3" as="geometry"/>
                </mxCell>
                <mxCell id="EulCbl3LE-ToeLQa1urC-101" style="vsdxID=1932;fillColor=#50e6ff;gradientColor=none;shape=stencil(vVHLDsIgEPwajiQI6RfU+h8bu22JCGRB2/69kG1iazx58DazM/vIjjBtmiCi0CplCjecbZ8nYc5Ca+snJJsLEqYTph0C4Ujh4XvmEaqzont41gkL96naodXKrGF6YSfQtUi0OXXDVlqPfJNP6usotUhYbJIUMmQb/GGrAxpRljVycDBuc1hKM2LclX8/7H9nFfB+82Cd45T2+mcspcSRmu4F);strokeColor=none;strokeWidth=17;spacingTop=-3;spacingBottom=-3;spacingLeft=-3;spacingRight=-3;labelBackgroundColor=none;rounded=0;html=1;whiteSpace=wrap;" parent="EulCbl3LE-ToeLQa1urC-96" vertex="1">
                    <mxGeometry x="4" y="11" width="3" height="3" as="geometry"/>
                </mxCell>
                <mxCell id="EulCbl3LE-ToeLQa1urC-102" style="vsdxID=1933;fillColor=none;gradientColor=none;strokeColor=none;spacingTop=-3;spacingBottom=-3;spacingLeft=-3;spacingRight=-3;labelBackgroundColor=none;rounded=0;html=1;whiteSpace=wrap;" parent="EulCbl3LE-ToeLQa1urC-1" vertex="1">
                    <mxGeometry x="379" y="272" width="41" height="36" as="geometry"/>
                </mxCell>
                <mxCell id="EulCbl3LE-ToeLQa1urC-103" style="vsdxID=1934;fillColor=#0078d4;gradientColor=none;shape=stencil(vZTLboMwEEW/hiUj4wE/1mn6H1ZjwCoFZEhD/r5QI8JAoq7Kzp6HfbgeboSnrjStjTjret982pu79GWEbxHnri6td/24ivAc4SlvvC18c60vYd+aqXJafTXf0wlD6EsYm3o4u4e9UCCS38h7KDf+Y8z6uZxzmHJTg587MAHEEJqLFIOMHIrLoWyIzeC62De96V1Th/yMUBlf2Hi8MM4rU5BUd7O23YWfI6qFZ0HUoFOCmD2g7+SiA/g0MEH5UgZaED6OkAnCxwXI4zQUoLYaSlCcMG4GB4Flh/HJ/RiOz66ohgoSSRj1ag7+gbFy9erPQrYM/e76pw1SLB/1qoGqkAJqKoKAhGogJaTpkRrs7EJu34kDo//iaws64JX+9L9x8fDO3FVVsN51fuu1Yyj4NJ5/AA==);strokeColor=none;spacingTop=-3;spacingBottom=-3;spacingLeft=-3;spacingRight=-3;labelBackgroundColor=none;rounded=0;html=1;whiteSpace=wrap;" parent="EulCbl3LE-ToeLQa1urC-102" vertex="1">
                    <mxGeometry width="41" height="29" as="geometry"/>
                </mxCell>
                <mxCell id="EulCbl3LE-ToeLQa1urC-104" style="vsdxID=1935;fillColor=#f2f2f2;gradientColor=none;shape=stencil(nZBRDoQgDERP03+WHsHFe5iISyOCQdT19kIaIxq//Jtp3zTpAFaTaUYNUkwx+F6v1EYD+AUpyRkdKCYFqACrzgf9C352LfuxyWRWg1/yhT/nRE5IsZWuZtCSK8CPeI0e/hF+jV7AJM4PO7KWCyr390bSiNtEtQM=);strokeColor=none;spacingTop=-3;spacingBottom=-3;spacingLeft=-3;spacingRight=-3;labelBackgroundColor=none;rounded=0;html=1;whiteSpace=wrap;" parent="EulCbl3LE-ToeLQa1urC-102" vertex="1">
                    <mxGeometry x="15" y="13" width="11" height="15" as="geometry"/>
                </mxCell>
                <mxCell id="EulCbl3LE-ToeLQa1urC-105" style="vsdxID=1936;fillColor=#50e6ff;gradientColor=none;shape=stencil(vVTRboMwDPyaPBIlcSHkuWv/I2oDRGOkCnRlf7+wkA63XVdpWt8c+87ns8AE1n2jD4YI1g/evZqT3Q8NgRcihO0a4+0QIgIbAuvKeVN7d+z28X3QE3KK3tz71GGMPJXTVTmxBPuIGZ5TJb4y20hobbcgSCoVwrMlVvtdqPgZW1Ax9/apOVUze1yyz9qUp3KmR9tn3g16sK5D4Fb72mRBKqtaXaNSfzLmcJWeh9sdfbTOsTa/EhcYIBKgkDMAMAASoISfN4etqpIy/qfVFZQB3h5j/7c87CUMv7qpfRMdPjKJRy2BFnfNq1/Mn72mhpxK+Sz3l+I8rEPes5MDtiMS/pHf8AmGHrgCIfi+IZVt23iClvXLmxNS8V7B5hM=);strokeColor=none;spacingTop=-3;spacingBottom=-3;spacingLeft=-3;spacingRight=-3;labelBackgroundColor=none;rounded=0;html=1;whiteSpace=wrap;" parent="EulCbl3LE-ToeLQa1urC-102" vertex="1">
                    <mxGeometry x="20" y="7" width="9" height="28" as="geometry"/>
                </mxCell>
                <mxCell id="EulCbl3LE-ToeLQa1urC-106" value="&lt;font style=&quot;font-size:14px;font-family:Segoe UI;color:#000000;direction:ltr;letter-spacing:0px;line-height:120%;opacity:1&quot;&gt;(Optional)&lt;br/&gt;collector proxy&lt;br/&gt;&lt;/font&gt;" style="text;vsdxID=1933;fillColor=none;gradientColor=none;strokeColor=none;spacingTop=-3;spacingBottom=-3;spacingLeft=-3;spacingRight=-3;labelBackgroundColor=none;rounded=0;html=1;whiteSpace=wrap;verticalAlign=middle;align=center;;html=1;" parent="EulCbl3LE-ToeLQa1urC-102" vertex="1">
                    <mxGeometry x="-35.87" y="42.74" width="103.19" height="22.22" as="geometry"/>
                </mxCell>
                <mxCell id="EulCbl3LE-ToeLQa1urC-107" style="vsdxID=1924;edgeStyle=none;startArrow=block;endArrow=none;startSize=9;endSize=9;strokeWidth=2;spacingTop=0;spacingBottom=0;spacingLeft=0;spacingRight=0;verticalAlign=middle;html=1;labelBackgroundColor=#ffffff;rounded=0;" parent="EulCbl3LE-ToeLQa1urC-1" edge="1">
                    <mxGeometry relative="1" as="geometry">
                        <mxPoint y="-1" as="offset"/>
                        <Array as="points">
                            <mxPoint x="324.55" y="288"/>
                            <mxPoint x="324.55" y="441.37"/>
                        </Array>
                        <mxPoint x="369" y="288" as="sourcePoint"/>
                        <mxPoint x="301" y="441" as="targetPoint"/>
                    </mxGeometry>
                </mxCell>
                <mxCell id="EulCbl3LE-ToeLQa1urC-109" style="vsdxID=1839;edgeStyle=none;startArrow=none;endArrow=block;startSize=3;endSize=5;strokeWidth=2;strokeColor=#0078d4;spacingTop=0;spacingBottom=0;spacingLeft=0;spacingRight=0;verticalAlign=middle;html=1;labelBackgroundColor=#ffffff;rounded=0;exitX=0;exitY=0.25;exitDx=0;exitDy=0;" parent="EulCbl3LE-ToeLQa1urC-1" source="EulCbl3LE-ToeLQa1urC-5" edge="1">
                    <mxGeometry relative="1" as="geometry">
                        <mxPoint x="-1" as="offset"/>
                        <Array as="points"/>
                        <mxPoint x="810" y="400" as="sourcePoint"/>
                        <mxPoint x="790" y="330" as="targetPoint"/>
                    </mxGeometry>
                </mxCell>
                <mxCell id="EulCbl3LE-ToeLQa1urC-110" style="vsdxID=1839;edgeStyle=none;startArrow=none;endArrow=block;startSize=3;endSize=5;strokeWidth=2;strokeColor=#0078d4;spacingTop=0;spacingBottom=0;spacingLeft=0;spacingRight=0;verticalAlign=middle;html=1;labelBackgroundColor=#ffffff;rounded=0;exitX=0;exitY=0.25;exitDx=0;exitDy=0;" parent="EulCbl3LE-ToeLQa1urC-1" source="EulCbl3LE-ToeLQa1urC-14" edge="1">
                    <mxGeometry relative="1" as="geometry">
                        <mxPoint x="-1" as="offset"/>
                        <Array as="points"/>
                        <mxPoint x="903.9099999999999" y="406.25" as="sourcePoint"/>
                        <mxPoint x="800" y="352" as="targetPoint"/>
                    </mxGeometry>
                </mxCell>
                <mxCell id="EulCbl3LE-ToeLQa1urC-111" value="Azure Security Center" style="text;html=1;strokeColor=none;fillColor=none;align=center;verticalAlign=middle;whiteSpace=wrap;rounded=0;sketch=0;fontColor=#1D3557;" parent="EulCbl3LE-ToeLQa1urC-1" vertex="1">
                    <mxGeometry x="535.22" y="296" width="90.55" height="20" as="geometry"/>
                </mxCell>
                <mxCell id="EulCbl3LE-ToeLQa1urC-112" style="vsdxID=1714;edgeStyle=none;startArrow=block;endArrow=block;startSize=5;endSize=5;strokeWidth=2;strokeColor=#0078d4;spacingTop=0;spacingBottom=0;spacingLeft=0;spacingRight=0;verticalAlign=middle;html=1;labelBackgroundColor=#ffffff;rounded=0;entryX=0;entryY=0.051;entryDx=0;entryDy=0;entryPerimeter=0;" parent="EulCbl3LE-ToeLQa1urC-1" target="EulCbl3LE-ToeLQa1urC-23" edge="1">
                    <mxGeometry relative="1" as="geometry">
                        <mxPoint as="offset"/>
                        <Array as="points"/>
                        <mxPoint x="790" y="360" as="sourcePoint"/>
                        <mxPoint x="819" y="380" as="targetPoint"/>
                    </mxGeometry>
                </mxCell>
                <mxCell id="EulCbl3LE-ToeLQa1urC-113" style="vsdxID=1714;edgeStyle=none;startArrow=block;endArrow=block;startSize=5;endSize=5;strokeWidth=2;strokeColor=#0078d4;spacingTop=0;spacingBottom=0;spacingLeft=0;spacingRight=0;verticalAlign=middle;html=1;labelBackgroundColor=#ffffff;rounded=0;entryX=0.48;entryY=0.08;entryDx=0;entryDy=0;entryPerimeter=0;" parent="EulCbl3LE-ToeLQa1urC-1" target="EulCbl3LE-ToeLQa1urC-28" edge="1">
                    <mxGeometry relative="1" as="geometry">
                        <mxPoint as="offset"/>
                        <Array as="points"/>
                        <mxPoint x="740" y="370" as="sourcePoint"/>
                        <mxPoint x="859.97" y="541.989" as="targetPoint"/>
                    </mxGeometry>
                </mxCell>
                <mxCell id="EulCbl3LE-ToeLQa1urC-114" style="vsdxID=1714;edgeStyle=none;startArrow=block;endArrow=block;startSize=5;endSize=5;strokeWidth=2;strokeColor=#0078d4;spacingTop=0;spacingBottom=0;spacingLeft=0;spacingRight=0;verticalAlign=middle;html=1;labelBackgroundColor=#ffffff;rounded=0;entryX=-0.041;entryY=0.079;entryDx=0;entryDy=0;entryPerimeter=0;" parent="EulCbl3LE-ToeLQa1urC-1" target="EulCbl3LE-ToeLQa1urC-115" edge="1">
                    <mxGeometry relative="1" as="geometry">
                        <mxPoint as="offset"/>
                        <Array as="points"/>
                        <mxPoint x="770" y="360" as="sourcePoint"/>
                        <mxPoint x="880.04" y="544.999" as="targetPoint"/>
                    </mxGeometry>
                </mxCell>
                <mxCell id="EulCbl3LE-ToeLQa1urC-122" style="vsdxID=1714;edgeStyle=none;startArrow=block;endArrow=block;startSize=5;endSize=5;strokeWidth=2;strokeColor=#0078d4;spacingTop=0;spacingBottom=0;spacingLeft=0;spacingRight=0;verticalAlign=middle;html=1;labelBackgroundColor=#ffffff;rounded=0;exitX=-0.124;exitY=0.875;exitDx=0;exitDy=0;exitPerimeter=0;" parent="EulCbl3LE-ToeLQa1urC-1" source="EulCbl3LE-ToeLQa1urC-60" edge="1">
                    <mxGeometry relative="1" as="geometry">
                        <mxPoint as="offset"/>
                        <Array as="points"/>
                        <mxPoint x="788.0099599999999" y="379.99181999999996" as="sourcePoint"/>
                        <mxPoint x="581" y="440" as="targetPoint"/>
                    </mxGeometry>
                </mxCell>
                <mxCell id="bRuFRhwKxHo6qi5xH5AQ-0" value="" style="rounded=0;whiteSpace=wrap;html=1;shadow=0;glass=0;sketch=0;opacity=80;" parent="EulCbl3LE-ToeLQa1urC-1" vertex="1">
                    <mxGeometry x="30" y="50" width="422.5" height="549" as="geometry"/>
                </mxCell>
            </root>
        </mxGraphModel>
    </diagram>
    <diagram name="Page 2" id="un0ZcJIjZhSR20KsNIDD">
        <mxGraphModel dx="1568" dy="465" grid="0" gridSize="10" guides="1" tooltips="1" connect="1" arrows="1" fold="1" page="1" pageScale="1" pageWidth="850" pageHeight="1100" background="#F1FAEE" math="0" shadow="0">
            <root>
                <mxCell id="PKxi8dd4sE5zJFLNihq0-0"/>
                <mxCell id="PKxi8dd4sE5zJFLNihq0-1" parent="PKxi8dd4sE5zJFLNihq0-0"/>
                <mxCell id="PKxi8dd4sE5zJFLNihq0-2" value="" style="rounded=1;whiteSpace=wrap;html=1;fillColor=#A8DADC;strokeColor=#457B9D;fontColor=#1D3557;" parent="PKxi8dd4sE5zJFLNihq0-1" vertex="1">
                    <mxGeometry x="85" y="53" width="730" height="568" as="geometry"/>
                </mxCell>
                <mxCell id="PKxi8dd4sE5zJFLNihq0-3" value="" style="aspect=fixed;html=1;points=[];align=center;image;fontSize=12;image=img/lib/azure2/storage/Storage_Accounts.svg;labelBackgroundColor=#F1FAEE;fillColor=#A8DADC;strokeColor=#457B9D;fontColor=#1D3557;" parent="PKxi8dd4sE5zJFLNihq0-1" vertex="1">
                    <mxGeometry x="468" y="509" width="65" height="52" as="geometry"/>
                </mxCell>
                <mxCell id="PKxi8dd4sE5zJFLNihq0-4" value="" style="aspect=fixed;html=1;points=[];align=center;image;fontSize=12;image=img/lib/azure2/management_governance/Automation_Accounts.svg;labelBackgroundColor=#F1FAEE;fillColor=#A8DADC;strokeColor=#457B9D;fontColor=#1D3557;" parent="PKxi8dd4sE5zJFLNihq0-1" vertex="1">
                    <mxGeometry x="470.5" y="72" width="50" height="50" as="geometry"/>
                </mxCell>
                <mxCell id="PKxi8dd4sE5zJFLNihq0-6" value="" style="aspect=fixed;html=1;points=[];align=center;image;fontSize=12;image=img/lib/azure2/analytics/Log_Analytics_Workspaces.svg;labelBackgroundColor=#F1FAEE;fillColor=#A8DADC;strokeColor=#457B9D;fontColor=#1D3557;" parent="PKxi8dd4sE5zJFLNihq0-1" vertex="1">
                    <mxGeometry x="450" y="211" width="91" height="91" as="geometry"/>
                </mxCell>
                <mxCell id="PKxi8dd4sE5zJFLNihq0-7" value="" style="aspect=fixed;html=1;points=[];align=center;image;fontSize=12;image=img/lib/azure2/compute/Virtual_Machine.svg;labelBackgroundColor=#F1FAEE;fillColor=#A8DADC;strokeColor=#457B9D;fontColor=#1D3557;" parent="PKxi8dd4sE5zJFLNihq0-1" vertex="1">
                    <mxGeometry x="670" y="180" width="69" height="64" as="geometry"/>
                </mxCell>
                <mxCell id="PKxi8dd4sE5zJFLNihq0-8" value="" style="aspect=fixed;html=1;points=[];align=center;image;fontSize=12;image=img/lib/azure2/compute/Virtual_Machine.svg;labelBackgroundColor=#F1FAEE;fillColor=#A8DADC;strokeColor=#457B9D;fontColor=#1D3557;" parent="PKxi8dd4sE5zJFLNihq0-1" vertex="1">
                    <mxGeometry x="670" y="290" width="69" height="64" as="geometry"/>
                </mxCell>
                <mxCell id="PKxi8dd4sE5zJFLNihq0-9" value="&lt;font style=&quot;font-size: 24px&quot;&gt;&lt;b&gt;Azure&lt;/b&gt;&lt;/font&gt;" style="text;html=1;strokeColor=none;fillColor=none;align=center;verticalAlign=middle;whiteSpace=wrap;rounded=0;fontColor=#1D3557;" parent="PKxi8dd4sE5zJFLNihq0-1" vertex="1">
                    <mxGeometry x="405" y="30" width="40" height="20" as="geometry"/>
                </mxCell>
                <mxCell id="PKxi8dd4sE5zJFLNihq0-10" value="&lt;font style=&quot;font-size: 13px&quot;&gt;Automation Account&lt;/font&gt;" style="text;html=1;strokeColor=none;fillColor=none;align=center;verticalAlign=middle;whiteSpace=wrap;rounded=0;fontColor=#1D3557;" parent="PKxi8dd4sE5zJFLNihq0-1" vertex="1">
                    <mxGeometry x="475.5" y="132" width="40" height="20" as="geometry"/>
                </mxCell>
                <mxCell id="PKxi8dd4sE5zJFLNihq0-11" value="&lt;font style=&quot;font-size: 13px&quot;&gt;Storage Account Logging&lt;/font&gt;" style="text;html=1;strokeColor=none;fillColor=none;align=center;verticalAlign=middle;whiteSpace=wrap;rounded=0;fontColor=#1D3557;" parent="PKxi8dd4sE5zJFLNihq0-1" vertex="1">
                    <mxGeometry x="428" y="571" width="140" height="20" as="geometry"/>
                </mxCell>
                <mxCell id="PKxi8dd4sE5zJFLNihq0-12" value="" style="aspect=fixed;html=1;points=[];align=center;image;fontSize=12;image=img/lib/azure2/storage/Storage_Accounts.svg;labelBackgroundColor=#F1FAEE;fillColor=#A8DADC;strokeColor=#457B9D;fontColor=#1D3557;" parent="PKxi8dd4sE5zJFLNihq0-1" vertex="1">
                    <mxGeometry x="672" y="425" width="65" height="52" as="geometry"/>
                </mxCell>
                <mxCell id="PKxi8dd4sE5zJFLNihq0-13" value="&lt;font style=&quot;font-size: 12px&quot;&gt;&lt;b&gt;Log Analytics Workspace&lt;/b&gt;&lt;/font&gt;" style="text;html=1;strokeColor=none;fillColor=none;align=center;verticalAlign=middle;whiteSpace=wrap;rounded=0;fontColor=#1D3557;" parent="PKxi8dd4sE5zJFLNihq0-1" vertex="1">
                    <mxGeometry x="406" y="308" width="162" height="20" as="geometry"/>
                </mxCell>
                <mxCell id="PKxi8dd4sE5zJFLNihq0-14" value="&lt;font style=&quot;font-size: 13px&quot;&gt;Storage Account Archive&lt;/font&gt;" style="text;html=1;strokeColor=none;fillColor=none;align=center;verticalAlign=middle;whiteSpace=wrap;rounded=0;fontColor=#1D3557;" parent="PKxi8dd4sE5zJFLNihq0-1" vertex="1">
                    <mxGeometry x="634.5" y="489" width="140" height="20" as="geometry"/>
                </mxCell>
                <mxCell id="PKxi8dd4sE5zJFLNihq0-19" value="" style="endArrow=classic;startArrow=classic;html=1;labelBackgroundColor=#F1FAEE;strokeColor=#457B9D;fontColor=#1D3557;entryX=0.576;entryY=0.971;entryDx=0;entryDy=0;entryPerimeter=0;" parent="PKxi8dd4sE5zJFLNihq0-1" source="PKxi8dd4sE5zJFLNihq0-3" target="PKxi8dd4sE5zJFLNihq0-13" edge="1">
                    <mxGeometry width="50" height="50" relative="1" as="geometry">
                        <mxPoint x="310" y="400" as="sourcePoint"/>
                        <mxPoint x="360" y="350" as="targetPoint"/>
                        <Array as="points"/>
                    </mxGeometry>
                </mxCell>
                <mxCell id="PKxi8dd4sE5zJFLNihq0-20" value="" style="endArrow=classic;startArrow=classic;html=1;labelBackgroundColor=#F1FAEE;strokeColor=#457B9D;fontColor=#1D3557;entryX=1;entryY=1;entryDx=0;entryDy=0;" parent="PKxi8dd4sE5zJFLNihq0-1" source="PKxi8dd4sE5zJFLNihq0-12" target="PKxi8dd4sE5zJFLNihq0-13" edge="1">
                    <mxGeometry width="50" height="50" relative="1" as="geometry">
                        <mxPoint x="331.88679245283015" y="440" as="sourcePoint"/>
                        <mxPoint x="370" y="360" as="targetPoint"/>
                        <Array as="points"/>
                    </mxGeometry>
                </mxCell>
                <mxCell id="MmGoB4qr7LDgoH6IaDhK-1" value="" style="aspect=fixed;html=1;points=[];align=center;image;fontSize=12;image=img/lib/azure2/security/Security_Center.svg;labelBackgroundColor=#F1FAEE;fillColor=#A8DADC;strokeColor=#457B9D;fontColor=#1D3557;" parent="PKxi8dd4sE5zJFLNihq0-1" vertex="1">
                    <mxGeometry x="730" y="324" width="24.71" height="30" as="geometry"/>
                </mxCell>
                <mxCell id="MmGoB4qr7LDgoH6IaDhK-2" value="" style="aspect=fixed;html=1;points=[];align=center;image;fontSize=12;image=img/lib/azure2/security/Security_Center.svg;labelBackgroundColor=#F1FAEE;fillColor=#A8DADC;strokeColor=#457B9D;fontColor=#1D3557;" parent="PKxi8dd4sE5zJFLNihq0-1" vertex="1">
                    <mxGeometry x="730" y="214" width="24.71" height="30" as="geometry"/>
                </mxCell>
                <mxCell id="MmGoB4qr7LDgoH6IaDhK-3" value="" style="endArrow=classic;html=1;exitX=-0.014;exitY=0.391;exitDx=0;exitDy=0;exitPerimeter=0;labelBackgroundColor=#F1FAEE;strokeColor=#457B9D;fontColor=#1D3557;" parent="PKxi8dd4sE5zJFLNihq0-1" source="PKxi8dd4sE5zJFLNihq0-8" edge="1">
                    <mxGeometry width="50" height="50" relative="1" as="geometry">
                        <mxPoint x="490" y="430" as="sourcePoint"/>
                        <mxPoint x="546" y="278.3469417482156" as="targetPoint"/>
                    </mxGeometry>
                </mxCell>
                <mxCell id="MmGoB4qr7LDgoH6IaDhK-4" value="" style="endArrow=classic;html=1;labelBackgroundColor=#F1FAEE;strokeColor=#457B9D;fontColor=#1D3557;" parent="PKxi8dd4sE5zJFLNihq0-1" source="PKxi8dd4sE5zJFLNihq0-7" edge="1">
                    <mxGeometry width="50" height="50" relative="1" as="geometry">
                        <mxPoint x="669.0340000000001" y="206.674" as="sourcePoint"/>
                        <mxPoint x="546" y="261.29222520107237" as="targetPoint"/>
                    </mxGeometry>
                </mxCell>
                <mxCell id="MmGoB4qr7LDgoH6IaDhK-9" value="" style="endArrow=classic;startArrow=classic;html=1;exitX=0.5;exitY=1;exitDx=0;exitDy=0;labelBackgroundColor=#F1FAEE;strokeColor=#457B9D;fontColor=#1D3557;" parent="PKxi8dd4sE5zJFLNihq0-1" source="PKxi8dd4sE5zJFLNihq0-10" target="PKxi8dd4sE5zJFLNihq0-6" edge="1">
                    <mxGeometry width="50" height="50" relative="1" as="geometry">
                        <mxPoint x="490" y="350" as="sourcePoint"/>
                        <mxPoint x="540" y="300" as="targetPoint"/>
                    </mxGeometry>
                </mxCell>
                <mxCell id="MmGoB4qr7LDgoH6IaDhK-11" value="Windows Virtual Machine" style="text;html=1;strokeColor=none;fillColor=none;align=center;verticalAlign=middle;whiteSpace=wrap;rounded=0;fontColor=#1D3557;" parent="PKxi8dd4sE5zJFLNihq0-1" vertex="1">
                    <mxGeometry x="684.5" y="374" width="40" height="20" as="geometry"/>
                </mxCell>
                <mxCell id="MmGoB4qr7LDgoH6IaDhK-12" value="Linux VM" style="text;html=1;strokeColor=none;fillColor=none;align=center;verticalAlign=middle;whiteSpace=wrap;rounded=0;fontColor=#1D3557;" parent="PKxi8dd4sE5zJFLNihq0-1" vertex="1">
                    <mxGeometry x="684.5" y="228" width="40" height="76" as="geometry"/>
                </mxCell>
                <mxCell id="MmGoB4qr7LDgoH6IaDhK-13" value="" style="rounded=1;whiteSpace=wrap;html=1;fillColor=#A8DADC;strokeColor=#457B9D;fontColor=#1D3557;" parent="PKxi8dd4sE5zJFLNihq0-1" vertex="1">
                    <mxGeometry x="-337" y="66" width="322" height="247" as="geometry"/>
                </mxCell>
                <mxCell id="MmGoB4qr7LDgoH6IaDhK-14" value="&lt;font style=&quot;font-size: 24px&quot;&gt;&lt;b&gt;On Premise&lt;/b&gt;&lt;/font&gt;" style="text;html=1;strokeColor=none;fillColor=none;align=center;verticalAlign=middle;whiteSpace=wrap;rounded=0;fontColor=#1D3557;" parent="PKxi8dd4sE5zJFLNihq0-1" vertex="1">
                    <mxGeometry x="-263.75" y="36" width="150" height="20" as="geometry"/>
                </mxCell>
                <mxCell id="MmGoB4qr7LDgoH6IaDhK-16" value="&lt;font style=&quot;font-size: 16px&quot;&gt;to be defined later&lt;/font&gt;" style="text;html=1;strokeColor=none;fillColor=none;align=center;verticalAlign=middle;whiteSpace=wrap;rounded=0;fontColor=#1D3557;" parent="PKxi8dd4sE5zJFLNihq0-1" vertex="1">
                    <mxGeometry x="-258.75" y="160" width="150" height="20" as="geometry"/>
                </mxCell>
                <mxCell id="MmGoB4qr7LDgoH6IaDhK-17" value="" style="ellipse;shape=cloud;whiteSpace=wrap;html=1;fillColor=#A8DADC;strokeColor=#457B9D;fontColor=#1D3557;" parent="PKxi8dd4sE5zJFLNihq0-1" vertex="1">
                    <mxGeometry x="-382.5" y="364" width="395" height="270" as="geometry"/>
                </mxCell>
                <mxCell id="MmGoB4qr7LDgoH6IaDhK-18" value="&lt;font style=&quot;font-size: 22px&quot;&gt;&lt;b&gt;Other Cloud Providers and Apps&lt;/b&gt;&lt;/font&gt;" style="text;html=1;strokeColor=none;fillColor=none;align=center;verticalAlign=middle;whiteSpace=wrap;rounded=0;fontColor=#1D3557;" parent="PKxi8dd4sE5zJFLNihq0-1" vertex="1">
                    <mxGeometry x="-305" y="344" width="232.5" height="20" as="geometry"/>
                </mxCell>
                <mxCell id="MmGoB4qr7LDgoH6IaDhK-19" value="&lt;font style=&quot;font-size: 16px&quot;&gt;to be defined later&lt;/font&gt;" style="text;html=1;strokeColor=none;fillColor=none;align=center;verticalAlign=middle;whiteSpace=wrap;rounded=0;fontColor=#1D3557;" parent="PKxi8dd4sE5zJFLNihq0-1" vertex="1">
                    <mxGeometry x="-251" y="497" width="150" height="20" as="geometry"/>
                </mxCell>
            </root>
        </mxGraphModel>
    </diagram>
</mxfile>